<svg width="24" height="25" viewBox="0 0 24 25" fill="none" xmlns="http://www.w3.org/2000/svg">
<g clip-path="url(#clip0_623_3814)">
<path d="M23.4186 15.1322C23.2956 14.7087 23.1494 14.2807 23.0081 13.8672C22.5915 12.6473 22.1601 11.3862 22.2776 10.0805C22.4547 8.10294 22.1953 6.7618 21.4832 5.97955C20.8529 5.28683 19.9082 5.04631 18.9075 4.79192C17.1066 4.3332 15.0719 3.81552 14.5676 0.5H9.43213C8.92785 3.81552 6.89324 4.3332 5.09216 4.79192C4.09209 5.04631 3.14676 5.28683 2.51648 5.97969C1.80492 6.7617 1.54504 8.10313 1.7226 10.0807C1.83862 11.3864 1.4077 12.6484 0.991353 13.8682C0.850025 14.2818 0.704244 14.7092 0.581759 15.1327C0.339106 15.9377 0.249855 16.7811 0.31865 17.619L0.826025 24.4048H2.54081C2.41485 22.8319 2.72179 21.7503 3.04565 20.6103C3.43785 19.2297 3.88218 17.6647 3.69365 14.8016C3.68839 14.7186 3.71283 14.6365 3.7626 14.57C4.19858 14.0027 4.53314 13.3642 4.75148 12.6828C4.75148 12.6823 4.75148 12.6823 4.75195 12.6823C5.11002 11.5209 5.07135 10.2738 4.63049 8.75783C4.61776 8.71404 4.61378 8.66817 4.61878 8.62284C4.62378 8.57751 4.63765 8.5336 4.65962 8.49364C4.68158 8.45367 4.7112 8.41842 4.74679 8.3899C4.78238 8.36138 4.82323 8.34015 4.86702 8.32742C4.91082 8.31469 4.95669 8.31071 5.00202 8.31571C5.04735 8.32071 5.09125 8.33458 5.13121 8.35655C5.17118 8.37851 5.20643 8.40813 5.23495 8.44372C5.26347 8.47931 5.2847 8.52016 5.29743 8.56395C5.47103 9.14472 5.59029 9.74036 5.65368 10.3432L6.43373 11.4957C6.50351 11.6031 6.59958 11.6909 6.71283 11.7508C6.82608 11.8107 6.95276 11.8407 7.08084 11.8378H10.8734C11.0802 11.8376 11.2785 11.7554 11.4247 11.6091C11.571 11.4629 11.6532 11.2646 11.6534 11.0578V8.99703C11.6545 8.9056 11.6916 8.81828 11.7566 8.754C11.8216 8.68972 11.9094 8.65368 12.0008 8.65368C12.0922 8.65368 12.18 8.68972 12.245 8.754C12.3101 8.81828 12.3471 8.9056 12.3482 8.99703V11.0579C12.3484 11.2648 12.4306 11.463 12.5769 11.6093C12.7231 11.7555 12.9214 11.8378 13.1282 11.838H16.9222C17.0502 11.8407 17.1766 11.8106 17.2896 11.7506C17.4027 11.6907 17.4984 11.6028 17.5679 11.4953L18.346 10.3464C18.4092 9.74247 18.5288 9.1458 18.703 8.56414C18.7287 8.47576 18.7885 8.40121 18.8692 8.3569C18.9498 8.31259 19.0448 8.30213 19.1332 8.32784C19.2216 8.35355 19.2961 8.41332 19.3404 8.49399C19.3847 8.57466 19.3952 8.66964 19.3695 8.75802C19.127 9.59263 19.006 10.3454 19.006 11.0471C19.0035 11.6013 19.0853 12.1528 19.2485 12.6825V12.683C19.467 13.3642 19.8015 14.0026 20.2373 14.5699C20.2873 14.6363 20.3118 14.7185 20.3062 14.8014C20.1178 17.6637 20.5621 19.2287 20.9539 20.6092C21.2777 21.7498 21.5847 22.8311 21.4582 24.4047H23.1744L23.6818 17.619C23.7494 16.7809 23.6602 15.9375 23.4186 15.1322ZM11.4093 6.97433C11.3417 7.0369 11.2521 7.07016 11.1601 7.06681C11.0681 7.06346 10.9812 7.02379 10.9184 6.95647C10.1433 6.12238 9.18867 5.75891 8.00006 5.84469C7.90854 5.85071 7.81835 5.82029 7.74918 5.76006C7.68001 5.69984 7.63748 5.6147 7.63085 5.52322C7.62423 5.43174 7.65406 5.34136 7.71383 5.2718C7.77361 5.20224 7.85847 5.15914 7.9499 5.15192C9.34284 5.05128 10.5122 5.49903 11.4271 6.48341C11.4897 6.55091 11.5231 6.64051 11.5197 6.73255C11.5164 6.82459 11.4767 6.91155 11.4093 6.97433ZM16.3711 5.52336C16.3679 5.56882 16.3557 5.6132 16.3353 5.65395C16.3149 5.69471 16.2867 5.73105 16.2523 5.76089C16.2178 5.79073 16.1778 5.81349 16.1346 5.82787C16.0913 5.84225 16.0457 5.84796 16.0002 5.84469C14.8111 5.75891 13.8565 6.12238 13.0814 6.95647C13.0187 7.02394 12.9317 7.06372 12.8396 7.06707C12.7476 7.07042 12.6579 7.03706 12.5905 6.97433C12.523 6.9116 12.4832 6.82463 12.4799 6.73257C12.4765 6.6405 12.5099 6.55088 12.5726 6.48341C13.4875 5.49903 14.6569 5.05077 16.0503 5.15216C16.142 5.15895 16.2273 5.20184 16.2875 5.27143C16.3476 5.34102 16.3777 5.43162 16.3711 5.52336ZM18.143 11.8851C18.0091 12.0857 17.8274 12.2499 17.6143 12.3629C17.4012 12.4759 17.1633 12.5341 16.9221 12.5322H13.128C12.9132 12.5323 12.7009 12.4853 12.5061 12.3945C12.3114 12.3037 12.1389 12.1713 12.0009 12.0066C11.8627 12.1712 11.6901 12.3036 11.4953 12.3944C11.3005 12.4852 11.0882 12.5323 10.8732 12.5322H7.08065C6.83899 12.5359 6.60033 12.4785 6.38675 12.3653C6.17318 12.2522 5.99159 12.087 5.85881 11.8851L5.66488 11.5992C5.62978 12.0146 5.55219 12.4254 5.43332 12.825C5.46754 13.4657 5.51713 14.2229 5.56968 15.0238C5.78896 18.3589 6.05718 22.4516 5.69765 24.5H18.3023C17.9429 22.451 18.2116 18.3584 18.4303 15.0226C18.4829 14.2222 18.5324 13.4655 18.5672 12.8248C18.448 12.4262 18.37 12.0165 18.3346 11.602L18.143 11.8851ZM11.8065 23.5598H11.7911C11.6991 23.5598 11.6108 23.5232 11.5457 23.4581C11.4806 23.393 11.444 23.3047 11.444 23.2127C11.444 23.1206 11.4806 23.0323 11.5457 22.9672C11.6108 22.9021 11.6991 22.8656 11.7911 22.8656H11.8065C11.8986 22.8656 11.9868 22.9021 12.0519 22.9672C12.117 23.0323 12.1536 23.1206 12.1536 23.2127C12.1536 23.3047 12.117 23.393 12.0519 23.4581C11.9868 23.5232 11.8986 23.5598 11.8065 23.5598ZM14.9832 21.2167L14.6345 21.7329C14.5584 21.847 14.4551 21.9404 14.3339 22.0047C14.2127 22.0689 14.0775 22.102 13.9403 22.1009H12.289C12.1125 22.1008 11.9406 22.0447 11.7981 21.9407C11.6557 22.0448 11.4839 22.1009 11.3076 22.1009H9.65582C9.51874 22.1019 9.38355 22.0688 9.26244 22.0046C9.14133 21.9403 9.03811 21.847 8.96207 21.7329L8.61196 21.2157C8.5864 21.178 8.56853 21.1355 8.55937 21.0908C8.55022 21.0461 8.54995 21.0001 8.5586 20.9553C8.56724 20.9105 8.58462 20.8678 8.60974 20.8298C8.63487 20.7917 8.66725 20.7589 8.70503 20.7334C8.74282 20.7078 8.78526 20.69 8.82995 20.6808C8.87464 20.6716 8.9207 20.6714 8.96549 20.68C9.01028 20.6887 9.05293 20.706 9.09101 20.7312C9.12908 20.7563 9.16184 20.7887 9.1874 20.8265L9.53746 21.3437C9.54976 21.3638 9.56724 21.3802 9.58806 21.3912C9.60889 21.4022 9.63229 21.4074 9.65582 21.4062H11.3076C11.3456 21.4062 11.382 21.3911 11.4089 21.3643C11.4358 21.3374 11.4509 21.301 11.4509 21.263V20.3663C11.4504 20.3203 11.459 20.2747 11.4762 20.2321C11.4934 20.1895 11.5189 20.1507 11.5512 20.118C11.5836 20.0853 11.622 20.0594 11.6644 20.0417C11.7069 20.024 11.7524 20.0149 11.7983 20.0149C11.8443 20.0149 11.8898 20.024 11.9322 20.0417C11.9746 20.0594 12.0131 20.0853 12.0454 20.118C12.0777 20.1507 12.1032 20.1895 12.1204 20.2321C12.1376 20.2747 12.1462 20.3203 12.1457 20.3663V21.2629C12.1456 21.2817 12.1493 21.3004 12.1565 21.3178C12.1637 21.3352 12.1742 21.351 12.1875 21.3643C12.2009 21.3776 12.2167 21.3882 12.2341 21.3954C12.2515 21.4026 12.2701 21.4063 12.289 21.4062H13.9405C13.9641 21.4075 13.9877 21.4024 14.0086 21.3914C14.0296 21.3804 14.0472 21.3639 14.0595 21.3438L14.4076 20.8281C14.4597 20.753 14.5393 20.7013 14.6291 20.6844C14.719 20.6675 14.8119 20.6868 14.8877 20.7379C14.9635 20.7891 15.016 20.8681 15.0339 20.9578C15.0518 21.0474 15.0337 21.1406 14.9834 21.2169L14.9832 21.2167ZM15.7166 17.9572L15.2797 18.6041C15.1924 18.7351 15.0739 18.8423 14.9349 18.916C14.7959 18.9898 14.6407 19.0278 14.4833 19.0266H12.4139C12.1891 19.0268 11.9712 18.948 11.7985 18.804C11.6262 18.948 11.4087 19.0268 11.1841 19.0266H9.11479C8.95747 19.0279 8.80232 18.99 8.66329 18.9163C8.52427 18.8427 8.40574 18.7356 8.31838 18.6048L7.88006 17.9558C7.85453 17.918 7.83668 17.8757 7.82754 17.831C7.81839 17.7864 7.81813 17.7404 7.82676 17.6957C7.83539 17.6509 7.85275 17.6083 7.87784 17.5703C7.90294 17.5323 7.93527 17.4996 7.97301 17.474C8.01074 17.4485 8.05314 17.4307 8.09777 17.4215C8.1424 17.4124 8.18839 17.4121 8.23313 17.4208C8.27786 17.4294 8.32046 17.4467 8.35848 17.4718C8.39651 17.4969 8.42922 17.5293 8.45474 17.567L8.89363 18.2151C8.91704 18.2523 8.94977 18.2826 8.98858 18.3032C9.02738 18.3238 9.0709 18.3338 9.11479 18.3323H11.1843C11.2551 18.3322 11.3229 18.304 11.373 18.2539C11.423 18.2038 11.4511 18.1359 11.4511 18.0651V16.9407C11.4506 16.8947 11.4591 16.8491 11.4764 16.8065C11.4936 16.7639 11.5191 16.7251 11.5514 16.6925C11.5837 16.6598 11.6222 16.6338 11.6646 16.6161C11.707 16.5984 11.7525 16.5893 11.7985 16.5893C11.8444 16.5893 11.8899 16.5984 11.9323 16.6161C11.9747 16.6338 12.0132 16.6598 12.0455 16.6925C12.0778 16.7251 12.1033 16.7639 12.1205 16.8065C12.1378 16.8491 12.1464 16.8947 12.1458 16.9407V18.0649C12.1469 18.1356 12.1756 18.203 12.2257 18.2529C12.2758 18.3028 12.3434 18.3312 12.4141 18.332H14.4834C14.5274 18.3335 14.5709 18.3234 14.6097 18.3028C14.6485 18.2822 14.6812 18.2518 14.7046 18.2145L15.1415 17.5684C15.1932 17.4924 15.2729 17.4401 15.3631 17.4228C15.4533 17.4056 15.5467 17.4247 15.6228 17.4762C15.6989 17.5276 15.7515 17.6071 15.7691 17.6973C15.7867 17.7874 15.7679 17.8809 15.7167 17.9571L15.7166 17.9572ZM16.21 14.7017L15.7141 15.4356C15.6187 15.5778 15.4896 15.6941 15.3384 15.7743C15.1872 15.8544 15.0184 15.8959 14.8473 15.895H12.4968C12.2385 15.895 11.9894 15.7988 11.7981 15.6253C11.6069 15.7987 11.358 15.8949 11.0999 15.895H8.74935C8.57848 15.8962 8.40998 15.855 8.25901 15.7749C8.10805 15.6948 7.97935 15.5785 7.88451 15.4363L7.38613 14.699C7.36061 14.6612 7.34277 14.6187 7.33366 14.574C7.32454 14.5293 7.32431 14.4833 7.33299 14.4385C7.34167 14.3937 7.35909 14.3511 7.38424 14.313C7.4094 14.275 7.4418 14.2422 7.4796 14.2167C7.51741 14.1912 7.55986 14.1733 7.60456 14.1642C7.64925 14.1551 7.6953 14.1549 7.74009 14.1636C7.78487 14.1722 7.8275 14.1897 7.86555 14.2148C7.9036 14.24 7.93632 14.2724 7.96185 14.3102L8.45924 15.047C8.49024 15.0955 8.53326 15.135 8.5841 15.1619C8.63495 15.1888 8.69188 15.202 8.74935 15.2003H11.0999C11.193 15.2002 11.2822 15.1631 11.348 15.0973C11.4138 15.0315 11.4509 14.9423 11.451 14.8492V13.5728C11.4521 13.4814 11.4891 13.394 11.5541 13.3298C11.6192 13.2655 11.7069 13.2294 11.7984 13.2294C11.8898 13.2294 11.9775 13.2655 12.0426 13.3298C12.1076 13.394 12.1447 13.4814 12.1457 13.5728V14.8492C12.1459 14.9423 12.1829 15.0315 12.2487 15.0973C12.3145 15.1631 12.4037 15.2002 12.4968 15.2003H14.8473C14.9053 15.2017 14.9627 15.1882 15.0139 15.161C15.0652 15.1338 15.1086 15.0939 15.1399 15.0451L15.6348 14.3132C15.6867 14.2378 15.7663 14.1861 15.8562 14.1691C15.9461 14.1522 16.0391 14.1714 16.1149 14.2226C16.1908 14.2738 16.2433 14.3529 16.2611 14.4427C16.2789 14.5325 16.2605 14.6256 16.21 14.7019L16.21 14.7017Z" fill="#FF5F2D"/>
</g>
<defs>
<clipPath id="clip0_623_3814">
<rect width="24" height="24" fill="white" transform="translate(0 0.5)"/>
</clipPath>
</defs>
</svg>
