<svg width="25" height="25" viewBox="0 0 25 25" fill="none" xmlns="http://www.w3.org/2000/svg">
<path d="M4.76565 8.78906C4.49221 9.10156 4.06253 9.41406 3.59378 9.33594C3.55471 8.90625 3.75003 8.39844 4.02346 8.08594C4.2969 7.77344 4.80471 7.46094 5.19534 7.46094C5.2344 8.04688 5.03909 8.47656 4.76565 8.78906ZM5.19534 9.53125C4.53128 9.49219 3.9844 9.92188 3.71096 9.92188C3.39846 9.92188 2.89065 9.53125 2.38284 9.53125C1.71878 9.53125 1.13284 9.92188 0.742214 10.5078C2.67029e-05 11.7188 0.546902 13.5547 1.21096 14.5313C1.56253 15.0391 1.95315 15.5859 2.50003 15.5859C3.00784 15.5859 3.16409 15.2734 3.75003 15.2734C4.33596 15.2734 4.53128 15.5859 5.07815 15.5469C5.62503 15.5469 5.97659 15.0391 6.28909 14.5703C6.67971 14.0234 6.83596 13.4766 6.83596 13.3984C6.83596 13.3984 5.78128 12.9688 5.78128 11.7578C5.78128 10.7031 6.60159 10.2734 6.67971 10.2734C6.1719 9.57031 5.46878 9.53125 5.19534 9.53125ZM8.9844 8.08594V15.4688H10.1563V12.9297H11.7578C13.2032 12.9297 14.2578 11.9531 14.2578 10.5078C14.2578 9.0625 13.2813 8.08594 11.836 8.08594H8.9844ZM10.1563 9.0625H11.4844C12.461 9.0625 13.0469 9.60938 13.0469 10.5469C13.0469 11.4844 12.5 12.0312 11.4844 12.0312H10.1563V9.0625ZM16.2891 15.5859C16.9922 15.5859 17.6563 15.1953 18.0078 14.6484H18.0469V15.5469H19.1016V11.8359C19.1016 10.7812 18.2813 10.0781 16.9532 10.0781C15.7422 10.0781 14.8438 10.7422 14.8047 11.7188H15.7813C15.8203 11.2891 16.2891 10.9375 16.875 10.9375C17.5391 10.9375 17.9688 11.25 17.9688 11.8359V12.2656L16.5235 12.3047C15.1953 12.3438 14.4922 12.9297 14.4922 13.8672C14.4532 14.9219 15.2344 15.5859 16.2891 15.5859ZM16.6016 14.6875C15.9766 14.6875 15.625 14.4141 15.625 13.9062C15.625 13.4766 16.0157 13.2031 16.7188 13.125L17.9688 13.0859V13.5156C18.0078 14.2187 17.3828 14.6875 16.6016 14.6875ZM20.4688 17.5C21.5625 17.5 22.1094 17.0703 22.5782 15.7813L24.6094 10.1953H23.4375L22.0703 14.5703H22.0313L20.6641 10.1953H19.4532L21.3672 15.5859L21.25 15.8594C21.0938 16.4062 20.8203 16.6406 20.3125 16.6406H20V17.5391C20.1563 17.5 20.4297 17.5 20.4688 17.5Z" fill="black"/>
</svg>
