<svg width="18" height="18" viewBox="0 0 18 18" fill="none" xmlns="http://www.w3.org/2000/svg">
<path d="M14.97 6.7198C14.4675 6.1648 13.71 5.8423 12.66 5.7298V5.1598C12.66 4.1323 12.225 3.1423 11.46 2.4523C10.6875 1.7473 9.68249 1.4173 8.63999 1.5148C6.84749 1.6873 5.33999 3.4198 5.33999 5.2948V5.7298C4.28999 5.8423 3.53249 6.1648 3.02999 6.7198C2.30249 7.5298 2.32499 8.6098 2.40749 9.3598L2.93249 13.5373C3.08999 14.9998 3.68249 16.4998 6.90749 16.4998H11.0925C14.3175 16.4998 14.91 14.9998 15.0675 13.5448L15.5925 9.3523C15.675 8.6098 15.69 7.5298 14.97 6.7198ZM8.74499 2.5573C9.49499 2.4898 10.2075 2.7223 10.7625 3.2248C11.31 3.7198 11.6175 4.4248 11.6175 5.1598V5.6848H6.38249V5.2948C6.38249 3.9598 7.48499 2.6773 8.74499 2.5573ZM6.31499 9.8623H6.30749C5.89499 9.8623 5.55749 9.5248 5.55749 9.1123C5.55749 8.6998 5.89499 8.3623 6.30749 8.3623C6.72749 8.3623 7.06499 8.6998 7.06499 9.1123C7.06499 9.5248 6.72749 9.8623 6.31499 9.8623ZM11.565 9.8623H11.5575C11.145 9.8623 10.8075 9.5248 10.8075 9.1123C10.8075 8.6998 11.145 8.3623 11.5575 8.3623C11.9775 8.3623 12.315 8.6998 12.315 9.1123C12.315 9.5248 11.9775 9.8623 11.565 9.8623Z" fill="#FF5F2D"/>
</svg>
