<svg width="24" height="25" viewBox="0 0 24 25" fill="none" xmlns="http://www.w3.org/2000/svg">
<g clip-path="url(#clip0_879_2354)">
<path d="M8.49601 5.41998L7.08801 6.27598C7.08801 6.27598 7.94401 7.77998 8.05601 8.85998C8.05601 8.85998 8.42401 10.612 8.70401 12.052C9.31201 12.396 9.64801 12.852 11.448 12.516C13.248 12.18 13.816 11.236 13.816 11.236L12.616 7.32398C12.616 7.32398 11.928 5.82798 11.928 5.03598L10.304 4.87598L8.49601 5.41998Z" fill="#D54F48"/>
<path d="M8.73601 5.4441C8.73601 5.4441 8.51201 5.8841 8.92801 6.5161C9.35201 7.1481 10.16 7.5561 10.16 7.5561C10.16 7.5561 10.968 6.5321 10.968 5.8361C10.968 5.1401 10.632 4.7561 10.632 4.7561L8.73601 5.4441Z" fill="#F0F1F8"/>
<path d="M10.344 16.132C10.344 16.132 10.024 16.252 9.368 15.98C8.712 15.708 7.888 15.46 7.888 15.46L9.12 15.052C9.112 15.052 10.36 15.572 10.344 16.132Z" fill="#A6312E"/>
<path d="M6.84802 14.6279C6.84802 14.6279 5.94402 15.3639 5.98402 15.8599C6.02402 16.3559 6.84802 20.7479 6.84802 20.7479C6.84802 20.7479 7.77602 20.9879 8.30402 20.4999C8.30402 20.4999 8.40802 17.2999 8.08002 16.4839L10.232 15.2279C10.232 15.2199 8.52802 13.8999 6.84802 14.6279Z" fill="#C39668"/>
<path d="M7.04801 14.54C7.04801 14.54 8.05601 15.78 8.71201 16.052L8.08001 16.468C8.08001 16.468 8.24801 17.244 8.26401 17.86C8.26401 17.86 7.52001 18.228 6.36001 18.084L5.97601 15.98C5.98401 15.996 5.82401 15.212 7.04801 14.54Z" fill="#5A5855"/>
<path d="M13.616 16.468C13.616 16.468 15.296 15.892 16 15.028C16 15.028 15.52 14.58 14.368 15.028C13.216 15.476 13.616 16.468 13.616 16.468Z" fill="#A6312E"/>
<path d="M13.616 15.692C13.616 15.692 13.984 16.556 14.44 17.044C14.888 17.54 16.736 21.028 16.736 21.028C16.736 21.028 17.752 21.068 17.792 20.532C17.752 20.076 17.032 16.956 15.992 15.972C15.696 15.356 15.376 14.332 14.968 13.78L13.616 15.692Z" fill="#C39668"/>
<path d="M8.92002 12.084C8.92002 12.084 6.92002 14.34 6.63202 14.708C6.63202 14.708 9.31202 15.22 10.336 16.132L11.48 14.108C11.48 14.108 12.504 14.5 12.832 15.156C13.16 15.812 13.608 16.468 13.608 16.468C13.608 16.468 13.976 15.356 15.992 15.028C15.992 15.028 14.84 12.532 14.392 12.076C13.944 11.62 13.328 11.084 13.328 11.084L8.92002 12.084Z" fill="#E3524A"/>
<path d="M6.84802 20.7399L7.05602 21.8039C7.05602 21.8039 7.94402 22.2519 8.47202 21.7639L8.30402 20.4919C8.30402 20.4919 7.54402 20.9479 6.84802 20.7399Z" fill="#F0F1F8"/>
<path d="M6.99201 21.5161C6.99201 21.5161 6.84001 22.3801 6.31201 22.6281C5.77601 22.8761 4.87201 23.3241 4.87201 23.6921C4.87201 24.0601 5.99201 24.2281 6.99201 23.9801C6.99201 23.9801 8.08001 23.4841 8.47201 23.2201C8.57601 23.1481 8.62401 23.0281 8.60801 22.9001C8.58401 22.7001 8.53601 22.3161 8.46401 21.7641C8.46401 21.7641 7.82401 22.1321 7.57601 22.0121C7.33601 21.8921 7.26401 21.5481 6.99201 21.5161Z" fill="#83726B"/>
<path d="M16.576 20.7319C16.576 20.7319 17.536 20.6439 17.752 20.0759L18.272 21.1239C18.272 21.1239 18.112 21.8919 17.368 21.8519L17.12 21.8359L16.576 20.7319Z" fill="#F0F1F8"/>
<path d="M17.12 21.836C17.12 21.836 17.328 21.42 18.024 21.596L18.272 21.124C18.272 21.124 18.904 21.86 19.096 22.492C19.168 22.716 19.088 22.956 18.912 23.108C18.792 23.204 18.648 23.324 18.504 23.42C18.2 23.636 17.232 24.236 16.384 23.852C16.384 23.852 15.784 23.612 16.432 23.076C17.08 22.532 17.248 22.1 17.12 21.836Z" fill="#83726B"/>
<path d="M8.92798 5.44402V5.65202C8.92798 6.00402 9.06398 6.34802 9.31198 6.59602C9.51198 6.79602 9.76798 7.00402 10.056 7.09202C10.056 7.09202 10.288 6.84402 10.488 6.50002C10.728 6.08402 10.736 5.57202 10.528 5.14002L10.248 4.57202L8.92798 5.44402Z" fill="#C39668"/>
<path d="M11.024 3.79596C10.872 4.93996 9.816 5.73996 8.672 5.57996C7.528 5.41996 6.944 4.47596 6.816 3.20396C6.8 3.08396 7.128 2.69996 7.168 2.58796C7.472 1.63596 8.216 1.30796 9.24 1.44396C10.384 1.60396 11.184 2.65196 11.024 3.79596Z" fill="#C39668"/>
<path d="M9.75195 5.44385C9.72795 5.45185 9.72795 5.45185 9.75195 5.44385V5.44385Z" fill="#343332"/>
<path d="M10.496 4.69192C10.592 4.73992 10.712 4.71592 10.776 4.62792C10.88 4.49192 10.968 4.34792 11.04 4.19592C11.208 3.83592 11.32 3.39592 11.248 2.92392C10.928 0.53992 8.73597 0.92392 8.73597 0.92392C8.65597 0.93192 8.35197 0.98792 8.35197 0.98792C7.35997 1.23592 6.98397 1.86792 6.98397 1.86792C6.75997 2.21192 6.70397 2.59592 6.91997 2.95592L8.96797 2.81992C8.96797 2.81992 9.35997 2.97192 9.73597 3.47592L9.95997 3.81192C9.95997 3.81192 10.256 3.15592 10.624 3.48392C10.792 3.62792 10.84 3.85992 10.784 4.07592C10.728 4.29992 10.584 4.55592 10.24 4.57992L10.496 4.69192Z" fill="#343332"/>
<path d="M11.232 2.83612C11.232 2.83612 9.91998 1.90012 6.80798 2.30012C6.80798 2.30012 6.65598 2.78012 6.81598 3.20412C6.81598 3.20412 8.13598 2.77212 10.056 3.30012C10.408 3.39612 10.744 3.56412 11.048 3.78012L11.12 3.82812C11.16 3.86012 11.224 3.83612 11.232 3.78812C11.28 3.57212 11.36 3.09212 11.232 2.83612Z" fill="#F0F1F8"/>
<path d="M10.744 3.62796C10.744 3.62796 10.552 3.25996 10.256 3.45196L10.744 3.62796Z" fill="#C39668"/>
<path d="M11.768 15.452C12.9653 15.452 13.936 14.4813 13.936 13.284C13.936 12.0866 12.9653 11.116 11.768 11.116C10.5706 11.116 9.59998 12.0866 9.59998 13.284C9.59998 14.4813 10.5706 15.452 11.768 15.452Z" fill="#DE9245"/>
<path d="M6.64001 14.7081C6.64001 14.7081 9.46401 15.3241 10.344 16.1321L10.536 15.7881C10.536 15.7881 8.63201 14.5641 6.88801 14.4121C6.88801 14.4121 6.71201 14.5081 6.64001 14.7081Z" fill="#F0F1F8"/>
<path d="M13.4 16.132L13.624 16.468C13.624 16.468 14.048 15.444 16.008 15.028L15.856 14.708C15.848 14.708 14.344 14.916 13.4 16.132Z" fill="#F0F1F8"/>
<path d="M13.888 13.7239C13.88 13.7239 13.864 13.7239 13.848 13.7239C13.824 13.7319 11.08 14.4279 10.72 13.2679C10.36 12.0999 12.176 11.2439 12.192 11.2359C12.216 11.2279 12.232 11.2039 12.232 11.1799C12.16 11.1639 12.072 11.1479 12.024 11.1479C11.624 11.3559 10.224 12.1799 10.568 13.3159C10.76 13.9319 11.48 14.0999 12.208 14.0999C12.936 14.0999 13.656 13.9319 13.84 13.8919L13.888 13.7239Z" fill="#8F4914"/>
<path d="M13.672 12.196C10.784 12.428 9.98403 13.932 9.84003 14.276L9.92803 14.428C9.94403 14.42 9.95203 14.404 9.96003 14.388C9.96803 14.372 10.592 12.596 13.68 12.348C13.72 12.348 13.752 12.308 13.752 12.268C13.752 12.228 13.72 12.196 13.672 12.196Z" fill="#8F4914"/>
<path d="M12.672 15.244C12.656 15.22 12.632 15.196 12.6 15.204C10.312 15.324 9.70401 12.716 9.69601 12.684C9.68801 12.644 9.64801 12.62 9.60801 12.628C9.56801 12.636 9.54401 12.676 9.55201 12.716C9.56001 12.74 10.152 15.292 12.376 15.356L12.672 15.244Z" fill="#8F4914"/>
<path d="M13.984 13.668C14.144 13.604 14.08 11.724 14.08 11.724C14.8 10.5 15.432 9.52396 15.552 8.86796C15.672 8.21196 14.352 6.57996 13.824 5.66796C13.296 4.75596 11.768 5.02796 11.768 5.02796C11.848 6.40396 12.76 7.75596 12.76 7.75596L12.896 7.31596L14.08 8.74796C13.72 9.17196 13.4 11.316 13.4 11.316C13.4 11.316 12.88 11.532 12.624 11.636C12.368 11.74 12.608 11.972 13.248 11.884C13.248 11.884 13.576 12.156 13.736 12.852C13.896 13.548 13.84 13.724 13.984 13.668Z" fill="#C39668"/>
<path d="M13.816 8.44411C13.816 8.44411 14.816 7.88411 15.016 7.51611C15.016 7.51611 16.112 8.53211 15.312 9.55611C14.512 10.5801 14.568 9.34011 13.816 9.31611C13.72 9.19611 14.072 8.75611 14.072 8.75611L13.816 8.44411Z" fill="#5A5855"/>
<path d="M7.08801 6.27588C7.08801 6.27588 6.20801 6.61988 6.27201 7.51588C6.32801 8.41188 6.29601 10.2039 6.74401 11.0199C7.19201 11.8359 9.10401 12.9479 9.10401 12.9479C9.10401 12.9479 9.25601 13.8439 9.64801 14.0199C10.04 14.1879 9.75201 12.8839 10.176 12.0839C10.176 12.0839 10.152 11.6279 9.67201 11.8359L9.36001 12.0039C9.36001 12.0039 8.80001 11.0839 8.08001 10.1559V8.57988C8.08001 8.57988 7.68001 6.87588 7.08801 6.27588Z" fill="#C39668"/>
</g>
<defs>
<clipPath id="clip0_879_2354">
<rect width="24" height="24" fill="white" transform="translate(0 0.5)"/>
</clipPath>
</defs>
</svg>
