<svg width="100" height="100" viewBox="0 0 100 100" fill="none" xmlns="http://www.w3.org/2000/svg">
<path d="M31.0972 68.6516L28.5119 68.5146V70.1886C28.5119 70.2548 28.5558 70.3213 28.6434 70.3718L42.408 78.3189C42.5834 78.4202 42.8676 78.4202 43.043 78.3189L45.4968 76.9023C45.5844 76.8516 45.6283 76.7851 45.6283 76.7189C45.6283 76.6525 45.6283 75.0431 45.6283 75.0431L31.7322 68.6519C31.5568 68.5504 31.2726 68.5504 31.0972 68.6516Z" fill="#262626"/>
<path d="M45.4965 74.8598L31.732 66.9129C31.5565 66.8116 31.2724 66.8116 31.0969 66.9129L28.6432 68.3295C28.468 68.4307 28.468 68.5948 28.6432 68.6961L42.4077 76.643C42.5832 76.7442 42.8673 76.7442 43.0428 76.643L45.4965 75.2263C45.672 75.1251 45.672 74.961 45.4965 74.8598Z" fill="#3B3B3B"/>
<path d="M49.0597 42.1775C48.8999 42.03 48.6497 42.0193 48.3673 42.1823C47.8849 42.4608 47.4938 43.1384 47.4938 43.6956C47.4938 43.9566 47.5805 44.1438 47.7213 44.2415L47.7209 44.2421L47.7284 44.2465C47.7427 44.256 47.7575 44.2644 47.773 44.2722L72.1018 58.4499L72.1002 55.6057L49.0597 42.1775Z" fill="#777777"/>
<path d="M71.4986 68.3136C71.4986 68.4891 71.6149 68.664 71.8467 68.7985C72.3105 69.0661 73.0625 69.0661 73.5266 68.7985C73.758 68.6643 73.8745 68.4891 73.8745 68.3136V38.0293L71.4986 38.0429V68.3136Z" fill="#303030"/>
<path d="M43.2257 12.8638C40.5899 14.3855 38.4534 18.0864 38.4534 21.1299C38.4534 22.616 38.9626 23.6706 39.7911 24.1837C39.8254 24.2048 42.2498 25.609 42.2498 25.609C42.2498 25.609 41.9303 24.6333 43.2259 23.8854C45.8617 22.3636 49.247 14.0774 49.247 14.0774C49.247 14.0774 46.7015 12.5894 46.6265 12.5448C45.7607 12.0294 44.5568 12.0952 43.2257 12.8638Z" fill="#5C5C5C"/>
<path d="M45.6811 12.9339C42.395 14.8311 39.731 19.4451 39.731 23.2394C39.731 25.092 40.3661 26.407 41.3986 27.0466C41.4414 27.073 43.2819 28.1362 43.2819 28.1362C43.2819 28.1362 44.0658 27.607 45.6811 26.6745C48.9671 24.7774 51.9096 13.7073 51.9096 13.7073C51.9096 13.7073 50.014 12.5919 49.9203 12.5359C48.8411 11.8936 47.3403 11.9755 45.6811 12.9339Z" fill="#868686"/>
<path d="M47.4397 13.9521C44.1536 15.8493 41.4896 20.4633 41.4896 24.2577C41.4896 28.0521 44.1534 29.59 47.4397 27.6928C50.7255 25.7956 53.3895 21.1816 53.3895 17.3872C53.3895 13.5931 50.7255 12.0552 47.4397 13.9521Z" fill="#545454"/>
<path d="M47.6001 19.5068C47.4404 19.3591 47.1901 19.3484 46.9077 19.5113C46.4253 19.7898 46.0342 20.4674 46.0342 21.0247C46.0342 21.2857 46.1209 21.4729 46.2617 21.5705L46.2613 21.5712L46.2688 21.5755C46.2831 21.5851 46.2981 21.5935 46.3134 21.6013L73.05 37.1645L74.3257 35.0541L47.6003 19.5066L47.6001 19.5068Z" fill="url(#paint0_linear_1070_4694)"/>
<path d="M48.3072 21.5172C48.3072 20.2132 46.8708 19.3688 46.8708 20.4239V53.9649C46.8708 54.1404 46.9871 54.3153 47.2189 54.4498C47.6829 54.7174 48.4346 54.7174 48.899 54.4498C49.1304 54.3156 49.2469 54.1406 49.2469 53.9649V23.2906C49.2469 23.2906 48.3072 22.8146 48.3072 21.5172Z" fill="#303030"/>
<path d="M76.6445 30.8489C73.3184 32.7693 70.6219 37.4395 70.6219 41.2805C70.6219 43.1558 71.2647 44.4867 72.31 45.134C72.3532 45.1609 73.9052 46.0592 73.9052 46.0592C73.9052 46.0592 75.0097 45.7013 76.6445 44.7577C79.9707 42.8373 82.5796 31.4098 82.5796 31.4098C82.5796 31.4098 80.9579 30.4548 80.8225 30.3822C79.7397 29.8027 78.2671 29.9124 76.6445 30.8489Z" fill="#868686"/>
<path d="M78.1228 31.7063C74.7967 33.6267 72.1002 38.2971 72.1002 42.1379C72.1002 45.9787 74.7967 47.5353 78.1228 45.6151C81.4489 43.6947 84.1454 39.0243 84.1454 35.1835C84.1454 31.3427 81.4489 29.7859 78.1228 31.7063Z" fill="#545454"/>
<path d="M79.0533 33.7061C76.4275 35.2219 74.2989 38.9089 74.2989 41.9408C74.2989 43.4212 74.8063 44.4717 75.6313 44.983C75.6655 45.0042 76.8348 45.6824 76.8348 45.6824C76.8348 45.6824 77.7624 45.431 79.0533 44.6858C81.679 43.1698 83.7439 34.1509 83.7439 34.1509C83.7439 34.1509 82.4586 33.3951 82.3514 33.3377C81.4965 32.8801 80.3341 32.9664 79.0533 33.7061Z" fill="#868686"/>
<path d="M80.296 34.4297C77.6703 35.9457 75.5417 39.6325 75.5417 42.6646C75.5417 45.6966 77.6703 46.9255 80.296 45.4094C82.9218 43.8933 85.0504 40.2066 85.0504 37.1747C85.0504 34.1425 82.9218 32.9136 80.296 34.4297Z" fill="#545454"/>
<path d="M80.8769 38.7393C80.7036 38.5789 80.4319 38.5673 80.1252 38.7443C79.6011 39.0469 79.1763 39.7828 79.1763 40.3878C79.1763 40.6713 79.2705 40.8745 79.4234 40.9807L79.423 40.9814L79.4312 40.9862C79.4466 40.9964 79.4628 41.0058 79.4796 41.0142L80.9497 41.8565L82.3352 39.5643L80.8772 38.7393H80.8769Z" fill="url(#paint1_linear_1070_4694)"/>
<path d="M35.0083 71.654C35.0083 71.9582 35.2101 72.2622 35.6124 72.4954C36.4174 72.9598 37.7223 72.9598 38.528 72.4954C38.9297 72.2622 39.1317 71.9584 39.1317 71.654V58.0303C37.7526 58.2016 36.3783 58.4123 35.0085 58.6549C35.0083 64.9417 35.0083 71.654 35.0083 71.654Z" fill="#595959"/>
<path d="M71.4811 67.3202L61.1826 73.266C60.6076 73.5984 59.3498 73.5977 58.775 73.266L40.8174 62.8978L51.1651 56.9232C51.1819 56.9137 51.2042 56.9071 51.2222 56.898C50.3446 56.4331 49.4738 55.928 48.6369 55.3691L39.6113 60.5804C38.6274 61.1486 38.0631 62.028 38.0631 62.9941C38.0631 63.9602 38.6274 64.8399 39.6113 65.4078L57.1461 75.532C57.8824 75.957 58.8296 76.1916 59.8121 76.1916C60.7946 76.1916 61.7416 75.9573 62.4779 75.532L72.7366 69.609C73.1646 69.3619 73.5077 69.0531 73.7651 68.7066C73.5302 68.556 73.2947 68.4063 73.0636 68.2504C72.5348 67.8936 72.0824 67.4859 71.4811 67.3202Z" fill="#303030"/>
<path d="M81.6693 39.627C81.1446 39.9301 80.7186 40.6671 80.7186 41.2732C80.7186 41.8794 81.1443 42.1251 81.6693 41.8218C82.1942 41.5188 82.6199 40.7818 82.6199 40.1756C82.6197 39.5695 82.1942 39.3237 81.6693 39.627Z" fill="#8B8B8B"/>
<path d="M58.3764 43.7954C56.2986 42.5956 52.9292 42.5956 50.8514 43.7954L28.1292 55.465V58.1861C28.129 58.9724 28.6487 59.7588 29.6876 60.3588L38.7811 65.7801C40.8592 66.9799 44.2283 66.9799 46.3064 65.7801L67.4699 53.5612C68.5553 52.9346 69.0738 52.1045 69.0253 51.2836C68.981 50.5327 69.0285 48.6674 69.0285 48.6674L58.3764 43.7954Z" fill="#2B4D66"/>
<path d="M67.4697 46.4952L58.3762 41.0737C56.2983 39.8739 52.929 39.8739 50.8511 41.0737L29.6873 53.2926C27.6093 54.4924 27.6093 56.4376 29.6873 57.6374L38.7808 63.0589C40.8589 64.2587 44.228 64.2587 46.3061 63.0589L67.4697 50.84C69.5477 49.6402 69.5477 47.695 67.4697 46.4952Z" fill="#5A7588"/>
<path d="M55.0658 26.6957L50.7926 24.209C50.6452 24.9244 50.8627 26.2504 50.7801 27.2095C50.7292 27.802 50.6987 28.4851 50.6443 29.2134C50.3485 33.1839 49.8934 35.2543 49.7951 36.9405C49.6968 38.627 49.6413 43.5029 50.2347 45.0415C50.9328 46.8515 52.2839 46.7182 53.1738 46.2934C54.82 45.5072 54.4339 37.6099 54.3806 36.2274C54.3358 35.0615 54.1929 32.13 54.3465 28.5044C54.3604 28.1788 55.0589 27.017 55.0658 26.6957Z" fill="#E8C6AB"/>
<path d="M57.0558 43.2563C57.9023 43.8431 60.8475 43.8658 62.8842 43.4581C61.2434 41.9682 58.8791 40.8772 56.6554 40.3682C56.0378 41.6947 56.2094 42.6692 57.0558 43.2563Z" fill="#EBC3A0"/>
<path d="M62.2798 42.9506C61.2782 43.5149 58.4827 43.6742 57.5027 42.8949C56.5227 42.1156 57.0319 41.7065 57.985 40.7356C55.5158 39.2393 53.7197 39.9433 52.6145 40.1879C45.2201 42.5788 46.1418 46.2522 35.5396 49.2934C45.8039 48.2797 48.2117 59.1778 48.9298 58.5441C56.7443 53.0951 61.8247 52.0894 62.5544 51.3927C63.8891 49.8932 66.2703 45.5862 62.2798 42.9506Z" fill="#E7290B"/>
<path d="M22.6528 86.2607C22.3996 87.6602 23.674 88.3642 25.5389 88.1556C27.4035 87.9472 27.7963 86.8422 28.4798 86.2283C29.1631 85.6145 29.8261 85.2834 30.4516 84.8584C30.8491 84.5419 31.1436 84.0854 31.0869 83.7965C30.5952 82.9355 23.008 84.2984 22.6528 86.2607Z" fill="#161616"/>
<path d="M30.7729 81.8071C29.8241 81.1122 29.1051 82.0479 27.9237 81.9254C27.4973 81.9625 26.5467 82.8884 26.4156 83.0556C26.143 83.4037 25.6192 83.8383 25.1498 84.2063C24.7992 84.4811 24.7905 84.2022 24.4522 84.3564C23.4426 84.817 22.8369 85.2827 22.6672 86.1628C22.4974 87.043 22.7375 88.2607 25.2135 88.0136C27.6896 87.7665 27.8072 86.4609 28.6743 85.905C29.5415 85.3489 31.0086 84.407 31.1012 83.7275C31.1679 83.2388 31.2189 82.5061 31.094 82.0165C31.045 81.8251 30.9385 82.0165 30.7729 81.8071Z" fill="#FCB117"/>
<path d="M30.7729 81.8071C29.8241 81.1122 29.1051 82.0479 27.9237 81.9254L31.094 82.0165C31.094 82.0165 30.9386 82.0165 30.7729 81.8071Z" fill="#FCBB17"/>
<path d="M27.9432 81.9268C27.3205 81.8497 26.692 82.4335 26.1707 83.001C25.3985 83.9335 24.7955 84.1965 24.5432 84.3235C24.4967 84.457 24.4367 84.9062 24.5327 85.0634C25.1088 86.0043 26.4365 86.1314 27.6181 84.7558C28.7999 83.3799 28.7159 83.4147 28.8286 83.4661C28.3947 83.3291 29.1089 81.9587 27.9432 81.9268Z" fill="#444348"/>
<path d="M27.4834 81.9512C27.3598 81.991 27.0779 82.1703 26.9946 82.2395C26.4437 82.6961 26.9593 83.5674 28.4333 83.7512C29.8283 83.9253 31.1763 83.1389 31.1228 82.1589C31.0695 81.1791 28.4213 81.6486 27.4834 81.9512Z" fill="#444348"/>
<path d="M15.1835 81.9559C14.9303 83.3557 16.2047 84.0594 18.0696 83.8508C19.9342 83.6424 20.327 82.5377 21.0105 81.9238C21.6938 81.3099 22.3568 80.9786 22.9823 80.5538C23.3798 80.2371 23.6743 79.7808 23.6176 79.4919C23.1257 78.6307 15.5387 79.9936 15.1835 81.9559Z" fill="#161616"/>
<path d="M23.3034 77.5024C22.3546 76.8075 21.6356 77.7432 20.454 77.6208C20.0276 77.6578 19.0769 78.5837 18.9461 78.7509C18.6735 79.0991 18.1497 79.5336 17.6801 79.9016C17.3295 80.1764 17.3208 79.8975 16.9825 80.0517C15.9729 80.5123 15.3672 80.9781 15.1974 81.8582C15.0277 82.7383 15.2678 83.9558 17.7438 83.7089C20.2198 83.4618 20.3375 82.1562 21.2046 81.6004C22.0718 81.0443 23.5389 80.1023 23.6315 79.4228C23.6982 78.9341 23.7491 78.2014 23.6242 77.7118C23.5758 77.5206 23.4693 77.7118 23.3034 77.5024Z" fill="#FCB117"/>
<path d="M23.3034 77.5024C22.3546 76.8075 21.6356 77.7432 20.454 77.6208L23.6245 77.7118C23.6245 77.7118 23.4693 77.7118 23.3034 77.5024Z" fill="#FCBB17"/>
<path d="M20.4737 77.6221C19.8509 77.545 19.2225 78.1289 18.7012 78.6963C17.9289 79.6288 17.326 79.8918 17.0736 80.0188C17.0272 80.1523 16.9671 80.6015 17.0632 80.7587C17.6393 81.6996 18.9669 81.827 20.1485 80.4511C21.3304 79.0752 21.2464 79.1102 21.359 79.1614C20.9251 79.0244 21.6394 77.654 20.4737 77.6221Z" fill="#444348"/>
<path d="M20.0141 77.6465C19.8906 77.6863 19.6086 77.8658 19.5254 77.9348C18.9745 78.3914 19.4901 79.2627 20.9641 79.4465C22.3591 79.6206 23.707 78.8342 23.6535 77.8542C23.6003 76.8745 20.952 77.3439 20.0141 77.6465Z" fill="#444348"/>
<path d="M29.2375 52.7852C26.9942 52.9817 22.1864 55.8287 20.4476 56.8025C18.6955 58.4205 23.9985 63.2841 23.9985 63.2841C23.9985 63.2841 28.5585 61.5007 31.4121 59.9077C34.2656 58.3145 32.1045 52.9205 29.2375 52.7852Z" fill="#E8C6AB"/>
<path d="M24.3371 57.6421C22.5125 56.162 19.8596 55.701 19.2271 58.8636C18.119 64.4036 18.6305 74.8846 19.509 78.119C19.9108 79.3249 22.8934 79.9131 23.6554 77.243C23.7475 76.9197 25.0406 66.352 25.4208 63.0149C25.6163 61.2964 26.2743 59.2137 24.3371 57.6421Z" fill="#E8C6AB"/>
<path d="M36.6825 57.4544C33.8156 57.3188 29.7181 59.4499 28.2937 60.7655C26.5417 62.3835 31.4679 67.5902 31.4679 67.5902C31.4679 67.5902 36.0279 65.8068 38.8817 64.2138C41.7352 62.6208 39.5495 57.59 36.6825 57.4544Z" fill="#EFCDB0"/>
<path d="M35.5393 49.2948C35.5393 49.2948 29.0286 51.8991 26.8322 53.4402C27.0552 53.4318 32.4048 53.6016 31.752 58.6531C31.752 58.6531 34.2446 57.3195 36.5246 58.9223C39.1519 60.7692 38.8816 64.2143 38.8816 64.2143C38.8816 64.2143 47.2822 60.4037 48.9296 58.5452C50.5769 56.6867 41.4953 47.0981 35.5393 49.2948Z" fill="#FCB117"/>
<path d="M31.8064 61.9469C29.9818 60.4667 27.329 60.0057 26.6962 63.168C25.5881 68.7081 26.0996 79.1891 26.9781 82.4235C27.3799 83.6296 30.3625 84.2176 31.1245 81.5475C31.2169 81.2241 32.5097 70.6565 32.8899 67.3194C33.0858 65.6009 33.7439 63.5182 31.8064 61.9469Z" fill="#EFCDB0"/>
<path d="M59.7978 39.9195C59.0531 40.5937 57.7006 41.226 57.7006 41.226L60.3946 43.1089L62.1615 42.4415C62.1615 42.4415 60.5423 39.2456 59.7978 39.9195Z" fill="#EBC3A0"/>
<path d="M61.1403 35.7046C60.3822 36.6141 59.429 38.6369 59.2563 39.3598C58.4329 42.8092 63.957 43.1241 67.7165 40.4515C72.2638 37.2189 65.5167 30.4543 61.1403 35.7046Z" fill="#F3D7C0"/>
<path d="M61.2236 35.6072C61.2236 35.6072 61.9032 34.9533 62.5528 35.1945C63.2025 35.4357 62.5958 35.2491 63.3783 36.4032C64.1608 37.5572 65.0196 37.9493 65.6871 38.4055C66.3547 38.8619 65.0305 39.8171 64.9704 40.2062C65.7229 39.6756 66.5054 39.4601 66.5356 40.4733C66.552 41.0249 65.2978 41.4003 65.1112 41.6883C66.6719 41.5946 70.8376 41.3311 69.6656 36.5456C68.7764 33.6384 63.0807 31.1896 61.2236 35.6072Z" fill="#331707"/>
<path d="M65.3991 32.7115L61.2222 30.2803C61.1005 30.7281 61.4814 31.8109 61.4115 32.2794C61.295 33.0605 61.2077 33.6674 61.0295 35.3859C60.8514 37.1045 60.6504 40.9526 60.1435 42.8958C58.7073 50.4991 60.5992 52.6477 63.1438 51.4871C65.0849 50.5351 64.7996 44.4817 64.7486 41.3483C64.6976 38.2149 64.5179 37.7109 64.7741 34.1391C64.8107 33.6289 65.3839 33.2082 65.3991 32.7115Z" fill="#EFCDB0"/>
<path d="M31.752 58.6524C31.9957 58.5409 32.6462 58.3191 32.6462 58.3191L38.3319 54.1104C37.1091 54.4159 31.7408 57.0023 31.7408 57.0023C31.7474 57.5254 31.752 58.6524 31.752 58.6524Z" fill="#EA8200"/>
<path d="M61.2941 29.0444C60.8709 30.3689 61.4118 32.2795 61.4118 32.2795C61.569 33.0035 62.159 31.9314 62.3287 30.2804C62.4985 28.6294 61.7171 27.7197 61.2941 29.0444Z" fill="#EFCDB0"/>
<path d="M62.4334 28.1363C62.4361 28.6803 62.4052 28.7131 62.7108 29.681C63.0166 30.6492 64.5195 30.8783 64.8762 30.8837C65.2328 30.8892 65.8453 30.6935 66.1188 30.2801C66.8007 29.2491 62.4305 27.5922 62.4334 28.1363Z" fill="#EFCDB0"/>
<path d="M53.922 26.6156C53.7861 27.3798 54.4107 27.8083 54.8117 27.3817C54.8117 27.3817 55.7168 25.3079 55.0656 24.5095C54.4146 23.7113 54.0581 25.851 53.922 26.6156Z" fill="#E8C6AB"/>
<path d="M51.3895 21.7104C51.3895 21.7104 50.8653 23.0313 51.6464 23.5746C52.4275 24.118 53.8915 25.3956 54.9766 23.7974C55.4506 22.5726 51.7438 20.9839 51.3895 21.7104Z" fill="#E8C6AB"/>
<defs>
<linearGradient id="paint0_linear_1070_4694" x1="65.3408" y1="37.7922" x2="54.0651" y2="16.7299" gradientUnits="userSpaceOnUse">
<stop stop-color="#989898"/>
<stop offset="0.1509" stop-color="#9E9E9E"/>
<stop offset="0.347" stop-color="#AEAEAE"/>
<stop offset="0.5672" stop-color="#C9C9C9"/>
<stop offset="0.7104" stop-color="#DEDEDE"/>
<stop offset="0.7764" stop-color="#D8D8D8"/>
<stop offset="0.8682" stop-color="#C6C6C6"/>
<stop offset="0.9748" stop-color="#A8A8A8"/>
<stop offset="1" stop-color="#A0A0A0"/>
</linearGradient>
<linearGradient id="paint1_linear_1070_4694" x1="81.367" y1="41.2397" x2="80.1008" y2="38.8744" gradientUnits="userSpaceOnUse">
<stop stop-color="#989898"/>
<stop offset="0.1509" stop-color="#9E9E9E"/>
<stop offset="0.347" stop-color="#AEAEAE"/>
<stop offset="0.5672" stop-color="#C9C9C9"/>
<stop offset="0.7104" stop-color="#DEDEDE"/>
<stop offset="0.7764" stop-color="#D8D8D8"/>
<stop offset="0.8682" stop-color="#C6C6C6"/>
<stop offset="0.9748" stop-color="#A8A8A8"/>
<stop offset="1" stop-color="#A0A0A0"/>
</linearGradient>
</defs>
</svg>
