<svg width="16" height="28" viewBox="0 0 16 28" fill="none" xmlns="http://www.w3.org/2000/svg">
<path d="M5.7498 0H10.2498C10.9979 0 11.5998 0.585156 11.5998 1.3125V3.5H4.3998V1.3125C4.3998 0.585156 5.00168 0 5.7498 0ZM0.799805 9.16016C0.799805 8.09375 1.3623 7.10391 2.29605 6.54063L3.1848 5.99922C3.98918 5.50703 4.9173 5.25 5.86793 5.25H10.1317C11.0823 5.25 12.0104 5.50703 12.8148 5.99922L13.7036 6.54063C14.6373 7.10391 15.1998 8.09375 15.1998 9.16016C15.1998 10.0898 14.7779 10.9266 14.1086 11.4898C14.7836 12.1242 15.1998 13.0156 15.1998 14C15.1998 15.0445 14.7273 15.9852 13.9792 16.625C14.7273 17.2648 15.1998 18.2055 15.1998 19.25C15.1998 20.2945 14.7273 21.2352 13.9792 21.875C14.7273 22.5148 15.1998 23.4555 15.1998 24.5C15.1998 26.4305 13.5854 28 11.5998 28H4.3998C2.41418 28 0.799805 26.4305 0.799805 24.5C0.799805 23.4555 1.2723 22.5148 2.02043 21.875C1.2723 21.2352 0.799805 20.2945 0.799805 19.25C0.799805 18.2055 1.2723 17.2648 2.02043 16.625C1.2723 15.9852 0.799805 15.0445 0.799805 14C0.799805 13.0156 1.21605 12.1242 1.89105 11.4898C1.22168 10.9211 0.799805 10.0898 0.799805 9.16016ZM4.3998 13.125C4.3998 13.6062 4.8048 14 5.2998 14H10.6998C11.1948 14 11.5998 13.6062 11.5998 13.125C11.5998 12.6438 11.1948 12.25 10.6998 12.25H5.2998C4.8048 12.25 4.3998 12.6438 4.3998 13.125ZM5.2998 19.25C4.8048 19.25 4.3998 19.6437 4.3998 20.125C4.3998 20.6063 4.8048 21 5.2998 21H10.6998C11.1948 21 11.5998 20.6063 11.5998 20.125C11.5998 19.6437 11.1948 19.25 10.6998 19.25H5.2998Z" fill="white"/>
</svg>
