<svg width="28" height="28" viewBox="0 0 28 28" fill="none" xmlns="http://www.w3.org/2000/svg">
<g clip-path="url(#clip0_2175_1879)">
<path d="M14.0001 4.74551V0.823539C14.0001 0.368703 13.6314 0 13.1766 0H1.2354C0.780565 0 0.411861 0.368703 0.411861 0.823539V27.1765C0.411861 27.6313 0.780565 28 1.2354 28H2.05894C2.41922 28 2.73772 27.7658 2.84507 27.4218L3.98164 23.7805L8.89258 24.53C10.9703 24.8471 12.916 23.4316 13.2367 21.3642C13.2663 21.1734 13.2811 20.9806 13.2811 20.7875C13.2811 20.568 13.1935 20.3575 13.0376 20.2029L11.0072 18.1887L13.575 16.6602C13.8245 16.5117 13.9774 16.2429 13.9774 15.9526V14.0133H15.0782C16.3007 14.0133 17.2943 13.0276 17.2943 11.8083C17.2943 11.4651 17.2137 11.1266 17.0593 10.8201L14.0001 4.74551ZM22.4266 24.1029C22.105 23.7812 21.5836 23.7812 21.262 24.1029C20.9404 24.4245 20.9404 24.9459 21.262 25.2675C22.7093 26.7147 25.0557 26.7147 26.5029 25.2675C27.9502 23.8202 27.9502 21.4738 26.5029 20.0266C25.799 19.3226 24.8583 18.9411 23.8825 18.9411H16.8825C16.4276 18.9411 16.0589 19.3098 16.0589 19.7647C16.0589 20.2195 16.4276 20.5882 16.8825 20.5882H23.8825C24.4257 20.5882 24.9464 20.7994 25.3383 21.1912C26.1423 21.9953 26.1423 23.2988 25.3383 24.1029C24.5342 24.9069 23.2307 24.9069 22.4266 24.1029ZM18.5296 16.0588C18.0747 16.0588 17.706 16.4275 17.706 16.8824C17.706 17.3372 18.0747 17.7059 18.5296 17.7059H23.4707C24.2295 17.7059 24.9614 17.4091 25.5088 16.8617C26.6345 15.7361 26.6345 13.9111 25.5088 12.7854C24.3832 11.6598 22.5582 11.6598 21.4326 12.7854C21.111 13.107 21.111 13.6285 21.4326 13.95C21.7542 14.2716 22.2756 14.2716 22.5972 13.95C23.0796 13.4676 23.8618 13.4676 24.3442 13.95C24.8266 14.4324 24.8266 15.2146 24.3442 15.697C24.1088 15.9323 23.7969 16.0588 23.4707 16.0588H18.5296Z" fill="white"/>
</g>
<defs>
<clipPath id="clip0_2175_1879">
<rect width="28" height="28" fill="white" transform="matrix(-1 0 0 1 28 0)"/>
</clipPath>
</defs>
</svg>
