<svg width="24" height="24" viewBox="0 0 24 24" fill="none" xmlns="http://www.w3.org/2000/svg">
<path fill-rule="evenodd" clip-rule="evenodd" d="M21.9595 16.894V18.2163C21.9583 18.7421 21.696 19.2464 21.2297 19.6191C20.9988 19.804 20.7239 19.9505 20.4212 20.0502C20.1185 20.1498 19.7938 20.2006 19.4662 20.1996H4.49325C4.16558 20.2003 3.84097 20.1495 3.53807 20.0501C3.23518 19.9507 2.95997 19.8046 2.72827 19.6203C2.49658 19.436 2.31296 19.2171 2.18798 18.9761C2.063 18.7352 1.99912 18.4769 2.00001 18.2163V16.894C2.00416 16.7225 2.09128 16.5589 2.24325 16.4372C2.40079 16.3151 2.61122 16.2459 2.83109 16.2437H11.1487C11.2792 16.243 11.4082 16.2665 11.5254 16.3122C11.6426 16.3579 11.745 16.4246 11.8243 16.507L12.5 17.2165C12.7313 17.4645 13.0324 17.6658 13.3791 17.8046C13.7258 17.9434 14.1085 18.0157 14.4966 18.0157C14.8847 18.0157 15.2675 17.9434 15.6142 17.8046C15.9609 17.6658 16.2619 17.4645 16.4932 17.2165L17.1689 16.5178C17.2468 16.4341 17.3488 16.3664 17.4664 16.3206C17.584 16.2748 17.7137 16.2521 17.8446 16.2544H21.1689C21.3888 16.2558 21.5992 16.3259 21.7546 16.4496C21.9101 16.5733 21.9982 16.7406 22 16.9155L21.9595 16.894Z" fill="currentColor"/>
<path fill-rule="evenodd" clip-rule="evenodd" d="M21.9596 7.63322V8.95546C21.9596 9.1308 21.8721 9.29896 21.7162 9.42294C21.5604 9.54692 21.349 9.61658 21.1286 9.61658H2.83126C2.61085 9.61658 2.39946 9.54692 2.2436 9.42294C2.08774 9.29896 2.00018 9.1308 2.00018 8.95546V7.63322C2.00018 6.40441 2.61382 5.22593 3.70609 4.35704C4.79836 3.48814 6.2798 3 7.8245 3H16.1353C17.68 3 19.1615 3.48814 20.2537 4.35704C21.346 5.22593 21.9596 6.40441 21.9596 7.63322Z" fill="currentColor"/>
<path fill-rule="evenodd" clip-rule="evenodd" d="M21.9596 12.2612V13.5834C21.9579 13.9337 21.7822 14.2692 21.4708 14.5168C21.1595 14.7645 20.7378 14.9043 20.2975 14.9057H17.8042C16.4934 14.9057 15.8583 15.6743 15.1421 16.3999C15.0618 16.4815 14.9592 16.5475 14.8422 16.5928C14.7251 16.6382 14.5966 16.6618 14.4664 16.6618C14.3362 16.6618 14.2077 16.6382 14.0906 16.5928C13.9735 16.5475 13.871 16.4815 13.7907 16.3999C13.115 15.6636 12.4394 14.9003 11.1286 14.9003H3.66234C3.22315 14.8961 2.80342 14.7555 2.49284 14.5084C2.18225 14.2613 2.00544 13.9275 2.00018 13.5781V12.2612C2.00018 11.9105 2.1753 11.5742 2.48702 11.3262C2.79873 11.0783 3.22151 10.939 3.66234 10.939H20.2975C20.7378 10.9404 21.1595 11.0801 21.4708 11.3278C21.7822 11.5755 21.9579 11.911 21.9596 12.2612Z" fill="currentColor"/>
</svg>
