<svg width="20" height="24" viewBox="0 0 20 24" fill="none" xmlns="http://www.w3.org/2000/svg">
<path d="M5.5581 23.964C5.34984 24.0595 5.10421 23.9587 5.02317 23.7444C4.76282 23.056 4.6311 22.3335 4.6311 21.5911V8.05664H5.87723V21.5911C5.87723 22.1726 5.97876 22.7388 6.17952 23.2788C6.25138 23.4721 6.16031 23.688 5.97285 23.7739L5.5581 23.964Z" fill="url(#paint0_linear_559_1819)"/>
<path d="M5.97267 23.7734L5.55782 23.9637C5.3497 24.0593 5.10407 23.9581 5.02298 23.7438C4.79798 23.1485 4.66907 22.5279 4.6386 21.8904C4.63345 21.791 4.6311 21.6912 4.6311 21.5909V18.4165H5.87704V21.5909C5.87704 21.6912 5.87985 21.791 5.88642 21.8904C5.91501 22.3667 6.01345 22.8317 6.17938 23.2784C6.2511 23.472 6.16017 23.6876 5.97267 23.7734Z" fill="url(#paint1_linear_559_1819)"/>
<path d="M5.87723 21.5911V18.417H4.6311V21.5911C4.6311 21.6914 4.63373 21.7912 4.63851 21.8908H5.8874C5.88135 21.7913 5.87723 21.6915 5.87723 21.5911Z" fill="url(#paint2_linear_559_1819)"/>
<path d="M4.6311 8.05664H5.87723V9.80541H4.6311V8.05664Z" fill="url(#paint3_linear_559_1819)"/>
<path d="M4.6311 10.7964H5.87723V13.5142H4.6311V10.7964Z" fill="url(#paint4_linear_559_1819)"/>
<path d="M4.6311 10.7964H5.87723V13.5142H4.6311V10.7964Z" fill="url(#paint5_linear_559_1819)"/>
<path d="M4.6311 14.8511H5.87723V17.5689H4.6311V14.8511Z" fill="url(#paint6_linear_559_1819)"/>
<path d="M4.6311 14.8511H5.87723V17.5689H4.6311V14.8511Z" fill="url(#paint7_linear_559_1819)"/>
<path d="M5.27103 0.290297C5.26034 0.218203 5.24932 0.150187 5.23798 0.0864844C5.21745 -0.0288281 5.18421 -0.0288281 5.16363 0.0864844C5.15229 0.150187 5.14128 0.218203 5.13059 0.290297C5.04598 0.861516 4.77626 1.38647 4.3736 1.80042C3.61601 2.5793 3.13892 3.71194 3.13892 4.97325C3.13892 6.50878 3.84574 7.85405 4.90517 8.60213C5.08217 8.72709 5.3194 8.72709 5.4964 8.60213C6.55587 7.85409 7.26265 6.50878 7.26265 4.97325C7.26265 3.71194 6.78556 2.5793 6.02796 1.80042C5.62535 1.38647 5.35563 0.861562 5.27103 0.290297Z" fill="url(#paint8_linear_559_1819)"/>
<path d="M5.27111 0.290363C5.26042 0.21827 5.24941 0.150254 5.23806 0.0865508C5.22817 0.0310508 5.21533 0.00255078 5.20239 0.000488281V8.69585C5.30547 8.69557 5.40846 8.66435 5.49653 8.60219C6.556 7.85416 7.26278 6.50885 7.26278 4.97332C7.26278 3.712 6.78569 2.57936 6.0281 1.80049C5.62544 1.38654 5.35572 0.861629 5.27111 0.290363Z" fill="url(#paint9_linear_559_1819)"/>
<path d="M5.27111 0.290363C5.26042 0.21827 5.24941 0.150254 5.23806 0.0865508C5.22817 0.0310508 5.21533 0.00255078 5.20239 0.000488281V8.69585C5.30547 8.69557 5.40846 8.66435 5.49653 8.60219C6.556 7.85416 7.26278 6.50885 7.26278 4.97332C7.26278 3.712 6.78569 2.57936 6.0281 1.80049C5.62544 1.38654 5.35572 0.861629 5.27111 0.290363Z" fill="url(#paint10_linear_559_1819)"/>
<path d="M3.13892 4.9732C3.13892 6.50873 3.84574 7.85399 4.90517 8.60207C5.08217 8.72704 5.3194 8.72704 5.4964 8.60207C6.55587 7.85404 7.26265 6.50873 7.26265 4.9732C7.26265 4.9289 7.2619 4.88479 7.26073 4.84082H3.14079C3.13967 4.88479 3.13892 4.9289 3.13892 4.9732Z" fill="url(#paint11_linear_559_1819)"/>
<path d="M9.8966 5.37548C9.92604 5.3166 9.95313 5.26054 9.97774 5.20753C10.0223 5.11153 9.99771 5.09432 9.92276 5.16899C9.88137 5.21024 9.83796 5.25487 9.79268 5.30268C9.43409 5.68153 8.96252 5.93024 8.45009 6.02793C7.48591 6.21173 6.54602 6.80268 5.89249 7.73601C5.09688 8.87226 4.92284 10.234 5.31926 11.3364C5.38549 11.5206 5.56104 11.6436 5.75679 11.6428C6.92834 11.6382 8.14845 11.0089 8.94406 9.87267C9.59759 8.93934 9.8314 7.85399 9.67437 6.88513C9.59084 6.37021 9.66326 5.84203 9.8966 5.37548Z" fill="url(#paint12_linear_559_1819)"/>
<path d="M9.89649 5.37561C9.92593 5.31674 9.95303 5.26068 9.97763 5.20766C9.99906 5.16144 10.0044 5.13369 9.99587 5.12549L5.49048 11.5599C5.56688 11.613 5.65928 11.6434 5.75668 11.6429C6.92823 11.6383 8.14834 11.0091 8.94395 9.87285C9.59748 8.93952 9.83129 7.85418 9.67426 6.88532C9.59073 6.37035 9.66315 5.84216 9.89649 5.37561Z" fill="url(#paint13_linear_559_1819)"/>
<path d="M9.89649 5.37561C9.92593 5.31674 9.95303 5.26068 9.97763 5.20766C9.99906 5.16144 10.0044 5.13369 9.99587 5.12549L5.49048 11.5599C5.56688 11.613 5.65928 11.6434 5.75668 11.6429C6.92823 11.6383 8.14834 11.0091 8.94395 9.87285C9.59748 8.93952 9.83129 7.85418 9.67426 6.88532C9.59073 6.37035 9.66315 5.84216 9.89649 5.37561Z" fill="url(#paint14_linear_559_1819)"/>
<path d="M5.89249 7.73614C5.09688 8.87239 4.92284 10.2341 5.31926 11.3366C5.38549 11.5207 5.56104 11.6437 5.75679 11.6429C6.92834 11.6383 8.14845 11.0091 8.94406 9.8728C8.96702 9.84004 8.98934 9.80699 9.01123 9.77385L5.96257 7.63916C5.93885 7.67113 5.91546 7.70338 5.89249 7.73614Z" fill="url(#paint15_linear_559_1819)"/>
<path d="M0.504704 5.37548C0.475267 5.3166 0.448173 5.26054 0.423563 5.20753C0.379032 5.11153 0.403595 5.09432 0.478548 5.16899C0.519938 5.21024 0.563345 5.25487 0.608626 5.30268C0.96722 5.68153 1.43878 5.93024 1.95122 6.02793C2.91539 6.21173 3.85528 6.80268 4.50881 7.73601C5.30442 8.87226 5.47847 10.234 5.08205 11.3364C5.01581 11.5206 4.84027 11.6436 4.64452 11.6428C3.47297 11.6382 2.25286 11.0089 1.45725 9.87267C0.80372 8.93934 0.569907 7.85399 0.726938 6.88513C0.81047 6.37021 0.738095 5.84203 0.504704 5.37548Z" fill="url(#paint16_linear_559_1819)"/>
<path d="M0.504594 5.37561C0.475156 5.31674 0.448063 5.26068 0.423453 5.20766C0.402031 5.16144 0.396735 5.13369 0.405219 5.12549L4.91061 11.5599C4.8342 11.613 4.74181 11.6434 4.64441 11.6429C3.47286 11.6383 2.25275 11.0091 1.45714 9.87285C0.803609 8.93952 0.569797 7.85418 0.726828 6.88532C0.81036 6.37035 0.737984 5.84216 0.504594 5.37561Z" fill="url(#paint17_linear_559_1819)"/>
<path d="M0.504594 5.37561C0.475156 5.31674 0.448063 5.26068 0.423453 5.20766C0.402031 5.16144 0.396735 5.13369 0.405219 5.12549L4.91061 11.5599C4.8342 11.613 4.74181 11.6434 4.64441 11.6429C3.47286 11.6383 2.25275 11.0091 1.45714 9.87285C0.803609 8.93952 0.569797 7.85418 0.726828 6.88532C0.81036 6.37035 0.737984 5.84216 0.504594 5.37561Z" fill="url(#paint18_linear_559_1819)"/>
<path d="M4.50887 7.73614C5.30448 8.87239 5.47853 10.2341 5.08211 11.3366C5.01587 11.5207 4.84032 11.6437 4.64457 11.6429C3.47303 11.6383 2.25292 11.0091 1.45731 9.8728C1.43434 9.84004 1.41203 9.80699 1.39014 9.77385L4.43879 7.63916C4.46251 7.67113 4.4859 7.70338 4.50887 7.73614Z" fill="url(#paint19_linear_559_1819)"/>
<path d="M9.8966 9.47753C9.92604 9.41865 9.95313 9.36259 9.97774 9.30958C10.0223 9.21358 9.99771 9.19637 9.92276 9.27104C9.88137 9.31229 9.83796 9.35692 9.79268 9.40473C9.43409 9.78358 8.96252 10.0323 8.45009 10.13C7.48591 10.3138 6.54602 10.9047 5.89249 11.8381C5.09688 12.9743 4.92284 14.336 5.31926 15.4385C5.38549 15.6227 5.56104 15.7456 5.75679 15.7448C6.92834 15.7402 8.14845 15.111 8.94406 13.9747C9.59759 13.0414 9.8314 11.956 9.67437 10.9872C9.59084 10.4723 9.66326 9.94408 9.8966 9.47753Z" fill="url(#paint20_linear_559_1819)"/>
<path d="M9.89649 9.47766C9.92593 9.41879 9.95303 9.36273 9.97763 9.30971C9.99906 9.26349 10.0044 9.23579 9.99587 9.22754L5.49048 15.6619C5.56688 15.7151 5.65928 15.7454 5.75668 15.745C6.92823 15.7404 8.14834 15.1111 8.94395 13.9749C9.59748 13.0416 9.83129 11.9562 9.67426 10.9874C9.59073 10.4724 9.66315 9.94421 9.89649 9.47766Z" fill="url(#paint21_linear_559_1819)"/>
<path d="M9.89649 9.47766C9.92593 9.41879 9.95303 9.36273 9.97763 9.30971C9.99906 9.26349 10.0044 9.23579 9.99587 9.22754L5.49048 15.6619C5.56688 15.7151 5.65928 15.7454 5.75668 15.745C6.92823 15.7404 8.14834 15.1111 8.94395 13.9749C9.59748 13.0416 9.83129 11.9562 9.67426 10.9874C9.59073 10.4724 9.66315 9.94421 9.89649 9.47766Z" fill="url(#paint22_linear_559_1819)"/>
<path d="M5.89249 11.8382C5.09688 12.9744 4.92284 14.3362 5.31926 15.4386C5.38549 15.6228 5.56104 15.7457 5.75679 15.7449C6.92834 15.7404 8.14845 15.1111 8.94406 13.9749C8.96702 13.9421 8.98934 13.909 9.01123 13.8759L5.96257 11.7412C5.93885 11.7732 5.91546 11.8054 5.89249 11.8382Z" fill="url(#paint23_linear_559_1819)"/>
<path d="M0.504704 9.47753C0.475267 9.41865 0.448173 9.36259 0.423563 9.30958C0.379032 9.21358 0.403595 9.19637 0.478548 9.27104C0.519938 9.31229 0.563345 9.35692 0.608626 9.40473C0.96722 9.78358 1.43878 10.0323 1.95122 10.13C2.91539 10.3138 3.85528 10.9047 4.50881 11.8381C5.30442 12.9743 5.47847 14.336 5.08205 15.4385C5.01581 15.6227 4.84027 15.7456 4.64452 15.7448C3.47297 15.7402 2.25286 15.111 1.45725 13.9747C0.80372 13.0414 0.569907 11.956 0.726938 10.9872C0.81047 10.4723 0.738095 9.94408 0.504704 9.47753Z" fill="url(#paint24_linear_559_1819)"/>
<path d="M0.504594 9.47766C0.475156 9.41879 0.448063 9.36273 0.423453 9.30971C0.402031 9.26349 0.396735 9.23579 0.405219 9.22754L4.91061 15.6619C4.8342 15.7151 4.74181 15.7454 4.64441 15.745C3.47286 15.7404 2.25275 15.1111 1.45714 13.9749C0.803609 13.0416 0.569797 11.9562 0.726828 10.9874C0.81036 10.4724 0.737984 9.94421 0.504594 9.47766Z" fill="url(#paint25_linear_559_1819)"/>
<path d="M0.504594 9.47766C0.475156 9.41879 0.448063 9.36273 0.423453 9.30971C0.402031 9.26349 0.396735 9.23579 0.405219 9.22754L4.91061 15.6619C4.8342 15.7151 4.74181 15.7454 4.64441 15.745C3.47286 15.7404 2.25275 15.1111 1.45714 13.9749C0.803609 13.0416 0.569797 11.9562 0.726828 10.9874C0.81036 10.4724 0.737984 9.94421 0.504594 9.47766Z" fill="url(#paint26_linear_559_1819)"/>
<path d="M4.50887 11.8382C5.30448 12.9744 5.47853 14.3362 5.08211 15.4386C5.01587 15.6228 4.84032 15.7457 4.64457 15.7449C3.47303 15.7404 2.25292 15.1111 1.45731 13.9749C1.43434 13.9421 1.41203 13.909 1.39014 13.8759L4.43879 11.7412C4.46251 11.7732 4.4859 11.8054 4.50887 11.8382Z" fill="url(#paint27_linear_559_1819)"/>
<path d="M9.8966 13.5796C9.92604 13.5207 9.95313 13.4646 9.97774 13.4116C10.0223 13.3156 9.99771 13.2984 9.92276 13.3731C9.88137 13.4143 9.83796 13.459 9.79268 13.5068C9.43409 13.8856 8.96252 14.1343 8.45009 14.232C7.48591 14.4158 6.54602 15.0068 5.89249 15.9401C5.09688 17.0764 4.92284 18.4381 5.31926 19.5405C5.38549 19.7247 5.56104 19.8477 5.75679 19.8469C6.92834 19.8423 8.14845 19.213 8.94406 18.0768C9.59759 17.1434 9.8314 16.0581 9.67437 15.0892C9.59084 14.5743 9.66326 14.0461 9.8966 13.5796Z" fill="url(#paint28_linear_559_1819)"/>
<path d="M9.89649 13.5797C9.92593 13.5208 9.95303 13.4648 9.97763 13.4118C9.99906 13.3655 10.0044 13.3378 9.99587 13.3296L5.49048 19.764C5.56688 19.8171 5.65928 19.8475 5.75668 19.847C6.92823 19.8424 8.14834 19.2132 8.94395 18.0769C9.59748 17.1436 9.83129 16.0583 9.67426 15.0894C9.59073 14.5744 9.66315 14.0463 9.89649 13.5797Z" fill="url(#paint29_linear_559_1819)"/>
<path d="M9.89649 13.5797C9.92593 13.5208 9.95303 13.4648 9.97763 13.4118C9.99906 13.3655 10.0044 13.3378 9.99587 13.3296L5.49048 19.764C5.56688 19.8171 5.65928 19.8475 5.75668 19.847C6.92823 19.8424 8.14834 19.2132 8.94395 18.0769C9.59748 17.1436 9.83129 16.0583 9.67426 15.0894C9.59073 14.5744 9.66315 14.0463 9.89649 13.5797Z" fill="url(#paint30_linear_559_1819)"/>
<path d="M5.89249 15.9402C5.09688 17.0765 4.92284 18.4382 5.31926 19.5407C5.38549 19.7248 5.56104 19.8478 5.75679 19.847C6.92834 19.8424 8.14845 19.2132 8.94406 18.0769C8.96702 18.0441 8.98934 18.0111 9.01123 17.9779L5.96257 15.8433C5.93885 15.8752 5.91546 15.9075 5.89249 15.9402Z" fill="url(#paint31_linear_559_1819)"/>
<path d="M0.504704 13.5796C0.475267 13.5207 0.448173 13.4646 0.423563 13.4116C0.379032 13.3156 0.403595 13.2984 0.478548 13.3731C0.519938 13.4143 0.563345 13.459 0.608626 13.5068C0.96722 13.8856 1.43878 14.1343 1.95122 14.232C2.91539 14.4158 3.85528 15.0068 4.50881 15.9401C5.30442 17.0764 5.47847 18.4381 5.08205 19.5405C5.01581 19.7247 4.84027 19.8477 4.64452 19.8469C3.47297 19.8423 2.25286 19.213 1.45725 18.0768C0.80372 17.1434 0.569907 16.0581 0.726938 15.0892C0.81047 14.5743 0.738095 14.0461 0.504704 13.5796Z" fill="url(#paint32_linear_559_1819)"/>
<path d="M0.504594 13.5797C0.475156 13.5208 0.448063 13.4648 0.423453 13.4118C0.402031 13.3655 0.396735 13.3378 0.405219 13.3296L4.91061 19.764C4.8342 19.8171 4.74181 19.8475 4.64441 19.847C3.47286 19.8424 2.25275 19.2132 1.45714 18.0769C0.803609 17.1436 0.569797 16.0583 0.726828 15.0894C0.81036 14.5744 0.737984 14.0463 0.504594 13.5797Z" fill="url(#paint33_linear_559_1819)"/>
<path d="M0.504594 13.5797C0.475156 13.5208 0.448063 13.4648 0.423453 13.4118C0.402031 13.3655 0.396735 13.3378 0.405219 13.3296L4.91061 19.764C4.8342 19.8171 4.74181 19.8475 4.64441 19.847C3.47286 19.8424 2.25275 19.2132 1.45714 18.0769C0.803609 17.1436 0.569797 16.0583 0.726828 15.0894C0.81036 14.5744 0.737984 14.0463 0.504594 13.5797Z" fill="url(#paint34_linear_559_1819)"/>
<path d="M4.50887 15.9402C5.30448 17.0765 5.47853 18.4382 5.08211 19.5407C5.01587 19.7248 4.84032 19.8478 4.64457 19.847C3.47303 19.8424 2.25292 19.2132 1.45731 18.0769C1.43434 18.0441 1.41203 18.0111 1.39014 17.9779L4.43879 15.8433C4.46251 15.8752 4.4859 15.9075 4.50887 15.9402Z" fill="url(#paint35_linear_559_1819)"/>
<path d="M15.1567 23.964C14.9485 24.0595 14.7028 23.9587 14.6218 23.7444C14.3615 23.056 14.2297 22.3335 14.2297 21.5911V8.05664H15.4759V21.5911C15.4759 22.1726 15.5774 22.7388 15.7782 23.2788C15.85 23.4721 15.7589 23.688 15.5715 23.7739L15.1567 23.964Z" fill="url(#paint36_linear_559_1819)"/>
<path d="M15.5713 23.7734L15.1565 23.9637C14.9483 24.0593 14.7027 23.9581 14.6216 23.7438C14.3966 23.1485 14.2677 22.5279 14.2372 21.8904C14.2321 21.791 14.2297 21.6912 14.2297 21.5909V18.4165H15.4757V21.5909C15.4757 21.6912 15.4785 21.791 15.485 21.8904C15.5136 22.3667 15.6121 22.8317 15.778 23.2784C15.8497 23.472 15.7588 23.6876 15.5713 23.7734Z" fill="url(#paint37_linear_559_1819)"/>
<path d="M15.4759 21.5911V18.417H14.2297V21.5911C14.2297 21.6914 14.2324 21.7912 14.2371 21.8908H15.486C15.48 21.7913 15.4759 21.6915 15.4759 21.5911Z" fill="url(#paint38_linear_559_1819)"/>
<path d="M14.2297 8.05664H15.4759V9.80541H14.2297V8.05664Z" fill="url(#paint39_linear_559_1819)"/>
<path d="M14.2297 10.7964H15.4759V13.5142H14.2297V10.7964Z" fill="url(#paint40_linear_559_1819)"/>
<path d="M14.2297 10.7964H15.4759V13.5142H14.2297V10.7964Z" fill="url(#paint41_linear_559_1819)"/>
<path d="M14.2297 14.8511H15.4759V17.5689H14.2297V14.8511Z" fill="url(#paint42_linear_559_1819)"/>
<path d="M14.2297 14.8511H15.4759V17.5689H14.2297V14.8511Z" fill="url(#paint43_linear_559_1819)"/>
<path d="M14.8697 0.290297C14.859 0.218203 14.848 0.150187 14.8366 0.0864844C14.8161 -0.0288281 14.7828 -0.0288281 14.7623 0.0864844C14.7509 0.150187 14.7399 0.218203 14.7292 0.290297C14.6446 0.861516 14.3749 1.38647 13.9722 1.80042C13.2146 2.5793 12.7375 3.71194 12.7375 4.97325C12.7375 6.50878 13.4444 7.85405 14.5038 8.60213C14.6808 8.72709 14.918 8.72709 15.095 8.60213C16.1545 7.85409 16.8613 6.50878 16.8613 4.97325C16.8613 3.71194 16.3842 2.5793 15.6266 1.80042C15.224 1.38647 14.9543 0.861562 14.8697 0.290297Z" fill="url(#paint44_linear_559_1819)"/>
<path d="M14.8697 0.290363C14.8591 0.21827 14.848 0.150254 14.8367 0.0865508C14.8268 0.0310508 14.814 0.00255078 14.801 0.000488281V8.69585C14.9041 8.69557 15.0071 8.66435 15.0952 8.60219C16.1546 7.85416 16.8614 6.50885 16.8614 4.97332C16.8614 3.712 16.3843 2.57936 15.6267 1.80049C15.2241 1.38654 14.9544 0.861629 14.8697 0.290363Z" fill="url(#paint45_linear_559_1819)"/>
<path d="M14.8697 0.290363C14.8591 0.21827 14.848 0.150254 14.8367 0.0865508C14.8268 0.0310508 14.814 0.00255078 14.801 0.000488281V8.69585C14.9041 8.69557 15.0071 8.66435 15.0952 8.60219C16.1546 7.85416 16.8614 6.50885 16.8614 4.97332C16.8614 3.712 16.3843 2.57936 15.6267 1.80049C15.2241 1.38654 14.9544 0.861629 14.8697 0.290363Z" fill="url(#paint46_linear_559_1819)"/>
<path d="M12.7375 4.9732C12.7375 6.50873 13.4444 7.85399 14.5038 8.60207C14.6808 8.72704 14.918 8.72704 15.095 8.60207C16.1545 7.85404 16.8613 6.50873 16.8613 4.9732C16.8613 4.9289 16.8605 4.88479 16.8594 4.84082H12.7395C12.7383 4.88479 12.7375 4.9289 12.7375 4.9732Z" fill="url(#paint47_linear_559_1819)"/>
<path d="M19.4952 5.37548C19.5247 5.3166 19.5518 5.26054 19.5764 5.20753C19.6209 5.11153 19.5963 5.09432 19.5214 5.16899C19.48 5.21024 19.4366 5.25487 19.3913 5.30268C19.0327 5.68153 18.5612 5.93024 18.0487 6.02793C17.0845 6.21173 16.1447 6.80268 15.4911 7.73601C14.6955 8.87226 14.5215 10.234 14.9179 11.3364C14.9841 11.5206 15.1597 11.6436 15.3554 11.6428C16.527 11.6382 17.7471 11.0089 18.5427 9.87267C19.1962 8.93934 19.43 7.85399 19.273 6.88513C19.1895 6.37021 19.2618 5.84203 19.4952 5.37548Z" fill="url(#paint48_linear_559_1819)"/>
<path d="M19.4954 5.37561C19.5248 5.31674 19.5519 5.26068 19.5765 5.20766C19.5979 5.16144 19.6032 5.13369 19.5947 5.12549L15.0894 11.5599C15.1658 11.613 15.2582 11.6434 15.3556 11.6429C16.5271 11.6383 17.7472 11.0091 18.5428 9.87285C19.1964 8.93952 19.4302 7.85418 19.2731 6.88532C19.1896 6.37035 19.262 5.84216 19.4954 5.37561Z" fill="url(#paint49_linear_559_1819)"/>
<path d="M19.4954 5.37561C19.5248 5.31674 19.5519 5.26068 19.5765 5.20766C19.5979 5.16144 19.6032 5.13369 19.5947 5.12549L15.0894 11.5599C15.1658 11.613 15.2582 11.6434 15.3556 11.6429C16.5271 11.6383 17.7472 11.0091 18.5428 9.87285C19.1964 8.93952 19.4302 7.85418 19.2731 6.88532C19.1896 6.37035 19.262 5.84216 19.4954 5.37561Z" fill="url(#paint50_linear_559_1819)"/>
<path d="M15.4911 7.73614C14.6955 8.87239 14.5215 10.2341 14.9179 11.3366C14.9841 11.5207 15.1597 11.6437 15.3554 11.6429C16.527 11.6383 17.7471 11.0091 18.5427 9.8728C18.5657 9.84004 18.588 9.80699 18.6099 9.77385L15.5612 7.63916C15.5375 7.67113 15.5141 7.70338 15.4911 7.73614Z" fill="url(#paint51_linear_559_1819)"/>
<path d="M10.1033 5.37548C10.0739 5.3166 10.0468 5.26054 10.0222 5.20753C9.97766 5.11153 10.0022 5.09432 10.0772 5.16899C10.1186 5.21024 10.162 5.25487 10.2073 5.30268C10.5659 5.68153 11.0374 5.93024 11.5499 6.02793C12.514 6.21173 13.4539 6.80268 14.1074 7.73601C14.9031 8.87226 15.0771 10.234 14.6807 11.3364C14.6144 11.5206 14.4389 11.6436 14.2431 11.6428C13.0716 11.6382 11.8515 11.0089 11.0559 9.87267C10.4024 8.93934 10.1685 7.85399 10.3256 6.88513C10.4091 6.37021 10.3367 5.84203 10.1033 5.37548Z" fill="url(#paint52_linear_559_1819)"/>
<path d="M10.1032 5.37561C10.0738 5.31674 10.0467 5.26068 10.0221 5.20766C10.0007 5.16144 9.99537 5.13369 10.0039 5.12549L14.5092 11.5599C14.4328 11.613 14.3404 11.6434 14.243 11.6429C13.0715 11.6383 11.8514 11.0091 11.0558 9.87285C10.4022 8.93952 10.1684 7.85418 10.3255 6.88532C10.409 6.37035 10.3366 5.84216 10.1032 5.37561Z" fill="url(#paint53_linear_559_1819)"/>
<path d="M10.1032 5.37561C10.0738 5.31674 10.0467 5.26068 10.0221 5.20766C10.0007 5.16144 9.99537 5.13369 10.0039 5.12549L14.5092 11.5599C14.4328 11.613 14.3404 11.6434 14.243 11.6429C13.0715 11.6383 11.8514 11.0091 11.0558 9.87285C10.4022 8.93952 10.1684 7.85418 10.3255 6.88532C10.409 6.37035 10.3366 5.84216 10.1032 5.37561Z" fill="url(#paint54_linear_559_1819)"/>
<path d="M14.1075 7.73614C14.9031 8.87239 15.0772 10.2341 14.6807 11.3366C14.6145 11.5207 14.439 11.6437 14.2432 11.6429C13.0717 11.6383 11.8516 11.0091 11.0559 9.8728C11.033 9.84004 11.0107 9.80699 10.9888 9.77385L14.0374 7.63916C14.0611 7.67113 14.0845 7.70338 14.1075 7.73614Z" fill="url(#paint55_linear_559_1819)"/>
<path d="M19.4952 9.47753C19.5247 9.41865 19.5518 9.36259 19.5764 9.30958C19.6209 9.21358 19.5963 9.19637 19.5214 9.27104C19.48 9.31229 19.4366 9.35692 19.3913 9.40473C19.0327 9.78358 18.5612 10.0323 18.0487 10.13C17.0845 10.3138 16.1447 10.9047 15.4911 11.8381C14.6955 12.9743 14.5215 14.336 14.9179 15.4385C14.9841 15.6227 15.1597 15.7456 15.3554 15.7448C16.527 15.7402 17.7471 15.111 18.5427 13.9747C19.1962 13.0414 19.43 11.956 19.273 10.9872C19.1895 10.4723 19.2618 9.94408 19.4952 9.47753Z" fill="url(#paint56_linear_559_1819)"/>
<path d="M19.4954 9.47766C19.5248 9.41879 19.5519 9.36273 19.5765 9.30971C19.5979 9.26349 19.6032 9.23579 19.5947 9.22754L15.0894 15.6619C15.1658 15.7151 15.2582 15.7454 15.3556 15.745C16.5271 15.7404 17.7472 15.1111 18.5428 13.9749C19.1964 13.0416 19.4302 11.9562 19.2731 10.9874C19.1896 10.4724 19.262 9.94421 19.4954 9.47766Z" fill="url(#paint57_linear_559_1819)"/>
<path d="M19.4954 9.47766C19.5248 9.41879 19.5519 9.36273 19.5765 9.30971C19.5979 9.26349 19.6032 9.23579 19.5947 9.22754L15.0894 15.6619C15.1658 15.7151 15.2582 15.7454 15.3556 15.745C16.5271 15.7404 17.7472 15.1111 18.5428 13.9749C19.1964 13.0416 19.4302 11.9562 19.2731 10.9874C19.1896 10.4724 19.262 9.94421 19.4954 9.47766Z" fill="url(#paint58_linear_559_1819)"/>
<path d="M15.4911 11.8382C14.6955 12.9744 14.5215 14.3362 14.9179 15.4386C14.9841 15.6228 15.1597 15.7457 15.3554 15.7449C16.527 15.7404 17.7471 15.1111 18.5427 13.9749C18.5657 13.9421 18.588 13.909 18.6099 13.8759L15.5612 11.7412C15.5375 11.7732 15.5141 11.8054 15.4911 11.8382Z" fill="url(#paint59_linear_559_1819)"/>
<path d="M10.1033 9.47753C10.0739 9.41865 10.0468 9.36259 10.0222 9.30958C9.97766 9.21358 10.0022 9.19637 10.0772 9.27104C10.1186 9.31229 10.162 9.35692 10.2073 9.40473C10.5659 9.78358 11.0374 10.0323 11.5499 10.13C12.514 10.3138 13.4539 10.9047 14.1074 11.8381C14.9031 12.9743 15.0771 14.336 14.6807 15.4385C14.6144 15.6227 14.4389 15.7456 14.2431 15.7448C13.0716 15.7402 11.8515 15.111 11.0559 13.9747C10.4024 13.0414 10.1685 11.956 10.3256 10.9872C10.4091 10.4723 10.3367 9.94408 10.1033 9.47753Z" fill="url(#paint60_linear_559_1819)"/>
<path d="M10.1032 9.47766C10.0738 9.41879 10.0467 9.36273 10.0221 9.30971C10.0007 9.26349 9.99537 9.23579 10.0039 9.22754L14.5092 15.6619C14.4328 15.7151 14.3404 15.7454 14.243 15.745C13.0715 15.7404 11.8514 15.1111 11.0558 13.9749C10.4022 13.0416 10.1684 11.9562 10.3255 10.9874C10.409 10.4724 10.3366 9.94421 10.1032 9.47766Z" fill="url(#paint61_linear_559_1819)"/>
<path d="M10.1032 9.47766C10.0738 9.41879 10.0467 9.36273 10.0221 9.30971C10.0007 9.26349 9.99537 9.23579 10.0039 9.22754L14.5092 15.6619C14.4328 15.7151 14.3404 15.7454 14.243 15.745C13.0715 15.7404 11.8514 15.1111 11.0558 13.9749C10.4022 13.0416 10.1684 11.9562 10.3255 10.9874C10.409 10.4724 10.3366 9.94421 10.1032 9.47766Z" fill="url(#paint62_linear_559_1819)"/>
<path d="M14.1075 11.8382C14.9031 12.9744 15.0772 14.3362 14.6807 15.4386C14.6145 15.6228 14.439 15.7457 14.2432 15.7449C13.0717 15.7404 11.8516 15.1111 11.0559 13.9749C11.033 13.9421 11.0107 13.909 10.9888 13.8759L14.0374 11.7412C14.0611 11.7732 14.0845 11.8054 14.1075 11.8382Z" fill="url(#paint63_linear_559_1819)"/>
<path d="M19.4952 13.5796C19.5247 13.5207 19.5518 13.4646 19.5764 13.4116C19.6209 13.3156 19.5963 13.2984 19.5214 13.3731C19.48 13.4143 19.4366 13.459 19.3913 13.5068C19.0327 13.8856 18.5612 14.1343 18.0487 14.232C17.0845 14.4158 16.1447 15.0068 15.4911 15.9401C14.6955 17.0764 14.5215 18.4381 14.9179 19.5405C14.9841 19.7247 15.1597 19.8477 15.3554 19.8469C16.527 19.8423 17.7471 19.213 18.5427 18.0768C19.1962 17.1434 19.43 16.0581 19.273 15.0892C19.1895 14.5743 19.2618 14.0461 19.4952 13.5796Z" fill="url(#paint64_linear_559_1819)"/>
<path d="M19.4954 13.5797C19.5248 13.5208 19.5519 13.4648 19.5765 13.4118C19.5979 13.3655 19.6032 13.3378 19.5947 13.3296L15.0894 19.764C15.1658 19.8171 15.2582 19.8475 15.3556 19.847C16.5271 19.8424 17.7472 19.2132 18.5428 18.0769C19.1964 17.1436 19.4302 16.0583 19.2731 15.0894C19.1896 14.5744 19.262 14.0463 19.4954 13.5797Z" fill="url(#paint65_linear_559_1819)"/>
<path d="M19.4954 13.5797C19.5248 13.5208 19.5519 13.4648 19.5765 13.4118C19.5979 13.3655 19.6032 13.3378 19.5947 13.3296L15.0894 19.764C15.1658 19.8171 15.2582 19.8475 15.3556 19.847C16.5271 19.8424 17.7472 19.2132 18.5428 18.0769C19.1964 17.1436 19.4302 16.0583 19.2731 15.0894C19.1896 14.5744 19.262 14.0463 19.4954 13.5797Z" fill="url(#paint66_linear_559_1819)"/>
<path d="M15.4911 15.9402C14.6955 17.0765 14.5215 18.4382 14.9179 19.5407C14.9841 19.7248 15.1597 19.8478 15.3554 19.847C16.527 19.8424 17.7471 19.2132 18.5427 18.0769C18.5657 18.0441 18.588 18.0111 18.6099 17.9779L15.5612 15.8433C15.5375 15.8752 15.5141 15.9075 15.4911 15.9402Z" fill="url(#paint67_linear_559_1819)"/>
<path d="M10.1033 13.5796C10.0739 13.5207 10.0468 13.4646 10.0222 13.4116C9.97766 13.3156 10.0022 13.2984 10.0772 13.3731C10.1186 13.4143 10.162 13.459 10.2073 13.5068C10.5659 13.8856 11.0374 14.1343 11.5499 14.232C12.514 14.4158 13.4539 15.0068 14.1074 15.9401C14.9031 17.0764 15.0771 18.4381 14.6807 19.5405C14.6144 19.7247 14.4389 19.8477 14.2431 19.8469C13.0716 19.8423 11.8515 19.213 11.0559 18.0768C10.4024 17.1434 10.1685 16.0581 10.3256 15.0892C10.4091 14.5743 10.3367 14.0461 10.1033 13.5796Z" fill="url(#paint68_linear_559_1819)"/>
<path d="M10.1032 13.5797C10.0738 13.5208 10.0467 13.4648 10.0221 13.4118C10.0007 13.3655 9.99537 13.3378 10.0039 13.3296L14.5092 19.764C14.4328 19.8171 14.3404 19.8475 14.243 19.847C13.0715 19.8424 11.8514 19.2132 11.0558 18.0769C10.4022 17.1436 10.1684 16.0583 10.3255 15.0894C10.409 14.5744 10.3366 14.0463 10.1032 13.5797Z" fill="url(#paint69_linear_559_1819)"/>
<path d="M10.1032 13.5797C10.0738 13.5208 10.0467 13.4648 10.0221 13.4118C10.0007 13.3655 9.99537 13.3378 10.0039 13.3296L14.5092 19.764C14.4328 19.8171 14.3404 19.8475 14.243 19.847C13.0715 19.8424 11.8514 19.2132 11.0558 18.0769C10.4022 17.1436 10.1684 16.0583 10.3255 15.0894C10.409 14.5744 10.3366 14.0463 10.1032 13.5797Z" fill="url(#paint70_linear_559_1819)"/>
<path d="M14.1075 15.9402C14.9031 17.0765 15.0772 18.4382 14.6807 19.5407C14.6145 19.7248 14.439 19.8478 14.2432 19.847C13.0717 19.8424 11.8516 19.2132 11.0559 18.0769C11.033 18.0441 11.0107 18.0111 10.9888 17.9779L14.0374 15.8433C14.0611 15.8752 14.0845 15.9075 14.1075 15.9402Z" fill="url(#paint71_linear_559_1819)"/>
<defs>
<linearGradient id="paint0_linear_559_1819" x1="4.69438" y1="16.0284" x2="5.91988" y2="16.0284" gradientUnits="userSpaceOnUse">
<stop stop-color="#FEF0AE"/>
<stop offset="1" stop-color="#FAC600"/>
</linearGradient>
<linearGradient id="paint1_linear_559_1819" x1="5.12868" y1="21.2082" x2="5.89799" y2="21.2082" gradientUnits="userSpaceOnUse">
<stop stop-color="#FE9738" stop-opacity="0"/>
<stop offset="1" stop-color="#FE9738"/>
</linearGradient>
<linearGradient id="paint2_linear_559_1819" x1="5.25928" y1="21.0888" x2="5.25928" y2="19.3116" gradientUnits="userSpaceOnUse">
<stop stop-color="#FE9738" stop-opacity="0"/>
<stop offset="1" stop-color="#FE9738"/>
</linearGradient>
<linearGradient id="paint3_linear_559_1819" x1="5.25417" y1="9.62719" x2="5.25417" y2="8.78034" gradientUnits="userSpaceOnUse">
<stop stop-color="#FE9738" stop-opacity="0"/>
<stop offset="1" stop-color="#FE9738"/>
</linearGradient>
<linearGradient id="paint4_linear_559_1819" x1="5.25417" y1="13.7147" x2="5.25417" y2="11.6628" gradientUnits="userSpaceOnUse">
<stop stop-color="#FE9738" stop-opacity="0"/>
<stop offset="1" stop-color="#FE9738"/>
</linearGradient>
<linearGradient id="paint5_linear_559_1819" x1="5.12878" y1="12.1553" x2="5.64674" y2="12.1553" gradientUnits="userSpaceOnUse">
<stop stop-color="#FE9738" stop-opacity="0"/>
<stop offset="1" stop-color="#FE9738"/>
</linearGradient>
<linearGradient id="paint6_linear_559_1819" x1="5.25417" y1="17.7694" x2="5.25417" y2="15.7175" gradientUnits="userSpaceOnUse">
<stop stop-color="#FE9738" stop-opacity="0"/>
<stop offset="1" stop-color="#FE9738"/>
</linearGradient>
<linearGradient id="paint7_linear_559_1819" x1="5.04524" y1="16.21" x2="5.71546" y2="16.21" gradientUnits="userSpaceOnUse">
<stop stop-color="#FE9738" stop-opacity="0"/>
<stop offset="1" stop-color="#FE9738"/>
</linearGradient>
<linearGradient id="paint8_linear_559_1819" x1="4.24788" y1="4.34794" x2="6.13249" y2="4.34794" gradientUnits="userSpaceOnUse">
<stop stop-color="#FEF0AE"/>
<stop offset="1" stop-color="#FAC600"/>
</linearGradient>
<linearGradient id="paint9_linear_559_1819" x1="6.22666" y1="4.34814" x2="4.86733" y2="4.34814" gradientUnits="userSpaceOnUse">
<stop stop-color="#FE9738" stop-opacity="0"/>
<stop offset="1" stop-color="#FE9738"/>
</linearGradient>
<linearGradient id="paint10_linear_559_1819" x1="5.92844" y1="4.58116" x2="7.41621" y2="5.05872" gradientUnits="userSpaceOnUse">
<stop stop-color="#FE9738" stop-opacity="0"/>
<stop offset="1" stop-color="#FE9738"/>
</linearGradient>
<linearGradient id="paint11_linear_559_1819" x1="5.20081" y1="5.6887" x2="5.20081" y2="8.79407" gradientUnits="userSpaceOnUse">
<stop stop-color="#FE9738" stop-opacity="0"/>
<stop offset="1" stop-color="#FE9738"/>
</linearGradient>
<linearGradient id="paint12_linear_559_1819" x1="7.03164" y1="7.8498" x2="8.42599" y2="8.82704" gradientUnits="userSpaceOnUse">
<stop stop-color="#FEF0AE"/>
<stop offset="1" stop-color="#FAC600"/>
</linearGradient>
<linearGradient id="paint13_linear_559_1819" x1="8.49534" y1="8.87608" x2="7.4897" y2="8.17127" gradientUnits="userSpaceOnUse">
<stop stop-color="#FE9738" stop-opacity="0"/>
<stop offset="1" stop-color="#FE9738"/>
</linearGradient>
<linearGradient id="paint14_linear_559_1819" x1="8.15394" y1="8.89385" x2="9.00702" y2="10.0186" gradientUnits="userSpaceOnUse">
<stop stop-color="#FE9738" stop-opacity="0"/>
<stop offset="1" stop-color="#FE9738"/>
</linearGradient>
<linearGradient id="paint15_linear_559_1819" x1="7.0414" y1="9.33612" x2="5.4312" y2="11.6336" gradientUnits="userSpaceOnUse">
<stop stop-color="#FE9738" stop-opacity="0"/>
<stop offset="1" stop-color="#FE9738"/>
</linearGradient>
<linearGradient id="paint16_linear_559_1819" x1="3.36801" y1="7.85615" x2="1.9737" y2="8.83336" gradientUnits="userSpaceOnUse">
<stop stop-color="#FEF0AE"/>
<stop offset="1" stop-color="#FAC600"/>
</linearGradient>
<linearGradient id="paint17_linear_559_1819" x1="1.90407" y1="8.88239" x2="2.90975" y2="8.17755" gradientUnits="userSpaceOnUse">
<stop stop-color="#FE9738" stop-opacity="0"/>
<stop offset="1" stop-color="#FE9738"/>
</linearGradient>
<linearGradient id="paint18_linear_559_1819" x1="2.24547" y1="8.90016" x2="1.39239" y2="10.0249" gradientUnits="userSpaceOnUse">
<stop stop-color="#FE9738" stop-opacity="0"/>
<stop offset="1" stop-color="#FE9738"/>
</linearGradient>
<linearGradient id="paint19_linear_559_1819" x1="3.35827" y1="9.34241" x2="4.96848" y2="11.6399" gradientUnits="userSpaceOnUse">
<stop stop-color="#FE9738" stop-opacity="0"/>
<stop offset="1" stop-color="#FE9738"/>
</linearGradient>
<linearGradient id="paint20_linear_559_1819" x1="7.02988" y1="11.9524" x2="8.42418" y2="12.9296" gradientUnits="userSpaceOnUse">
<stop stop-color="#FEF0AE"/>
<stop offset="1" stop-color="#FAC600"/>
</linearGradient>
<linearGradient id="paint21_linear_559_1819" x1="8.4936" y1="12.9786" x2="7.48792" y2="12.2738" gradientUnits="userSpaceOnUse">
<stop stop-color="#FE9738" stop-opacity="0"/>
<stop offset="1" stop-color="#FE9738"/>
</linearGradient>
<linearGradient id="paint22_linear_559_1819" x1="8.15216" y1="12.9964" x2="9.00524" y2="14.1211" gradientUnits="userSpaceOnUse">
<stop stop-color="#FE9738" stop-opacity="0"/>
<stop offset="1" stop-color="#FE9738"/>
</linearGradient>
<linearGradient id="paint23_linear_559_1819" x1="7.03962" y1="13.4386" x2="5.42942" y2="15.7361" gradientUnits="userSpaceOnUse">
<stop stop-color="#FE9738" stop-opacity="0"/>
<stop offset="1" stop-color="#FE9738"/>
</linearGradient>
<linearGradient id="paint24_linear_559_1819" x1="3.36979" y1="11.9587" x2="1.97548" y2="12.9359" gradientUnits="userSpaceOnUse">
<stop stop-color="#FEF0AE"/>
<stop offset="1" stop-color="#FAC600"/>
</linearGradient>
<linearGradient id="paint25_linear_559_1819" x1="1.90585" y1="12.9849" x2="2.91153" y2="12.2801" gradientUnits="userSpaceOnUse">
<stop stop-color="#FE9738" stop-opacity="0"/>
<stop offset="1" stop-color="#FE9738"/>
</linearGradient>
<linearGradient id="paint26_linear_559_1819" x1="2.24725" y1="13.0027" x2="1.39417" y2="14.1274" gradientUnits="userSpaceOnUse">
<stop stop-color="#FE9738" stop-opacity="0"/>
<stop offset="1" stop-color="#FE9738"/>
</linearGradient>
<linearGradient id="paint27_linear_559_1819" x1="3.36005" y1="13.4449" x2="4.97026" y2="15.7424" gradientUnits="userSpaceOnUse">
<stop stop-color="#FE9738" stop-opacity="0"/>
<stop offset="1" stop-color="#FE9738"/>
</linearGradient>
<linearGradient id="paint28_linear_559_1819" x1="7.0281" y1="16.0549" x2="8.4224" y2="17.0321" gradientUnits="userSpaceOnUse">
<stop stop-color="#FEF0AE"/>
<stop offset="1" stop-color="#FAC600"/>
</linearGradient>
<linearGradient id="paint29_linear_559_1819" x1="8.49182" y1="17.0812" x2="7.48614" y2="16.3763" gradientUnits="userSpaceOnUse">
<stop stop-color="#FE9738" stop-opacity="0"/>
<stop offset="1" stop-color="#FE9738"/>
</linearGradient>
<linearGradient id="paint30_linear_559_1819" x1="8.15035" y1="17.0989" x2="9.00343" y2="18.2237" gradientUnits="userSpaceOnUse">
<stop stop-color="#FE9738" stop-opacity="0"/>
<stop offset="1" stop-color="#FE9738"/>
</linearGradient>
<linearGradient id="paint31_linear_559_1819" x1="7.03784" y1="17.5412" x2="5.42764" y2="19.8387" gradientUnits="userSpaceOnUse">
<stop stop-color="#FE9738" stop-opacity="0"/>
<stop offset="1" stop-color="#FE9738"/>
</linearGradient>
<linearGradient id="paint32_linear_559_1819" x1="3.37157" y1="16.0612" x2="1.97722" y2="17.0384" gradientUnits="userSpaceOnUse">
<stop stop-color="#FEF0AE"/>
<stop offset="1" stop-color="#FAC600"/>
</linearGradient>
<linearGradient id="paint33_linear_559_1819" x1="1.90763" y1="17.0874" x2="2.91327" y2="16.3826" gradientUnits="userSpaceOnUse">
<stop stop-color="#FE9738" stop-opacity="0"/>
<stop offset="1" stop-color="#FE9738"/>
</linearGradient>
<linearGradient id="paint34_linear_559_1819" x1="2.24906" y1="17.1053" x2="1.39598" y2="18.23" gradientUnits="userSpaceOnUse">
<stop stop-color="#FE9738" stop-opacity="0"/>
<stop offset="1" stop-color="#FE9738"/>
</linearGradient>
<linearGradient id="paint35_linear_559_1819" x1="3.36183" y1="17.5475" x2="4.97204" y2="19.8449" gradientUnits="userSpaceOnUse">
<stop stop-color="#FE9738" stop-opacity="0"/>
<stop offset="1" stop-color="#FE9738"/>
</linearGradient>
<linearGradient id="paint36_linear_559_1819" x1="14.293" y1="16.0284" x2="15.5185" y2="16.0284" gradientUnits="userSpaceOnUse">
<stop stop-color="#FEF0AE"/>
<stop offset="1" stop-color="#FAC600"/>
</linearGradient>
<linearGradient id="paint37_linear_559_1819" x1="14.7274" y1="21.2082" x2="15.4966" y2="21.2082" gradientUnits="userSpaceOnUse">
<stop stop-color="#FE9738" stop-opacity="0"/>
<stop offset="1" stop-color="#FE9738"/>
</linearGradient>
<linearGradient id="paint38_linear_559_1819" x1="14.8579" y1="21.0888" x2="14.8579" y2="19.3116" gradientUnits="userSpaceOnUse">
<stop stop-color="#FE9738" stop-opacity="0"/>
<stop offset="1" stop-color="#FE9738"/>
</linearGradient>
<linearGradient id="paint39_linear_559_1819" x1="14.8528" y1="9.62719" x2="14.8528" y2="8.78034" gradientUnits="userSpaceOnUse">
<stop stop-color="#FE9738" stop-opacity="0"/>
<stop offset="1" stop-color="#FE9738"/>
</linearGradient>
<linearGradient id="paint40_linear_559_1819" x1="14.8528" y1="13.7147" x2="14.8528" y2="11.6628" gradientUnits="userSpaceOnUse">
<stop stop-color="#FE9738" stop-opacity="0"/>
<stop offset="1" stop-color="#FE9738"/>
</linearGradient>
<linearGradient id="paint41_linear_559_1819" x1="14.7275" y1="12.1553" x2="15.2454" y2="12.1553" gradientUnits="userSpaceOnUse">
<stop stop-color="#FE9738" stop-opacity="0"/>
<stop offset="1" stop-color="#FE9738"/>
</linearGradient>
<linearGradient id="paint42_linear_559_1819" x1="14.8528" y1="17.7694" x2="14.8528" y2="15.7175" gradientUnits="userSpaceOnUse">
<stop stop-color="#FE9738" stop-opacity="0"/>
<stop offset="1" stop-color="#FE9738"/>
</linearGradient>
<linearGradient id="paint43_linear_559_1819" x1="14.6439" y1="16.21" x2="15.3141" y2="16.21" gradientUnits="userSpaceOnUse">
<stop stop-color="#FE9738" stop-opacity="0"/>
<stop offset="1" stop-color="#FE9738"/>
</linearGradient>
<linearGradient id="paint44_linear_559_1819" x1="13.8465" y1="4.34794" x2="15.7312" y2="4.34794" gradientUnits="userSpaceOnUse">
<stop stop-color="#FEF0AE"/>
<stop offset="1" stop-color="#FAC600"/>
</linearGradient>
<linearGradient id="paint45_linear_559_1819" x1="15.8253" y1="4.34814" x2="14.466" y2="4.34814" gradientUnits="userSpaceOnUse">
<stop stop-color="#FE9738" stop-opacity="0"/>
<stop offset="1" stop-color="#FE9738"/>
</linearGradient>
<linearGradient id="paint46_linear_559_1819" x1="15.5271" y1="4.58116" x2="17.0149" y2="5.05872" gradientUnits="userSpaceOnUse">
<stop stop-color="#FE9738" stop-opacity="0"/>
<stop offset="1" stop-color="#FE9738"/>
</linearGradient>
<linearGradient id="paint47_linear_559_1819" x1="14.7994" y1="5.6887" x2="14.7994" y2="8.79407" gradientUnits="userSpaceOnUse">
<stop stop-color="#FE9738" stop-opacity="0"/>
<stop offset="1" stop-color="#FE9738"/>
</linearGradient>
<linearGradient id="paint48_linear_559_1819" x1="16.6314" y1="7.854" x2="18.0257" y2="8.83121" gradientUnits="userSpaceOnUse">
<stop stop-color="#FEF0AE"/>
<stop offset="1" stop-color="#FAC600"/>
</linearGradient>
<linearGradient id="paint49_linear_559_1819" x1="18.0953" y1="8.88024" x2="17.0897" y2="8.1754" gradientUnits="userSpaceOnUse">
<stop stop-color="#FE9738" stop-opacity="0"/>
<stop offset="1" stop-color="#FE9738"/>
</linearGradient>
<linearGradient id="paint50_linear_559_1819" x1="17.7539" y1="8.89801" x2="18.607" y2="10.0228" gradientUnits="userSpaceOnUse">
<stop stop-color="#FE9738" stop-opacity="0"/>
<stop offset="1" stop-color="#FE9738"/>
</linearGradient>
<linearGradient id="paint51_linear_559_1819" x1="16.6412" y1="9.34025" x2="15.031" y2="11.6377" gradientUnits="userSpaceOnUse">
<stop stop-color="#FE9738" stop-opacity="0"/>
<stop offset="1" stop-color="#FE9738"/>
</linearGradient>
<linearGradient id="paint52_linear_559_1819" x1="12.9677" y1="7.85195" x2="11.5734" y2="8.82919" gradientUnits="userSpaceOnUse">
<stop stop-color="#FEF0AE"/>
<stop offset="1" stop-color="#FAC600"/>
</linearGradient>
<linearGradient id="paint53_linear_559_1819" x1="11.5038" y1="8.87823" x2="12.5095" y2="8.17342" gradientUnits="userSpaceOnUse">
<stop stop-color="#FE9738" stop-opacity="0"/>
<stop offset="1" stop-color="#FE9738"/>
</linearGradient>
<linearGradient id="paint54_linear_559_1819" x1="11.8452" y1="8.896" x2="10.9922" y2="10.0207" gradientUnits="userSpaceOnUse">
<stop stop-color="#FE9738" stop-opacity="0"/>
<stop offset="1" stop-color="#FE9738"/>
</linearGradient>
<linearGradient id="paint55_linear_559_1819" x1="12.9581" y1="9.33821" x2="14.5683" y2="11.6357" gradientUnits="userSpaceOnUse">
<stop stop-color="#FE9738" stop-opacity="0"/>
<stop offset="1" stop-color="#FE9738"/>
</linearGradient>
<linearGradient id="paint56_linear_559_1819" x1="16.6296" y1="11.9565" x2="18.0239" y2="12.9338" gradientUnits="userSpaceOnUse">
<stop stop-color="#FEF0AE"/>
<stop offset="1" stop-color="#FAC600"/>
</linearGradient>
<linearGradient id="paint57_linear_559_1819" x1="18.0936" y1="12.9828" x2="17.0879" y2="12.278" gradientUnits="userSpaceOnUse">
<stop stop-color="#FE9738" stop-opacity="0"/>
<stop offset="1" stop-color="#FE9738"/>
</linearGradient>
<linearGradient id="paint58_linear_559_1819" x1="17.7521" y1="13.0006" x2="18.6052" y2="14.1253" gradientUnits="userSpaceOnUse">
<stop stop-color="#FE9738" stop-opacity="0"/>
<stop offset="1" stop-color="#FE9738"/>
</linearGradient>
<linearGradient id="paint59_linear_559_1819" x1="16.6394" y1="13.4428" x2="15.0292" y2="15.7403" gradientUnits="userSpaceOnUse">
<stop stop-color="#FE9738" stop-opacity="0"/>
<stop offset="1" stop-color="#FE9738"/>
</linearGradient>
<linearGradient id="paint60_linear_559_1819" x1="12.9695" y1="11.9545" x2="11.5752" y2="12.9317" gradientUnits="userSpaceOnUse">
<stop stop-color="#FEF0AE"/>
<stop offset="1" stop-color="#FAC600"/>
</linearGradient>
<linearGradient id="paint61_linear_559_1819" x1="11.5056" y1="12.9808" x2="12.5113" y2="12.2759" gradientUnits="userSpaceOnUse">
<stop stop-color="#FE9738" stop-opacity="0"/>
<stop offset="1" stop-color="#FE9738"/>
</linearGradient>
<linearGradient id="paint62_linear_559_1819" x1="11.847" y1="12.9985" x2="10.9939" y2="14.1233" gradientUnits="userSpaceOnUse">
<stop stop-color="#FE9738" stop-opacity="0"/>
<stop offset="1" stop-color="#FE9738"/>
</linearGradient>
<linearGradient id="paint63_linear_559_1819" x1="12.9598" y1="13.4408" x2="14.57" y2="15.7383" gradientUnits="userSpaceOnUse">
<stop stop-color="#FE9738" stop-opacity="0"/>
<stop offset="1" stop-color="#FE9738"/>
</linearGradient>
<linearGradient id="paint64_linear_559_1819" x1="16.6278" y1="16.0591" x2="18.0222" y2="17.0363" gradientUnits="userSpaceOnUse">
<stop stop-color="#FEF0AE"/>
<stop offset="1" stop-color="#FAC600"/>
</linearGradient>
<linearGradient id="paint65_linear_559_1819" x1="18.0918" y1="17.0853" x2="17.0861" y2="16.3805" gradientUnits="userSpaceOnUse">
<stop stop-color="#FE9738" stop-opacity="0"/>
<stop offset="1" stop-color="#FE9738"/>
</linearGradient>
<linearGradient id="paint66_linear_559_1819" x1="17.7504" y1="17.1031" x2="18.6034" y2="18.2278" gradientUnits="userSpaceOnUse">
<stop stop-color="#FE9738" stop-opacity="0"/>
<stop offset="1" stop-color="#FE9738"/>
</linearGradient>
<linearGradient id="paint67_linear_559_1819" x1="16.6377" y1="17.5453" x2="15.0274" y2="19.8428" gradientUnits="userSpaceOnUse">
<stop stop-color="#FE9738" stop-opacity="0"/>
<stop offset="1" stop-color="#FE9738"/>
</linearGradient>
<linearGradient id="paint68_linear_559_1819" x1="12.9713" y1="16.0571" x2="11.577" y2="17.0343" gradientUnits="userSpaceOnUse">
<stop stop-color="#FEF0AE"/>
<stop offset="1" stop-color="#FAC600"/>
</linearGradient>
<linearGradient id="paint69_linear_559_1819" x1="11.5074" y1="17.0833" x2="12.513" y2="16.3785" gradientUnits="userSpaceOnUse">
<stop stop-color="#FE9738" stop-opacity="0"/>
<stop offset="1" stop-color="#FE9738"/>
</linearGradient>
<linearGradient id="paint70_linear_559_1819" x1="11.8488" y1="17.1011" x2="10.9957" y2="18.2258" gradientUnits="userSpaceOnUse">
<stop stop-color="#FE9738" stop-opacity="0"/>
<stop offset="1" stop-color="#FE9738"/>
</linearGradient>
<linearGradient id="paint71_linear_559_1819" x1="12.9616" y1="17.5433" x2="14.5718" y2="19.8408" gradientUnits="userSpaceOnUse">
<stop stop-color="#FE9738" stop-opacity="0"/>
<stop offset="1" stop-color="#FE9738"/>
</linearGradient>
</defs>
</svg>
