<svg width="20" height="21" viewBox="0 0 20 21" fill="none" xmlns="http://www.w3.org/2000/svg">
<path d="M18.3333 6.79183C18.3333 7.34183 17.8833 7.79183 17.3333 7.79183H2.66663C2.11663 7.79183 1.66663 7.34183 1.66663 6.79183V6.7835C1.66663 4.87516 3.20829 3.3335 5.11663 3.3335H14.875C16.7833 3.3335 18.3333 4.8835 18.3333 6.79183Z" fill="currentColor"/>
<path d="M1.66663 10.0415V14.2165C1.66663 16.1248 3.20829 17.6665 5.11663 17.6665H14.875C16.7833 17.6665 18.3333 16.1165 18.3333 14.2082V10.0415C18.3333 9.4915 17.8833 9.0415 17.3333 9.0415H2.66663C2.11663 9.0415 1.66663 9.4915 1.66663 10.0415ZM6.66663 14.8748H4.99996C4.65829 14.8748 4.37496 14.5915 4.37496 14.2498C4.37496 13.9082 4.65829 13.6248 4.99996 13.6248H6.66663C7.00829 13.6248 7.29163 13.9082 7.29163 14.2498C7.29163 14.5915 7.00829 14.8748 6.66663 14.8748ZM12.0833 14.8748H8.74996C8.40829 14.8748 8.12496 14.5915 8.12496 14.2498C8.12496 13.9082 8.40829 13.6248 8.74996 13.6248H12.0833C12.425 13.6248 12.7083 13.9082 12.7083 14.2498C12.7083 14.5915 12.425 14.8748 12.0833 14.8748Z" fill="currentColor"/>
</svg>
