<svg width="24" height="24" viewBox="0 0 24 24" fill="none" xmlns="http://www.w3.org/2000/svg">
<g clip-path="url(#clip0_559_1793)">
<path d="M17.9827 8.65093L5.54461 21.0577C4.83769 21.7629 3.67702 21.7484 2.95224 21.0255C2.22745 20.3025 2.21297 19.1447 2.91989 18.4396L15.3579 6.03278L13.6407 4.31982L1.20267 16.7267C-0.42928 18.3545 -0.395858 21.0272 1.27735 22.6961C2.95055 24.3651 5.62992 24.3985 7.26188 22.7706L19.6999 10.3638L17.9827 8.65093Z" fill="#ADE194"/>
<path d="M9.22483 5.81766C9.7226 7.57927 12.005 9.43599 12.005 9.43599C12.005 9.43599 12.9993 6.73369 12.5016 4.97208C12.0038 3.21047 10.0068 2.36377 10.0068 2.36377C10.0068 2.36377 8.72707 4.05605 9.22483 5.81766Z" fill="#09A76D"/>
<path d="M16.1701 6.21972C15.1206 8.06932 12.0058 9.44149 12.0058 9.44149C12.0058 9.44149 11.607 6.02702 12.6564 4.17743C13.7059 2.32783 16.219 2.01611 16.219 2.01611C16.219 2.01611 17.2196 4.37013 16.1701 6.21972Z" fill="#57BE92"/>
<path d="M18.198 14.7685C16.4319 14.272 14.5706 11.9953 14.5706 11.9953C14.5706 11.9953 17.2797 11.0035 19.0457 11.5C20.8118 11.9965 21.6606 13.9885 21.6606 13.9885C21.6606 13.9885 19.964 15.265 18.198 14.7685Z" fill="#09A76D"/>
<path d="M17.7951 7.84057C15.9408 8.88743 14.5652 11.9944 14.5652 11.9944C14.5652 11.9944 17.9882 12.3923 19.8425 11.3454C21.6968 10.2986 22.0093 7.79178 22.0093 7.79178C22.0093 7.79178 19.6493 6.79371 17.7951 7.84057Z" fill="#57BE92"/>
<path d="M1.40676 19.9553L18.0097 3.39404L20.6278 6.0055L4.02478 22.5668C3.31964 23.2702 2.16196 23.2558 1.43901 22.5346C0.716057 21.8135 0.70162 20.6587 1.40676 19.9553Z" fill="#D5EFC8"/>
<path d="M18.0097 3.39404L17.3586 4.04354L18.6962 5.37775L2.09316 21.9391C1.86858 22.1631 1.59802 22.314 1.3103 22.3927C1.35038 22.4416 1.39322 22.489 1.43897 22.5347C2.16193 23.2558 3.3196 23.2702 4.02474 22.5669L20.6277 6.00554L18.0097 3.39404Z" fill="#C1E9AF"/>
<path d="M20.8843 9.08695C19.061 9.06426 16.6804 7.33626 16.6804 7.33626C16.6804 7.33626 19.0185 5.66699 20.8417 5.68968C22.665 5.71237 24.0002 7.42739 24.0002 7.42739C24.0002 7.42739 22.7076 9.10968 20.8843 9.08695Z" fill="#09A76D"/>
<path d="M14.9204 3.13841C14.9431 4.95712 16.6755 7.33171 16.6755 7.33171C16.6755 7.33171 18.349 4.99954 18.3262 3.18084C18.3034 1.36213 16.5842 0.0302734 16.5842 0.0302734C16.5842 0.0302734 14.8977 1.31966 14.9204 3.13841Z" fill="#09A76D"/>
<path d="M21.565 5.33242C20.0611 6.83261 16.6748 7.33726 16.6748 7.33726C16.6748 7.33726 17.1807 3.9595 18.6847 2.45931C20.1887 0.959123 22.7127 1.31458 22.7127 1.31458C22.7127 1.31458 23.069 3.83223 21.565 5.33242Z" fill="#57BE92"/>
<path d="M22.7127 1.31448C22.7127 1.31448 22.1044 1.22898 21.3072 1.31917C21.213 2.14337 20.9294 3.16909 20.1646 3.93189C19.3991 4.69553 18.146 5.20107 17.0999 5.51354C16.7971 6.52126 16.6748 7.33712 16.6748 7.33712C16.6748 7.33712 20.0611 6.83246 21.565 5.33228C23.069 3.83209 22.7127 1.31448 22.7127 1.31448Z" fill="#22B37F"/>
</g>
<defs>
<clipPath id="clip0_559_1793">
<rect width="24" height="24" fill="white"/>
</clipPath>
</defs>
</svg>
