<svg width="24" height="24" viewBox="0 0 24 24" fill="none" xmlns="http://www.w3.org/2000/svg">
<path d="M8.67429 18.853L9.48709 21.2054C9.71814 21.1259 9.97134 21.1413 10.191 21.2485C10.4106 21.3556 10.5787 21.5456 10.6583 21.7766C10.7378 22.0077 10.7224 22.2609 10.6152 22.4805C10.5081 22.7002 10.3181 22.8683 10.0871 22.9478C9.88084 23.0192 9.65578 23.014 9.45308 22.933C9.34118 22.8913 9.21825 22.8898 9.10536 22.9288C8.99247 22.9678 8.89664 23.0448 8.83429 23.1466C8.72469 23.3354 8.55094 23.4785 8.34468 23.5498C8.11363 23.6297 7.86032 23.6144 7.64049 23.5075C7.42066 23.4006 7.25231 23.2107 7.17248 22.9796C7.09265 22.7486 7.10788 22.4953 7.21481 22.2754C7.32175 22.0556 7.51163 21.8873 7.74268 21.8074L6.93188 19.455L8.67429 18.853Z" fill="#E2C9AF"/>
<path d="M17.0681 19.455L16.2553 21.8074C16.3697 21.8468 16.4752 21.9084 16.5659 21.9885C16.6565 22.0687 16.7304 22.166 16.7835 22.2747C16.8365 22.3835 16.8676 22.5016 16.875 22.6224C16.8824 22.7432 16.8659 22.8642 16.8265 22.9786C16.7871 23.093 16.7256 23.1986 16.6454 23.2892C16.5652 23.3798 16.468 23.4537 16.3592 23.5068C16.2505 23.5598 16.1323 23.5909 16.0115 23.5983C15.8908 23.6057 15.7697 23.5892 15.6553 23.5498C15.4491 23.4785 15.2753 23.3354 15.1657 23.1466C15.1034 23.0448 15.0075 22.9678 14.8946 22.9288C14.7817 22.8898 14.6588 22.8913 14.5469 22.933C14.3442 23.014 14.1192 23.0192 13.9129 22.9478C13.7985 22.9084 13.693 22.8469 13.6024 22.7667C13.5117 22.6865 13.4378 22.5893 13.3847 22.4805C13.2776 22.2609 13.2621 22.0077 13.3417 21.7766C13.4213 21.5456 13.5894 21.3556 13.809 21.2485C14.0287 21.1413 14.2819 21.1259 14.5129 21.2054L15.3257 18.853L17.0681 19.455Z" fill="#E2C9AF"/>
<path d="M5.19989 5.59994C4.96229 3.87994 3.99989 3.19994 3.99989 3.19994C3.67589 5.05154 2.66309 8.96394 1.71989 8.79594C0.59549 8.59194 1.63189 2.07314 1.73589 1.40914C1.75476 1.25693 1.80399 1.11006 1.88064 0.97722C1.9573 0.84438 2.05983 0.728272 2.18217 0.635772C2.30451 0.543272 2.44417 0.476261 2.59287 0.438706C2.74157 0.401152 2.8963 0.393818 3.04789 0.417138C4.33763 0.687708 5.58647 1.12568 6.76269 1.71994L5.19989 5.59994Z" fill="#EA9649"/>
<path d="M18.7999 5.60003C19.0375 3.88003 19.9999 3.20003 19.9999 3.20003C20.3239 5.05163 21.3367 8.96324 22.2799 8.79524C23.4043 8.59124 22.3679 2.07523 22.2639 1.40923C22.2449 1.25706 22.1957 1.11024 22.119 0.977441C22.0423 0.844646 21.9398 0.728585 21.8174 0.636126C21.6951 0.543668 21.5555 0.476691 21.4068 0.439161C21.2581 0.401632 21.1034 0.394312 20.9519 0.417634C19.6622 0.688178 18.4133 1.12601 17.2371 1.72003L18.7999 5.60003Z" fill="#EA9649"/>
<path d="M9.84783 16.6999C9.56383 17.9479 8.88783 18.9719 7.86383 19.3279C5.93583 19.9919 3.51583 18.0359 2.68383 15.6319C1.85183 13.2279 2.92783 11.2799 4.85583 10.6159C5.24227 10.4823 5.64708 10.4095 6.05583 10.3999L9.84783 16.6999Z" fill="#EA9649"/>
<path d="M17.9439 10.3999C18.3526 10.4095 18.7574 10.4823 19.1439 10.6159C21.0719 11.2799 22.1479 13.2239 21.3159 15.6319C20.4839 18.0399 18.0639 19.9919 16.1359 19.3279C15.1119 18.9719 14.4359 17.9479 14.1519 16.6999L17.9439 10.3999Z" fill="#EA9649"/>
<path d="M18.8 5.5999C18.8 10.3999 15.4 17.5999 12 17.5999C8.59995 17.5999 5.19995 10.3999 5.19995 5.5999C5.19995 2.7279 7.29075 0.399903 9.87475 0.399903C10.44 0.399607 10.9997 0.512351 11.5208 0.731503C11.6726 0.795684 11.8359 0.828753 12.0008 0.828753C12.1656 0.828753 12.3289 0.795684 12.4808 0.731503C13.0012 0.512612 13.5601 0.399873 14.1248 0.399903C16.7092 0.399903 18.8 2.7279 18.8 5.5999Z" fill="#EFAB48"/>
</svg>
