<svg width="15" height="16" viewBox="0 0 15 16" fill="none" xmlns="http://www.w3.org/2000/svg">
<path d="M7.5 1.75C4.05625 1.75 1.25 4.55625 1.25 8C1.25 11.4438 4.05625 14.25 7.5 14.25C10.9438 14.25 13.75 11.4438 13.75 8C13.75 4.55625 10.9438 1.75 7.5 1.75ZM10.2188 10.2312C10.1313 10.3812 9.975 10.4625 9.8125 10.4625C9.73125 10.4625 9.65 10.4438 9.575 10.3938L7.6375 9.2375C7.15625 8.95 6.8 8.31875 6.8 7.7625V5.2C6.8 4.94375 7.0125 4.73125 7.26875 4.73125C7.525 4.73125 7.7375 4.94375 7.7375 5.2V7.7625C7.7375 7.9875 7.925 8.31875 8.11875 8.43125L10.0562 9.5875C10.2812 9.71875 10.3562 10.0062 10.2188 10.2312Z" fill="currentColor"/>
</svg>
