<svg width="26" height="27" viewBox="0 0 26 27" fill="none" xmlns="http://www.w3.org/2000/svg">
<path d="M18.4167 24.3335H7.58337C7.13921 24.3335 6.77087 23.9652 6.77087 23.521C6.77087 23.0768 7.13921 22.7085 7.58337 22.7085H18.4167C18.8609 22.7085 19.2292 23.0768 19.2292 23.521C19.2292 23.9652 18.8609 24.3335 18.4167 24.3335Z" fill="currentColor"/>
<path d="M22.0458 6.47996L17.7125 9.57829C17.1383 9.98996 16.315 9.74079 16.0658 9.07996L14.0183 3.61996C13.6717 2.67746 12.3392 2.67746 11.9925 3.61996L9.93416 9.06913C9.68499 9.74079 8.87249 9.98996 8.29833 9.56746L3.96499 6.46913C3.09833 5.86246 1.94999 6.71829 2.30749 7.72579L6.81416 20.3466C6.96583 20.78 7.37749 21.0616 7.83249 21.0616H18.1567C18.6117 21.0616 19.0233 20.7691 19.175 20.3466L23.6817 7.72579C24.05 6.71829 22.9017 5.86246 22.0458 6.47996ZM15.7083 16.4791H10.2917C9.84749 16.4791 9.47916 16.1108 9.47916 15.6666C9.47916 15.2225 9.84749 14.8541 10.2917 14.8541H15.7083C16.1525 14.8541 16.5208 15.2225 16.5208 15.6666C16.5208 16.1108 16.1525 16.4791 15.7083 16.4791Z" fill="currentColor"/>
</svg>
