<svg width="20" height="21" viewBox="0 0 20 21" fill="none" xmlns="http://www.w3.org/2000/svg">
<path d="M11.2417 11.6499H9.16667C8.91667 11.6499 8.71667 11.8499 8.71667 12.0999C8.71667 12.3499 8.91667 12.5499 9.16667 12.5499H11.2417C11.4917 12.5499 11.6917 12.3499 11.6917 12.0999C11.6917 11.8499 11.4917 11.6499 11.2417 11.6499Z" fill="currentColor"/>
<path d="M7.86667 11.6499H6.825C6.575 11.6499 6.375 11.8499 6.375 12.0999C6.375 12.3499 6.575 12.5499 6.825 12.5499H7.86667C8.11667 12.5499 8.31667 12.3499 8.31667 12.0999C8.31667 11.8499 8.11667 11.6499 7.86667 11.6499Z" fill="currentColor"/>
<path d="M15.45 4.01686L10.8667 2.3002C10.3917 2.1252 9.61671 2.1252 9.14171 2.3002L4.55837 4.01686C3.67504 4.35019 2.95837 5.38353 2.95837 6.32519V13.0752C2.95837 13.7502 3.40004 14.6419 3.94171 15.0419L8.52504 18.4669C9.33337 19.0752 10.6584 19.0752 11.4667 18.4669L16.05 15.0419C16.5917 14.6335 17.0334 13.7502 17.0334 13.0752V6.32519C17.0417 5.38353 16.325 4.35019 15.45 4.01686ZM15.1417 11.8752C15.125 13.6002 14.65 14.0335 12.8584 14.0335H7.15004C5.32504 14.0335 4.86671 13.5835 4.86671 11.7752V9.83353C4.86671 9.60019 5.05004 9.41686 5.28337 9.41686H14.725C14.9584 9.41686 15.1417 9.60019 15.1417 9.83353V11.8752ZM15.1417 8.09186C15.1417 8.32519 14.9584 8.50853 14.725 8.50853H5.28337C5.05004 8.50853 4.86671 8.32519 4.86671 8.09186V7.55853C4.86671 5.9252 5.25004 5.4002 6.67504 5.30853C6.82504 5.30853 6.98337 5.3002 7.15004 5.3002H12.8584C14.6834 5.3002 15.1417 5.7502 15.1417 7.55853V8.09186Z" fill="currentColor"/>
</svg>
