<svg width="24" height="24" viewBox="0 0 24 24" fill="none" xmlns="http://www.w3.org/2000/svg">
<path d="M1.82849 19.1273C1.38824 19.5676 1.39349 20.2838 1.83374 20.7233L3.27599 22.1656C3.71624 22.6058 4.43174 22.6111 4.87199 22.1708L5.48174 21.5611L2.43824 18.5176L1.82849 19.1273Z" fill="currentColor"/>
<path d="M22.1663 3.27605L20.724 1.8338C20.2838 1.39355 19.5683 1.3883 19.128 1.82855L18.5175 2.4383L21.5618 5.48255L22.1715 4.8728C22.6118 4.43255 22.6065 3.7163 22.1663 3.27605Z" fill="currentColor"/>
<path d="M2.34826 15.2245C1.75951 15.8132 1.75426 16.7732 2.34826 17.3672L6.63301 21.652C7.22701 22.246 8.18701 22.2407 8.77576 21.652L9.26926 21.1585L2.84176 14.731L2.34826 15.2245Z" fill="currentColor"/>
<path d="M14.2328 3.40449C13.662 2.83299 12.6653 2.83224 12.0938 3.40449L11.0783 4.41999C10.4895 5.00949 10.4895 5.96874 11.0783 6.55824L12.738 8.21874L8.21702 12.7397L6.55652 11.08C5.96777 10.4912 5.00852 10.4905 4.41827 11.08L3.40352 12.0955C3.11777 12.3812 2.96027 12.7607 2.96027 13.1642C2.96027 13.5685 3.11777 13.9487 3.40352 14.2337L9.76727 20.5975C10.053 20.8832 10.4325 21.0407 10.8368 21.0407C11.241 21.0407 11.6205 20.8832 11.9055 20.5975L12.921 19.582C13.5098 18.9925 13.5105 18.034 12.9218 17.4437L11.2613 15.7832L15.7823 11.2622L17.4428 12.9227C18.1733 13.6532 19.125 13.3787 19.581 12.9227L20.5958 11.9072C21.318 11.1872 21.0293 10.2002 20.5965 9.76824L14.2328 3.40449Z" fill="currentColor"/>
<path d="M17.367 2.34832C16.773 1.75432 15.813 1.75957 15.2242 2.34832L14.7307 2.84182L21.1582 9.26932L21.6517 8.77582C22.2405 8.18707 22.2457 7.22707 21.6517 6.63307L17.367 2.34832Z" fill="currentColor"/>
</svg>
