<svg width="30" height="30" viewBox="0 0 30 30" fill="none" xmlns="http://www.w3.org/2000/svg">
<g clip-path="url(#clip0_559_2009)">
<path d="M19.6875 15.4688C19.6875 22.1995 15.4903 25.3125 10.3125 25.3125C5.13469 25.3125 0.9375 22.1995 0.9375 15.4688C0.9375 8.73797 5.625 0.9375 10.3125 0.9375C15 0.9375 19.6875 8.73797 19.6875 15.4688Z" fill="#FFD2B9"/>
<path d="M19.6875 15.4688C19.6875 10.2844 16.9059 4.47 13.4864 2.06953C13.065 1.94262 12.6276 1.87711 12.1875 1.875C7.5 1.875 2.8125 9.67547 2.8125 16.4062C2.8125 20.4525 4.33547 23.182 6.67031 24.7228C7.84218 25.1244 9.07379 25.3238 10.3125 25.3125C15.4903 25.3125 19.6875 22.1995 19.6875 15.4688Z" fill="#FFC599"/>
<path d="M26.6919 23.7654C23.3263 29.592 18.1349 30.1873 13.6508 27.6003C9.16678 25.0132 7.08835 20.217 10.453 14.3904C13.8177 8.56385 21.778 4.14963 25.8374 6.49338C29.8968 8.83713 30.0571 17.9337 26.6919 23.7654Z" fill="#F5E6B4"/>
<path d="M18.7031 28.125C17.0847 28.0868 15.5044 27.6259 14.1192 26.7881C11.9995 25.5647 10.5778 23.8903 10.0082 21.9455C9.37447 19.7836 9.79775 17.3986 11.2654 14.8565C13.791 10.4826 19.2576 6.78749 23.2031 6.78749C23.9584 6.76534 24.7061 6.94322 25.3706 7.30311C26.9643 8.22421 27.9913 10.6739 28.1137 13.8562C28.2346 17.1462 27.4626 20.4075 25.8796 23.294C24.0552 26.4548 21.5737 28.125 18.7031 28.125Z" fill="#FFF0CD"/>
<path d="M18.5728 24.7007C21.6794 24.7007 24.1978 22.1823 24.1978 19.0757C24.1978 15.9691 21.6794 13.4507 18.5728 13.4507C15.4662 13.4507 12.9478 15.9691 12.9478 19.0757C12.9478 22.1823 15.4662 24.7007 18.5728 24.7007Z" fill="#FFCC5A"/>
</g>
<defs>
<clipPath id="clip0_559_2009">
<rect width="30" height="30" fill="white"/>
</clipPath>
</defs>
</svg>
