<svg width="20" height="21" viewBox="0 0 20 21" fill="none" xmlns="http://www.w3.org/2000/svg">
<path d="M17.725 8.15001C17.4833 7.76668 17.225 7.40834 16.9583 7.07501C16.65 6.68334 16.0667 6.65001 15.7167 7.00001L13.2167 9.50001C13.4 10.05 13.4333 10.6833 13.2667 11.3417C12.975 12.5167 12.025 13.4667 10.85 13.7583C10.1917 13.925 9.55834 13.8917 9.00834 13.7083C9.00834 13.7083 7.81667 14.9 6.95834 15.7583C6.54167 16.175 6.67501 16.9083 7.23334 17.125C8.12501 17.4667 9.05001 17.6417 10 17.6417C11.4833 17.6417 12.925 17.2083 14.2417 16.4C15.5833 15.5667 16.7917 14.3417 17.7667 12.7833C18.5583 11.525 18.5167 9.40834 17.725 8.15001Z" fill="currentColor"/>
<path d="M11.6833 8.81667L8.31667 12.1833C7.89167 11.75 7.61667 11.15 7.61667 10.5C7.61667 9.19167 8.68334 8.11667 10 8.11667C10.65 8.11667 11.25 8.39167 11.6833 8.81667Z" fill="currentColor"/>
<path d="M15.2083 5.29167L12.3833 8.11667C11.775 7.5 10.9333 7.13334 9.99999 7.13334C8.13332 7.13334 6.63332 8.64167 6.63332 10.5C6.63332 11.4333 7.00832 12.275 7.61666 12.8833L4.79999 15.7083H4.79166C3.86666 14.9583 3.01666 14 2.29166 12.8667C1.45832 11.5583 1.45832 9.43334 2.29166 8.125C3.25832 6.60834 4.44166 5.41667 5.75832 4.6C7.07499 3.8 8.51666 3.35834 9.99999 3.35834C11.8583 3.35834 13.6583 4.04167 15.2083 5.29167Z" fill="currentColor"/>
<path d="M12.3833 10.5C12.3833 11.8083 11.3167 12.8833 10 12.8833C9.95 12.8833 9.90834 12.8833 9.85834 12.8667L12.3667 10.3583C12.3833 10.4083 12.3833 10.45 12.3833 10.5Z" fill="currentColor"/>
<path d="M18.1417 2.35834C17.8917 2.10834 17.4833 2.10834 17.2333 2.35834L1.85834 17.7417C1.60834 17.9917 1.60834 18.4 1.85834 18.65C1.98334 18.7667 2.14167 18.8333 2.30834 18.8333C2.475 18.8333 2.63334 18.7667 2.75834 18.6417L18.1417 3.25834C18.4 3.00834 18.4 2.60834 18.1417 2.35834Z" fill="currentColor"/>
</svg>
