<svg width="20" height="21" viewBox="0 0 20 21" fill="none" xmlns="http://www.w3.org/2000/svg">
<path d="M17.7084 8.125C15.7834 5.1 12.9667 3.35834 10 3.35834C8.51669 3.35834 7.07502 3.79167 5.75835 4.6C4.44169 5.41667 3.25835 6.60834 2.29169 8.125C1.45835 9.43334 1.45835 11.5583 2.29169 12.8667C4.21669 15.9 7.03335 17.6333 10 17.6333C11.4834 17.6333 12.925 17.2 14.2417 16.3917C15.5584 15.575 16.7417 14.3833 17.7084 12.8667C18.5417 11.5667 18.5417 9.43334 17.7084 8.125ZM10 13.8667C8.13335 13.8667 6.63335 12.3583 6.63335 10.5C6.63335 8.64167 8.13335 7.13334 10 7.13334C11.8667 7.13334 13.3667 8.64167 13.3667 10.5C13.3667 12.3583 11.8667 13.8667 10 13.8667Z" fill="currentColor"/>
<path d="M10 8.11667C8.69167 8.11667 7.625 9.18334 7.625 10.5C7.625 11.8083 8.69167 12.875 10 12.875C11.3083 12.875 12.3833 11.8083 12.3833 10.5C12.3833 9.19167 11.3083 8.11667 10 8.11667Z" fill="currentColor"/>
</svg>
