<svg width="25" height="25" viewBox="0 0 25 25" fill="none" xmlns="http://www.w3.org/2000/svg">
<path d="M22.3719 1.40564H2.63001C1.95381 1.40564 1.40564 1.95381 1.40564 2.63001V22.3719C1.40564 23.0481 1.95381 23.5963 2.63001 23.5963H22.3719C23.0481 23.5963 23.5963 23.0481 23.5963 22.3719V2.63001C23.5963 1.95381 23.0481 1.40564 22.3719 1.40564Z" fill="#3D5A98"/>
<path d="M16.715 23.5944V15.0013H19.5988L20.03 11.6525H16.715V9.51501C16.715 8.54564 16.985 7.88376 18.3744 7.88376H20.1481V4.88376C19.2892 4.79441 18.4261 4.75185 17.5625 4.75626C15.0088 4.75626 13.25 6.31251 13.25 9.18314V11.6525H10.3663V15.0013H13.25V23.5944H16.715Z" fill="white"/>
</svg>
