<svg width="24" height="24" viewBox="0 0 24 24" fill="none" xmlns="http://www.w3.org/2000/svg">
<path d="M18.4927 15.7975C18.4927 19.665 15.5858 22.8002 11.9999 22.8002C8.41401 22.8002 5.50708 19.665 5.50708 15.7975C5.50708 11.9301 11.9999 1.2002 11.9999 1.2002C11.9999 1.2002 18.4927 11.9301 18.4927 15.7975Z" fill="url(#paint0_linear_559_1921)"/>
<path opacity="0.5" d="M11.7595 2.05964C11.7595 2.05964 18.2522 12.7895 18.2522 16.657C18.2522 17.1992 18.1895 17.7246 18.0814 18.2315C18.3428 17.4724 18.4926 16.6548 18.4926 15.7976C18.4926 11.9301 11.9998 1.2002 11.9998 1.2002C11.9998 1.2002 6.84839 9.71573 5.7251 14.3082C7.20302 9.59079 11.7595 2.05964 11.7595 2.05964Z" fill="url(#paint1_linear_559_1921)"/>
<path opacity="0.2" d="M5.50708 15.7975C5.50708 19.665 8.41401 22.8002 11.9999 22.8002C14.7196 22.8002 17.0454 20.995 18.0119 18.4364C16.1377 19.7446 13.7752 20.1721 11.9999 18.5148C8.51922 15.2653 11.9999 1.2002 11.9999 1.2002C11.9999 1.2002 5.50708 11.9301 5.50708 15.7975Z" fill="url(#paint2_linear_559_1921)"/>
<path opacity="0.3" d="M5.50708 15.7975C5.50708 19.665 8.41401 22.8002 11.9999 22.8002C14.408 22.8002 16.505 21.3829 17.626 19.2829C13.9928 21.6346 8.71578 20.103 8.8137 15.595C8.97436 8.20138 11.9999 1.2002 11.9999 1.2002C11.9999 1.2002 5.50708 11.9301 5.50708 15.7975Z" fill="url(#paint3_linear_559_1921)"/>
<path opacity="0.3" d="M12.6726 22.2822C9.08673 22.2822 6.1798 19.147 6.1798 15.2795C6.1798 12.0601 10.6762 4.09052 12.184 1.5084C12.0672 1.31156 11.9999 1.2002 11.9999 1.2002C11.9999 1.2002 5.50708 11.9301 5.50708 15.7975C5.50708 19.665 8.41401 22.8002 11.9999 22.8002C13.5712 22.8002 15.0119 22.198 16.135 21.1962C15.1321 21.8804 13.9471 22.2822 12.6726 22.2822Z" fill="url(#paint4_linear_559_1921)"/>
<path opacity="0.7" d="M12.5677 4.47698C12.5677 4.47698 12.3393 13.9577 15.1654 14.313C17.9915 14.6684 13.7495 4.18994 12.5677 4.47698Z" fill="url(#paint5_linear_559_1921)"/>
<path opacity="0.2" d="M12.5632 20.7752C11.86 21.4865 10.7497 21.9489 9.46411 22.2455C10.2432 22.6023 11.1001 22.8002 12 22.8002C15.5859 22.8002 18.4928 19.665 18.4928 15.7975C18.4928 11.9301 12 1.2002 12 1.2002C12 1.2002 15.5898 17.7142 12.5632 20.7752Z" fill="url(#paint6_linear_559_1921)"/>
<path opacity="0.2" d="M6.89429 19.1372C6.89429 19.1372 8.30064 22.5174 11.8349 22.4232C15.3691 22.3291 17.3236 19.4093 17.3236 19.4093C17.3236 19.4093 14.7392 21.3558 11.7609 21.2302C8.78261 21.1046 6.89429 19.1372 6.89429 19.1372Z" fill="url(#paint7_linear_559_1921)"/>
<path opacity="0.2" d="M10.5406 5.37402C10.5406 5.37402 6.91582 12.1162 6.49255 15.8414C6.06924 19.5666 11.2635 21.0422 11.2635 21.0422C11.2635 21.0422 7.51337 18.9515 7.54188 15.4224C7.57035 11.8933 10.5406 5.37402 10.5406 5.37402Z" fill="url(#paint8_linear_559_1921)"/>
<path opacity="0.9" d="M15.5698 15.3611C17.7368 14.383 17.4681 17.7238 16.4221 17.924C15.3762 18.1241 13.6638 16.2215 15.5698 15.3611Z" fill="url(#paint9_linear_559_1921)"/>
<defs>
<linearGradient id="paint0_linear_559_1921" x1="20.0929" y1="8.80724" x2="0.141592" y2="17.3341" gradientUnits="userSpaceOnUse">
<stop offset="0.1192" stop-color="#FFEC5E"/>
<stop offset="1" stop-color="#DE6F00"/>
</linearGradient>
<linearGradient id="paint1_linear_559_1921" x1="19.2912" y1="7.89922" x2="1.44806" y2="15.5251" gradientUnits="userSpaceOnUse">
<stop stop-color="#FFEC5E"/>
<stop offset="1" stop-color="#FFF5A8"/>
</linearGradient>
<linearGradient id="paint2_linear_559_1921" x1="11.7595" y1="6.69437" x2="11.7595" y2="20.3251" gradientUnits="userSpaceOnUse">
<stop offset="0.1192" stop-color="#FFEC5E"/>
<stop offset="1" stop-color="#DE6F00"/>
</linearGradient>
<linearGradient id="paint3_linear_559_1921" x1="11.5666" y1="21.8583" x2="11.5666" y2="1.42272" gradientUnits="userSpaceOnUse">
<stop offset="0.1192" stop-color="#FFEC5E"/>
<stop offset="1" stop-color="#DE6F00"/>
</linearGradient>
<linearGradient id="paint4_linear_559_1921" x1="19.1499" y1="9.2102" x2="0.418984" y2="17.2155" gradientUnits="userSpaceOnUse">
<stop stop-color="#FFEC5E"/>
<stop offset="1" stop-color="#FFF5A8"/>
</linearGradient>
<linearGradient id="paint5_linear_559_1921" x1="12.6703" y1="4.90484" x2="14.846" y2="12.3338" gradientUnits="userSpaceOnUse">
<stop stop-color="#FFEC5E"/>
<stop offset="1" stop-color="#FFF5A8"/>
</linearGradient>
<linearGradient id="paint6_linear_559_1921" x1="10.0558" y1="2.61207" x2="13.837" y2="18.1379" gradientUnits="userSpaceOnUse">
<stop stop-color="#FFEC5E"/>
<stop offset="1" stop-color="#FFF5A8"/>
</linearGradient>
<linearGradient id="paint7_linear_559_1921" x1="11.8317" y1="18.1346" x2="12.637" y2="21.4412" gradientUnits="userSpaceOnUse">
<stop stop-color="#FFEC5E"/>
<stop offset="1" stop-color="#FFF5A8"/>
</linearGradient>
<linearGradient id="paint8_linear_559_1921" x1="7.47425" y1="6.80351" x2="10.2252" y2="18.0991" gradientUnits="userSpaceOnUse">
<stop stop-color="#FFEC5E"/>
<stop offset="1" stop-color="#FFF5A8"/>
</linearGradient>
<linearGradient id="paint9_linear_559_1921" x1="15.7189" y1="15.4091" x2="16.2469" y2="17.4028" gradientUnits="userSpaceOnUse">
<stop stop-color="#FFEC5E"/>
<stop offset="1" stop-color="#FFF5A8"/>
</linearGradient>
</defs>
</svg>
