<svg width="15" height="16" viewBox="0 0 15 16" fill="none" xmlns="http://www.w3.org/2000/svg">
<path d="M8.02 14.1259C9.97375 13.7346 12.5 12.329 12.5 8.69461C12.5 5.38773 10.0794 3.18523 8.33875 2.17336C7.95188 1.94836 7.5 2.24398 7.5 2.69086V3.83336C7.5 4.73461 7.12125 6.37961 6.06875 7.06398C5.53125 7.41336 4.95 6.89023 4.885 6.25273L4.83125 5.72898C4.76875 5.12023 4.14875 4.75086 3.6625 5.12211C2.78813 5.78773 1.875 6.95648 1.875 8.69398C1.875 13.1384 5.18062 14.2502 6.83312 14.2502C6.92979 14.2502 7.03062 14.2471 7.13562 14.2409C6.31938 14.1715 5 13.6652 5 12.0277C5 10.7465 5.93437 9.88086 6.64437 9.45898C6.83562 9.34648 7.05875 9.49336 7.05875 9.71523V10.084C7.05875 10.3652 7.16812 10.8059 7.4275 11.1071C7.72125 11.4484 8.15187 11.0909 8.18625 10.6421C8.1975 10.5009 8.34 10.4109 8.4625 10.4821C8.86312 10.7165 9.375 11.2165 9.375 12.0277C9.375 13.3077 8.66937 13.8965 8.02 14.1259Z" fill="currentColor"/>
</svg>
