<svg width="32" height="32" viewBox="0 0 32 32" fill="none" xmlns="http://www.w3.org/2000/svg">
<path d="M15.8999 29.7C8.9249 29.7 1.3999 25.325 1.3999 15.725C1.3999 6.125 8.9249 1.75 15.8999 1.75C19.7749 1.75 23.3499 3.025 25.9999 5.35C28.8749 7.9 30.3999 11.5 30.3999 15.725C30.3999 19.95 28.8749 23.525 25.9999 26.075C23.3499 28.4 19.7499 29.7 15.8999 29.7Z" fill="url(#paint0_radial_2246_1803)"/>
<path d="M27.8725 7.41797C29.205 9.56797 29.9 12.128 29.9 14.9755C29.9 19.2005 28.375 22.7755 25.5 25.3255C22.85 27.6505 19.25 28.9505 15.4 28.9505C10.885 28.9505 6.14998 27.113 3.35498 23.2155C6.04498 27.6305 11.105 29.7005 15.9 29.7005C19.75 29.7005 23.35 28.4005 26 26.0755C28.875 23.5255 30.4 19.9505 30.4 15.7255C30.4 12.5405 29.5325 9.71047 27.8725 7.41797Z" fill="#EB8F00"/>
<path d="M8.59251 24.1854C10.1925 21.4079 13.5625 20.2654 16 20.2654C18.4375 20.2654 21.8075 21.4079 23.4075 24.1854C23.6325 24.5804 24.275 24.4079 24.2025 23.9579C23.5875 20.2079 19.4525 18.0954 16 17.9579C12.35 17.8254 8.51752 20.4179 7.79752 23.9579C7.71002 24.4004 8.36751 24.5804 8.59251 24.1854ZM11 10.2354C9.95252 10.2354 9.00002 11.1204 9.00002 12.5904C9.00002 14.0604 9.95252 14.9429 11 14.9429C12.05 14.9429 13 14.0579 13 12.5904C13 11.1229 12.06 10.2354 11 10.2354Z" fill="#422B0D"/>
<path d="M10.9124 11.2171C10.7412 11.1357 10.5448 11.1252 10.3659 11.188C10.187 11.2507 10.0402 11.3816 9.95737 11.5521C9.82487 11.8296 9.88487 12.1621 10.1074 12.3771C10.4624 12.5471 10.8899 12.3971 11.0624 12.0421C11.1949 11.7646 11.1349 11.4321 10.9124 11.2171Z" fill="#896024"/>
<path d="M20.6001 10.2354C19.5526 10.2354 18.6001 11.1204 18.6001 12.5904C18.6001 14.0604 19.5526 14.9429 20.6001 14.9429C21.6476 14.9429 22.6001 14.0579 22.6001 12.5904C22.6001 11.1229 21.6476 10.2354 20.6001 10.2354Z" fill="#422B0D"/>
<path d="M20.4998 11.2171C20.3286 11.1357 20.1322 11.1252 19.9533 11.188C19.7744 11.2507 19.6276 11.3816 19.5448 11.5521C19.4123 11.8296 19.4723 12.1621 19.6948 12.3771C20.0498 12.5471 20.4773 12.3971 20.6498 12.0421C20.7823 11.7646 20.7223 11.4321 20.4998 11.2171Z" fill="#896024"/>
<defs>
<radialGradient id="paint0_radial_2246_1803" cx="0" cy="0" r="1" gradientUnits="userSpaceOnUse" gradientTransform="translate(15.8999 15.725) scale(14.24)">
<stop offset="0.5" stop-color="#FDE030"/>
<stop offset="0.92" stop-color="#F7C02B"/>
<stop offset="1" stop-color="#F4A223"/>
</radialGradient>
</defs>
</svg>
