<svg width="33" height="32" viewBox="0 0 33 32" fill="none" xmlns="http://www.w3.org/2000/svg">
<path d="M16.3999 29.7C9.4249 29.7 1.8999 25.325 1.8999 15.725C1.8999 6.125 9.4249 1.75 16.3999 1.75C20.2749 1.75 23.8499 3.025 26.4999 5.35C29.3749 7.9 30.8999 11.5 30.8999 15.725C30.8999 19.95 29.3749 23.525 26.4999 26.075C23.8499 28.4 20.2499 29.7 16.3999 29.7Z" fill="url(#paint0_radial_647_1351)"/>
<path d="M28.3725 7.41797C29.705 9.56797 30.4 12.128 30.4 14.9755C30.4 19.2005 28.875 22.7755 26 25.3255C23.35 27.6505 19.75 28.9505 15.9 28.9505C11.385 28.9505 6.64998 27.113 3.85498 23.2155C6.54498 27.6305 11.605 29.7005 16.4 29.7005C20.25 29.7005 23.85 28.4005 26.5 26.0755C29.375 23.5255 30.9 19.9505 30.9 15.7255C30.9 12.5405 30.0325 9.71047 28.3725 7.41797Z" fill="#D5D5D5"/>
<path d="M9.09251 24.1854C10.6925 21.4079 14.0625 20.2654 16.5 20.2654C18.9375 20.2654 22.3075 21.4079 23.9075 24.1854C24.1325 24.5804 24.775 24.4079 24.7025 23.9579C24.0875 20.2079 19.9525 18.0954 16.5 17.9579C12.85 17.8254 9.01752 20.4179 8.29752 23.9579C8.21002 24.4004 8.86751 24.5804 9.09251 24.1854ZM11.5 10.2354C10.4525 10.2354 9.50002 11.1204 9.50002 12.5904C9.50002 14.0604 10.4525 14.9429 11.5 14.9429C12.55 14.9429 13.5 14.0579 13.5 12.5904C13.5 11.1229 12.56 10.2354 11.5 10.2354Z" fill="#494949"/>
<path d="M11.4124 11.2171C11.2412 11.1357 11.0448 11.1252 10.8659 11.188C10.687 11.2507 10.5402 11.3816 10.4574 11.5521C10.3249 11.8296 10.3849 12.1621 10.6074 12.3771C10.9624 12.5471 11.3899 12.3971 11.5624 12.0421C11.6949 11.7646 11.6349 11.4321 11.4124 11.2171Z" fill="#7C7C7C"/>
<path d="M21.1001 10.2354C20.0526 10.2354 19.1001 11.1204 19.1001 12.5904C19.1001 14.0604 20.0526 14.9429 21.1001 14.9429C22.1476 14.9429 23.1001 14.0579 23.1001 12.5904C23.1001 11.1229 22.1476 10.2354 21.1001 10.2354Z" fill="#494949"/>
<path d="M20.9998 11.2171C20.8286 11.1357 20.6322 11.1252 20.4533 11.188C20.2744 11.2507 20.1276 11.3816 20.0448 11.5521C19.9123 11.8296 19.9723 12.1621 20.1948 12.3771C20.5498 12.5471 20.9773 12.3971 21.1498 12.0421C21.2823 11.7646 21.2223 11.4321 20.9998 11.2171Z" fill="#7C7C7C"/>
<defs>
<radialGradient id="paint0_radial_647_1351" cx="0" cy="0" r="1" gradientUnits="userSpaceOnUse" gradientTransform="translate(16.3999 15.725) scale(14.24)">
<stop offset="0.5" stop-color="#EBEBEB"/>
<stop offset="0.92" stop-color="#E4E4E4"/>
<stop offset="1" stop-color="#D6D6D6"/>
</radialGradient>
</defs>
</svg>
