<svg width="26" height="11" viewBox="0 0 26 11" fill="none" xmlns="http://www.w3.org/2000/svg">
<path fill-rule="evenodd" clip-rule="evenodd" d="M12.0024 8.36557V5.25831H13.6061C14.2633 5.25831 14.818 5.03811 15.2701 4.60382L15.3787 4.49372C16.2046 3.59457 16.1504 2.19386 15.2701 1.36199C14.83 0.921589 14.2271 0.683039 13.6061 0.695272H11.0317V8.36557H12.0024ZM12.0025 4.31635V1.63725H13.6306C13.9804 1.63725 14.312 1.77182 14.5592 2.01649C15.0839 2.53029 15.0959 3.38662 14.5894 3.91877C14.3422 4.18179 13.9924 4.32859 13.6306 4.31635H12.0025ZM19.9065 3.5273C19.4905 3.14195 18.9238 2.94622 18.2063 2.94622C17.2839 2.94622 16.5905 3.28875 16.1323 3.9677L16.9885 4.51209C17.302 4.04722 17.73 3.81479 18.2726 3.81479C18.6163 3.81479 18.9479 3.94324 19.2071 4.17567C19.4604 4.39587 19.6051 4.71394 19.6051 5.05035V5.27667C19.2313 5.0687 18.761 4.9586 18.1822 4.9586C17.507 4.9586 16.9643 5.11764 16.5604 5.44182C16.1565 5.766 15.9515 6.19417 15.9515 6.73855C15.9394 7.234 16.1504 7.70499 16.5242 8.02305C16.9041 8.36559 17.3864 8.53685 17.9531 8.53685C18.6223 8.53685 19.1529 8.23714 19.5568 7.6377H19.599V8.36559H20.5275V5.12987C20.5275 4.45092 20.3225 3.91265 19.9065 3.5273ZM17.272 7.39913C17.073 7.25233 16.9524 7.01378 16.9524 6.75688C16.9524 6.46939 17.0851 6.23084 17.3444 6.04122C17.6097 5.85161 17.9413 5.75374 18.3333 5.75374C18.876 5.74762 19.2981 5.86996 19.5996 6.11462C19.5996 6.53056 19.4368 6.89144 19.1172 7.19728C18.8277 7.49088 18.4358 7.65603 18.0257 7.65603C17.7544 7.66214 17.4891 7.57039 17.272 7.39913ZM22.6135 10.6716L25.8572 3.1175H24.8021L23.3009 6.88536H23.2828L21.7454 3.1175H20.6903L22.8185 8.02918L21.6127 10.6716H22.6135Z" fill="#3C4043"/>
<path d="M8.65135 4.58542C8.65135 4.2857 8.62723 3.98598 8.579 3.69238H4.48529V5.3867H6.83058C6.73412 5.93108 6.42061 6.42042 5.9624 6.72625V7.82725H7.36114C8.18109 7.06267 8.65135 5.93108 8.65135 4.58542Z" fill="#4285F4"/>
<path d="M4.48543 8.89193C5.65506 8.89193 6.64383 8.50046 7.36128 7.82763L5.96254 6.72663C5.57066 6.99576 5.07025 7.14868 4.48543 7.14868C3.35197 7.14868 2.39336 6.37186 2.0497 5.33203H0.608765V6.46973C1.34431 7.95608 2.84554 8.89193 4.48543 8.89193Z" fill="#34A853"/>
<path d="M2.04987 5.33199C1.86897 4.78761 1.86897 4.19429 2.04987 3.64379V2.51221H0.6087C-0.012389 3.75389 -0.012389 5.22189 0.6087 6.46358L2.04987 5.33199Z" fill="#FBBC04"/>
<path d="M4.48543 1.82701C5.10642 1.81478 5.7033 2.05333 6.14945 2.48761L7.39142 1.22758C6.60162 0.481346 5.56463 0.071529 4.48543 0.0837623C2.84554 0.0837623 1.34431 1.02573 0.608765 2.51208L2.0497 3.64978C2.39336 2.60383 3.35197 1.82701 4.48543 1.82701Z" fill="#EA4335"/>
</svg>
