<svg width="32" height="32" viewBox="0 0 32 32" fill="none" xmlns="http://www.w3.org/2000/svg">
<path d="M15.8999 29.7C8.9249 29.7 1.3999 25.325 1.3999 15.725C1.3999 6.125 8.9249 1.75 15.8999 1.75C19.7749 1.75 23.3499 3.025 25.9999 5.35C28.8749 7.9 30.3999 11.5 30.3999 15.725C30.3999 19.95 28.8749 23.525 25.9999 26.075C23.3499 28.4 19.7499 29.7 15.8999 29.7Z" fill="url(#paint0_radial_2246_1787)"/>
<path d="M27.8725 7.41699C29.205 9.56699 29.9 12.127 29.9 14.9745C29.9 19.1995 28.375 22.7745 25.5 25.3245C22.85 27.6495 19.25 28.9495 15.4 28.9495C10.885 28.9495 6.14998 27.112 3.35498 23.2145C6.04498 27.6295 11.105 29.6995 15.9 29.6995C19.75 29.6995 23.35 28.3995 26 26.0745C28.875 23.5245 30.4 19.9495 30.4 15.7245C30.4 12.5395 29.5325 9.70949 27.8725 7.41699Z" fill="#EB8F00"/>
<path d="M20.6623 8.40527C21.6148 8.40527 22.4773 9.81777 22.4773 12.1553C22.4773 14.4928 21.6148 15.9053 20.6623 15.9053C19.7123 15.9053 18.8498 14.4953 18.8498 12.1553C18.8498 9.81527 19.7123 8.40527 20.6623 8.40527ZM11.3173 8.40527C10.3048 8.40527 9.38232 9.81777 9.38232 12.1553C9.38232 14.4928 10.3048 15.9053 11.3173 15.9053C12.3323 15.9053 13.2548 14.4953 13.2548 12.1553C13.2548 9.81527 12.3323 8.40527 11.3173 8.40527Z" fill="#422B0D"/>
<path d="M11.2626 9.32237C11.117 9.23519 10.9428 9.2094 10.7783 9.25065C10.6137 9.29191 10.4723 9.39684 10.3851 9.54236C10.3801 9.55236 10.3726 9.56237 10.3676 9.57237C10.1376 9.83987 10.1651 10.2449 10.4326 10.4749C10.4401 10.4824 10.4476 10.4874 10.4576 10.4949C10.7576 10.6774 11.1501 10.5799 11.3326 10.2799C11.3401 10.2674 11.3451 10.2574 11.3526 10.2449C11.5826 9.97486 11.5526 9.56987 11.2826 9.33987C11.2766 9.33334 11.2699 9.32747 11.2626 9.32237ZM20.8026 9.32237C20.4976 9.14237 20.1026 9.24236 19.9226 9.54736C19.9176 9.55486 19.9126 9.56487 19.9076 9.57237C19.6801 9.84487 19.7176 10.2474 19.9901 10.4749C19.9926 10.4774 19.9976 10.4799 20.0001 10.4824C20.3001 10.6649 20.6926 10.5674 20.8751 10.2674C20.8826 10.2549 20.8876 10.2449 20.8951 10.2324C21.1226 9.95986 21.0851 9.55736 20.8126 9.32986C20.8101 9.32736 20.8051 9.32487 20.8026 9.32237Z" fill="#896024"/>
<path d="M25.5175 17.9049C25.3485 17.5994 25.075 17.365 24.7471 17.2447C24.4193 17.1244 24.0591 17.1262 23.7325 17.2499C21.1671 17.9972 18.5071 18.3702 15.835 18.3574C13.163 18.3702 10.503 17.9972 7.93754 17.2499C7.61189 17.1261 7.25257 17.1237 6.92527 17.2431C6.59798 17.3624 6.32457 17.5956 6.15504 17.8999C5.81504 18.5274 6.06004 19.2549 6.34754 19.8824C7.95254 23.4074 11.49 25.5174 15.815 25.5299H15.855C20.18 25.5299 23.7175 23.4074 25.325 19.8824C25.61 19.2499 25.8575 18.5324 25.5175 17.9049Z" fill="#422B0D"/>
<path d="M19.8373 24.5353C19.7448 24.4503 19.6498 24.3728 19.5548 24.2853C18.534 23.3875 17.2139 22.9049 15.8548 22.9328C14.4548 22.9103 13.0923 23.3753 11.9998 24.2503C11.9048 24.3278 11.8048 24.4028 11.7123 24.5003C11.6198 24.5978 11.5698 24.6678 11.5098 24.7503C12.8848 25.2878 14.3498 25.5628 15.8273 25.5553H15.8673C17.2823 25.5553 18.6848 25.3028 20.0098 24.8053C19.9598 24.7103 19.9023 24.6203 19.8373 24.5353Z" fill="#F28F8F"/>
<path d="M23.7325 17.2498C21.1671 17.9971 18.5071 18.3702 15.835 18.3573C13.163 18.3702 10.503 17.9971 7.93754 17.2498C7.61189 17.1261 7.25257 17.1236 6.92528 17.243C6.59798 17.3623 6.32457 17.5955 6.15504 17.8998C6.10504 17.9948 6.06504 18.0948 6.04004 18.1973C6.12254 18.2398 6.21754 18.2823 6.33004 18.3273C9.33993 19.8345 12.6666 20.5999 16.0325 20.5598C19.26 20.5973 22.45 19.8948 25.365 18.5098C25.4825 18.4598 25.58 18.4123 25.6675 18.3673C25.6475 18.2048 25.595 18.0448 25.5175 17.8998C25.348 17.5948 25.0742 17.3612 24.7463 17.2418C24.4184 17.1224 24.0585 17.1253 23.7325 17.2498Z" fill="white"/>
<path d="M25.5275 17.9074C25.3559 17.6011 25.0803 17.3664 24.7505 17.2458C24.4208 17.1252 24.0588 17.1267 23.73 17.2499C21.165 17.9974 18.505 18.3699 15.835 18.3574C13.163 18.3702 10.503 17.9972 7.93754 17.2499C7.61189 17.1261 7.25257 17.1237 6.92527 17.2431C6.59798 17.3624 6.32457 17.5956 6.15504 17.8999C5.81504 18.5274 6.06004 19.2549 6.34754 19.8824C6.47504 20.1649 6.61754 20.4424 6.77504 20.7099C6.77504 20.7099 6.25004 18.7649 6.70504 18.1999C6.78129 18.0818 6.88452 17.9835 7.00622 17.913C7.12793 17.8426 7.26462 17.8021 7.40504 17.7949C7.52254 17.7949 7.63754 17.8149 7.75004 17.8499C10.36 18.6174 13.0675 19.0049 15.79 18.9999H15.8775C18.6 19.0049 21.3075 18.6174 23.9175 17.8499C24.03 17.8149 24.145 17.7949 24.2625 17.7949C24.5475 17.8099 24.81 17.9599 24.965 18.1999C25.4275 18.7649 24.895 20.7174 24.895 20.7174C25.05 20.4499 25.205 20.1749 25.335 19.8899C25.62 19.2624 25.8675 18.5374 25.5275 17.9074Z" fill="#EB8F00"/>
<defs>
<radialGradient id="paint0_radial_2246_1787" cx="0" cy="0" r="1" gradientUnits="userSpaceOnUse" gradientTransform="translate(15.8999 15.725) scale(14.24)">
<stop offset="0.5" stop-color="#FDE030"/>
<stop offset="0.92" stop-color="#F7C02B"/>
<stop offset="1" stop-color="#F4A223"/>
</radialGradient>
</defs>
</svg>
