<svg width="33" height="32" viewBox="0 0 33 32" fill="none" xmlns="http://www.w3.org/2000/svg">
<path d="M16.3999 29.7C9.4249 29.7 1.8999 25.325 1.8999 15.725C1.8999 6.125 9.4249 1.75 16.3999 1.75C20.2749 1.75 23.8499 3.025 26.4999 5.35C29.3749 7.9 30.8999 11.5 30.8999 15.725C30.8999 19.95 29.3749 23.525 26.4999 26.075C23.8499 28.4 20.2499 29.7 16.3999 29.7Z" fill="url(#paint0_radial_647_1335)"/>
<path d="M28.3725 7.41699C29.705 9.56699 30.4 12.127 30.4 14.9745C30.4 19.1995 28.875 22.7745 26 25.3245C23.35 27.6495 19.75 28.9495 15.9 28.9495C11.385 28.9495 6.64998 27.112 3.85498 23.2145C6.54498 27.6295 11.605 29.6995 16.4 29.6995C20.25 29.6995 23.85 28.3995 26.5 26.0745C29.375 23.5245 30.9 19.9495 30.9 15.7245C30.9 12.5395 30.0325 9.70949 28.3725 7.41699Z" fill="#D5D5D5"/>
<path d="M21.1623 8.40527C22.1148 8.40527 22.9773 9.81777 22.9773 12.1553C22.9773 14.4928 22.1148 15.9053 21.1623 15.9053C20.2123 15.9053 19.3498 14.4953 19.3498 12.1553C19.3498 9.81527 20.2123 8.40527 21.1623 8.40527ZM11.8173 8.40527C10.8048 8.40527 9.88232 9.81777 9.88232 12.1553C9.88232 14.4928 10.8048 15.9053 11.8173 15.9053C12.8323 15.9053 13.7548 14.4953 13.7548 12.1553C13.7548 9.81527 12.8323 8.40527 11.8173 8.40527Z" fill="#494949"/>
<path d="M11.7626 9.32237C11.617 9.23519 11.4428 9.2094 11.2783 9.25065C11.1137 9.29191 10.9723 9.39684 10.8851 9.54236C10.8801 9.55236 10.8726 9.56237 10.8676 9.57237C10.6376 9.83987 10.6651 10.2449 10.9326 10.4749C10.9401 10.4824 10.9476 10.4874 10.9576 10.4949C11.2576 10.6774 11.6501 10.5799 11.8326 10.2799C11.8401 10.2674 11.8451 10.2574 11.8526 10.2449C12.0826 9.97486 12.0526 9.56987 11.7826 9.33987C11.7766 9.33334 11.7699 9.32747 11.7626 9.32237ZM21.3026 9.32237C20.9976 9.14237 20.6026 9.24236 20.4226 9.54736C20.4176 9.55486 20.4126 9.56487 20.4076 9.57237C20.1801 9.84487 20.2176 10.2474 20.4901 10.4749C20.4926 10.4774 20.4976 10.4799 20.5001 10.4824C20.8001 10.6649 21.1926 10.5674 21.3751 10.2674C21.3826 10.2549 21.3876 10.2449 21.3951 10.2324C21.6226 9.95986 21.5851 9.55736 21.3126 9.32986C21.3101 9.32736 21.3051 9.32487 21.3026 9.32237Z" fill="#7C7C7C"/>
<path d="M26.0175 17.9049C25.8485 17.5994 25.575 17.365 25.2471 17.2447C24.9193 17.1244 24.5591 17.1262 24.2325 17.2499C21.6671 17.9972 19.0071 18.3702 16.335 18.3574C13.663 18.3702 11.003 17.9972 8.43754 17.2499C8.11189 17.1261 7.75257 17.1237 7.42527 17.2431C7.09798 17.3624 6.82457 17.5956 6.65504 17.8999C6.31504 18.5274 6.56004 19.2549 6.84754 19.8824C8.45254 23.4074 11.99 25.5174 16.315 25.5299H16.355C20.68 25.5299 24.2175 23.4074 25.825 19.8824C26.11 19.2499 26.3575 18.5324 26.0175 17.9049Z" fill="#494949"/>
<path d="M20.3373 24.5353C20.2448 24.4503 20.1498 24.3728 20.0548 24.2853C19.034 23.3875 17.7139 22.9049 16.3548 22.9328C14.9548 22.9103 13.5923 23.3753 12.4998 24.2503C12.4048 24.3278 12.3048 24.4028 12.2123 24.5003C12.1198 24.5978 12.0698 24.6678 12.0098 24.7503C13.3848 25.2878 14.8498 25.5628 16.3273 25.5553H16.3673C17.7823 25.5553 19.1848 25.3028 20.5098 24.8053C20.4598 24.7103 20.4023 24.6203 20.3373 24.5353Z" fill="#DADADA"/>
<path d="M24.2325 17.2498C21.6671 17.9971 19.0071 18.3702 16.335 18.3573C13.663 18.3702 11.003 17.9971 8.43754 17.2498C8.11189 17.1261 7.75257 17.1236 7.42528 17.243C7.09798 17.3623 6.82457 17.5955 6.65504 17.8998C6.60504 17.9948 6.56504 18.0948 6.54004 18.1973C6.62254 18.2398 6.71754 18.2823 6.83004 18.3273C9.83993 19.8345 13.1666 20.5999 16.5325 20.5598C19.76 20.5973 22.95 19.8948 25.865 18.5098C25.9825 18.4598 26.08 18.4123 26.1675 18.3673C26.1475 18.2048 26.095 18.0448 26.0175 17.8998C25.848 17.5948 25.5742 17.3612 25.2463 17.2418C24.9184 17.1224 24.5585 17.1253 24.2325 17.2498Z" fill="white"/>
<path d="M26.0275 17.9074C25.8559 17.6011 25.5803 17.3664 25.2505 17.2458C24.9208 17.1252 24.5588 17.1267 24.23 17.2499C21.665 17.9974 19.005 18.3699 16.335 18.3574C13.663 18.3702 11.003 17.9972 8.43754 17.2499C8.11189 17.1261 7.75257 17.1237 7.42527 17.2431C7.09798 17.3624 6.82457 17.5956 6.65504 17.8999C6.31504 18.5274 6.56004 19.2549 6.84754 19.8824C6.97504 20.1649 7.11754 20.4424 7.27504 20.7099C7.27504 20.7099 6.75004 18.7649 7.20504 18.1999C7.28129 18.0818 7.38452 17.9835 7.50622 17.913C7.62793 17.8426 7.76462 17.8021 7.90504 17.7949C8.02254 17.7949 8.13754 17.8149 8.25004 17.8499C10.86 18.6174 13.5675 19.0049 16.29 18.9999H16.3775C19.1 19.0049 21.8075 18.6174 24.4175 17.8499C24.53 17.8149 24.645 17.7949 24.7625 17.7949C25.0475 17.8099 25.31 17.9599 25.465 18.1999C25.9275 18.7649 25.395 20.7174 25.395 20.7174C25.55 20.4499 25.705 20.1749 25.835 19.8899C26.12 19.2624 26.3675 18.5374 26.0275 17.9074Z" fill="#DADADA"/>
<defs>
<radialGradient id="paint0_radial_647_1335" cx="0" cy="0" r="1" gradientUnits="userSpaceOnUse" gradientTransform="translate(16.3999 15.725) scale(14.24)">
<stop offset="0.5" stop-color="#EBEBEB"/>
<stop offset="0.92" stop-color="#E4E4E4"/>
<stop offset="1" stop-color="#D6D6D6"/>
</radialGradient>
</defs>
</svg>
