<svg width="24" height="24" viewBox="0 0 24 24" fill="none" xmlns="http://www.w3.org/2000/svg">
<g clip-path="url(#clip0_494_2544)">
<path d="M19.2836 19.1936L15.5237 21.8455L13.2636 23.4336C12.8482 23.7246 12.2756 23.6242 11.9836 23.2095L11.1676 22.0576C11.0243 21.8486 10.7989 21.7104 10.5476 21.6776C8.45163 21.3931 7.03567 19.3811 7.03567 19.3811L0.676055 10.3531C0.233672 9.75123 0.327605 8.91059 0.892119 8.42115C1.18967 8.18238 1.57272 8.07691 1.95047 8.13001C2.3284 8.18293 2.66769 8.38966 2.88797 8.70112L2.48807 8.13313L1.25998 6.38923L0.812102 5.75715C0.465667 5.26441 0.478667 4.60377 0.844512 4.12513C0.93167 4.01399 1.03384 3.91584 1.14847 3.83308C1.44693 3.62232 1.81717 3.53901 2.17715 3.60127C2.53732 3.66352 2.85794 3.8664 3.06851 4.16523L2.01236 2.6612C1.71939 2.25837 1.66611 1.72901 1.87302 1.27601C2.08011 0.823008 2.51517 0.516673 3.01157 0.474558C3.50778 0.432627 3.98825 0.661326 4.2684 1.07313L5.3284 2.57716C5.03525 2.17451 4.98196 1.64497 5.18906 1.19197C5.39596 0.738963 5.83121 0.432627 6.32742 0.390696C6.82382 0.348582 7.30429 0.577281 7.58444 0.989085L9.25638 3.36506L12.6164 8.13349C12.948 8.6255 13.3557 9.06166 13.8245 9.42549C14.0642 9.60365 14.3756 9.65437 14.6596 9.56135C14.9434 9.46833 15.1646 9.24311 15.2523 8.95747V8.95362C15.2284 8.20161 15.0925 7.5536 15.0764 6.96546C15.0328 5.30561 14.8488 3.60548 15.6008 3.07356C16.3528 2.54164 17.2929 3.5055 17.4128 4.80152C17.6005 6.80158 18.4964 8.49348 19.0725 10.9015C19.4405 12.4616 19.1805 14.4616 18.9524 15.6815C18.8161 16.4119 18.9806 17.1663 19.4085 17.7736L19.5044 17.9135C19.6461 18.1122 19.7025 18.3592 19.6612 18.5996C19.6196 18.84 19.4837 19.0539 19.2836 19.1936Z" fill="#FDD7AD"/>
<path d="M14.7224 13.6088C14.6821 13.6372 14.6371 13.6579 14.5891 13.6696C14.3749 13.7233 14.1577 13.5931 14.1041 13.3788C13.8924 12.5472 14.0012 11.6663 14.4084 10.9109C14.5397 10.6617 14.8643 10.0925 14.9379 9.95093C15.115 9.48346 15.2115 8.98944 15.2236 8.48975C15.4171 8.9162 15.5352 9.37286 15.5731 9.8396C15.4955 10.3437 15.3406 10.8329 15.1135 11.2896C14.8006 11.8702 14.7173 12.5472 14.8801 13.1864C14.9195 13.3463 14.8568 13.514 14.7224 13.6088Z" fill="#CBB292"/>
<path d="M8.23996 17.8967C8.15316 17.9588 8.04495 17.9833 7.93985 17.9652C7.83474 17.9469 7.74118 17.8876 7.68002 17.8001L6.09048 15.5433C6.00808 15.4265 5.99435 15.2745 6.05441 15.1448C6.11447 15.0152 6.23898 14.9273 6.38144 14.9145C6.52371 14.9015 6.66214 14.9656 6.74435 15.0824L8.33407 17.3392C8.46188 17.5192 8.41995 17.7687 8.23996 17.8967Z" fill="#FEE7CE"/>
<path d="M10.2049 19.8883C10.1181 19.9492 10.0108 19.9732 9.9064 19.9551C9.44918 19.895 9.03243 19.6621 8.74166 19.3043C8.62741 19.1249 8.67355 18.8876 8.84658 18.764C9.01943 18.6404 9.25894 18.6737 9.39169 18.84C9.56326 19.0229 9.79379 19.1394 10.0428 19.169C10.2016 19.1972 10.3281 19.3179 10.3634 19.4752C10.3988 19.6325 10.3363 19.7958 10.2049 19.8892V19.8883Z" fill="#FEE7CE"/>
<path d="M17.7012 18.5472L17.3253 18.8121C17.1454 18.9227 16.9107 18.8748 16.7888 18.7023C16.667 18.53 16.7001 18.2925 16.8644 18.1601L17.2405 17.8953C17.421 17.7681 17.6706 17.8113 17.7978 17.9918C17.9251 18.1726 17.8817 18.422 17.7012 18.5492V18.5472Z" fill="#FEE7CE"/>
<path d="M15.8209 19.8715L13.1876 21.7263C13.0071 21.8536 12.7575 21.8104 12.6303 21.6298C12.503 21.4491 12.5462 21.1995 12.7268 21.0723L15.36 19.2176C15.5405 19.0903 15.7901 19.1336 15.9174 19.3141C16.0446 19.4948 16.0014 19.7442 15.8209 19.8715Z" fill="#FEE7CE"/>
<path d="M5.59991 24C2.50854 23.9967 0.0032959 21.4915 0 18.4001C0 18.1791 0.179077 18 0.400085 18C0.620911 18 0.799988 18.1791 0.799988 18.4001C0.802917 21.0498 2.9502 23.1971 5.59991 23.2C5.82092 23.2 6 23.3791 6 23.5999C6 23.8209 5.82092 24 5.59991 24Z" fill="#4482C3"/>
<path d="M6 22.4C3.57111 22.397 1.60291 20.4288 1.59998 17.9999C1.59998 17.7791 1.77905 17.5999 2.00006 17.5999C2.22089 17.5999 2.39996 17.7791 2.39996 17.9999C2.40216 19.9872 4.01276 21.5978 6 21.6C6.22083 21.6 6.40009 21.7791 6.40009 21.9999C6.40009 22.2209 6.22083 22.4 6 22.4Z" fill="#4482C3"/>
<path d="M23.5999 6C23.3791 6 23.2 5.82092 23.2 5.59991C23.1971 2.9502 21.0498 0.802917 18.4001 0.799988C18.1791 0.799988 18 0.620911 18 0.400085C18 0.179077 18.1791 0 18.4001 0C21.4915 0.0032959 23.9967 2.50854 24 5.59991C24 5.82092 23.8209 6 23.5999 6Z" fill="#4482C3"/>
<path d="M21.9999 6.39996C21.7791 6.39996 21.6 6.2207 21.6 5.99988C21.5978 4.01263 19.9872 2.40204 18 2.39984C17.7792 2.39984 17.5999 2.22076 17.5999 1.99994C17.5999 1.77893 17.7792 1.59985 18 1.59985C20.4289 1.60278 22.3971 3.57098 22.4 5.99988C22.4 6.2207 22.2209 6.39996 21.9999 6.39996Z" fill="#4482C3"/>
<path d="M5.58527 12.5253C5.66748 12.6423 5.68121 12.7941 5.62115 12.9238C5.56128 13.0536 5.43658 13.1413 5.29431 13.1543C5.15186 13.1671 5.01343 13.103 4.93121 12.9862L2.23279 9.16224C2.02185 8.86323 1.70087 8.65998 1.34033 8.59699C1.11914 8.55909 0.891907 8.57484 0.67804 8.64295C0.739929 8.56001 0.81189 8.48475 0.89209 8.41901C1.0719 8.27528 1.28522 8.17896 1.51208 8.13905C1.67139 8.10938 1.83472 8.10865 1.99438 8.13667C2.3551 8.19965 2.6759 8.4029 2.88684 8.70228L5.58527 12.5253Z" fill="#CBB292"/>
<path d="M3.06793 4.16589L7.57361 10.5623C7.66058 10.679 7.67743 10.8335 7.61755 10.9661C7.55768 11.0988 7.4306 11.1884 7.28558 11.2003C7.14056 11.212 7.00067 11.1442 6.91992 11.023L2.41406 4.62659C2.20404 4.32574 1.88177 4.12213 1.51996 4.06152C1.2962 4.0238 1.06641 4.04101 0.850891 4.11188C0.938232 4.00659 1.03839 3.91266 1.1488 3.83191C1.44708 3.62207 1.81604 3.53876 2.17566 3.59991C2.53693 3.66107 2.85864 3.86505 3.06793 4.16589Z" fill="#CBB292"/>
<path d="M4.27039 1.07304L5.33002 2.57743L6.99994 4.95377L9.83441 8.97074C9.91663 9.08756 9.93036 9.23936 9.87048 9.369C9.81042 9.49882 9.68573 9.58653 9.54346 9.59953C9.40118 9.61234 9.26276 9.54826 9.18036 9.43144L6.34479 5.41465L4.67596 3.03977L3.61633 1.53391C3.26532 1.03678 2.63123 0.82676 2.0528 1.01591C2.13538 0.908242 2.23407 0.813759 2.34521 0.73594C2.97052 0.299782 3.83057 0.450478 4.27039 1.07304Z" fill="#CBB292"/>
<path d="M14.5201 9.59389C14.3921 9.82607 14.17 9.99159 13.9107 10.0474C13.6516 10.1033 13.381 10.0441 13.1688 9.88503C12.7007 9.52046 12.293 9.08449 11.9604 8.59303L6.92926 1.451C6.58246 0.954055 5.95221 0.741287 5.37524 0.926223C5.45544 0.820205 5.55194 0.727371 5.66125 0.651565C5.96045 0.440994 6.33124 0.35823 6.69159 0.421768C7.05194 0.485488 7.37219 0.690017 7.58112 0.99031L12.6136 8.13271C12.9463 8.62379 13.3541 9.05959 13.8221 9.42433C14.0233 9.57027 14.2742 9.63124 14.5201 9.59389Z" fill="#CBB292"/>
</g>
<defs>
<clipPath id="clip0_494_2544">
<rect width="24" height="24" fill="white"/>
</clipPath>
</defs>
</svg>
