<svg width="33" height="32" viewBox="0 0 33 32" fill="none" xmlns="http://www.w3.org/2000/svg">
<path d="M16.3999 29.7C9.4249 29.7 1.8999 25.325 1.8999 15.725C1.8999 6.125 9.4249 1.75 16.3999 1.75C20.2749 1.75 23.8499 3.025 26.4999 5.35C29.3749 7.9 30.8999 11.5 30.8999 15.725C30.8999 19.95 29.3749 23.525 26.4999 26.075C23.8499 28.4 20.2499 29.7 16.3999 29.7Z" fill="url(#paint0_radial_647_1328)"/>
<path d="M28.3725 7.41699C29.705 9.56699 30.4 12.127 30.4 14.9745C30.4 19.1995 28.875 22.7745 26 25.3245C23.35 27.6495 19.75 28.9495 15.9 28.9495C11.385 28.9495 6.64998 27.112 3.85498 23.2145C6.54498 27.6295 11.605 29.6995 16.4 29.6995C20.25 29.6995 23.85 28.3995 26.5 26.0745C29.375 23.5245 30.9 19.9495 30.9 15.7245C30.9 12.5395 30.0325 9.70949 28.3725 7.41699Z" fill="#D5D5D5"/>
<path d="M12.75 14.2224L12.7125 14.1724L12.605 14.0349L12.4725 13.8924C12.4175 13.8299 12.3525 13.7699 12.29 13.7049C12.2275 13.6399 12.15 13.5774 12.08 13.5249C12.015 13.4749 11.945 13.4274 11.87 13.3899C11.82 13.3624 11.765 13.3399 11.7075 13.3274C11.6901 13.3249 11.6724 13.3249 11.655 13.3274H11.6125H11.68H11.5425C11.505 13.3274 11.53 13.3274 11.5425 13.3274H11.5625H11.535C11.4775 13.3399 11.4225 13.3599 11.37 13.3899C11.2975 13.4299 11.225 13.4749 11.16 13.5249C11.0875 13.5799 11.0175 13.6399 10.9525 13.7049C10.82 13.8324 10.7025 13.9549 10.6275 14.0524L10.4975 14.2024L10.44 14.2699C10.2659 14.4641 10.0261 14.5871 9.76674 14.6152C9.50741 14.6434 9.24682 14.5747 9.03504 14.4224C8.89788 14.3269 8.79057 14.1945 8.72553 14.0405C8.6605 13.8865 8.64039 13.7173 8.66754 13.5524C8.66754 13.5524 8.68504 13.4524 8.73254 13.2749C8.80754 13.0224 8.91254 12.7774 9.04504 12.5474C9.25754 12.1724 9.54504 11.8449 9.89004 11.5849C10.1175 11.4099 10.37 11.2699 10.64 11.1724C10.715 11.1424 10.7925 11.1199 10.87 11.0999C10.9525 11.0749 11.035 11.0574 11.12 11.0424L11.2725 11.0199L11.4 11.0049H11.8625C11.9475 11.0049 12.03 11.0274 12.1125 11.0399C12.2725 11.0674 12.4325 11.1099 12.585 11.1674C12.855 11.2649 13.1075 11.4049 13.335 11.5799C13.68 11.8399 13.9675 12.1674 14.18 12.5424C14.2575 12.6724 14.325 12.8099 14.38 12.9499C14.4275 13.0624 14.4675 13.1749 14.5 13.2924C14.5175 13.3524 14.5325 13.4124 14.54 13.4724V13.5349C14.615 14.0449 14.26 14.5199 13.75 14.5949C13.7375 14.5974 13.725 14.5974 13.7125 14.5999C13.3475 14.6524 12.9825 14.5074 12.75 14.2224ZM22.615 14.2224L22.575 14.1724L22.4675 14.0349L22.335 13.8924C22.28 13.8299 22.215 13.7699 22.1525 13.7049C22.09 13.6399 22.0125 13.5774 21.9425 13.5249C21.8775 13.4749 21.8075 13.4274 21.7325 13.3899C21.6825 13.3624 21.6275 13.3399 21.57 13.3274C21.5526 13.3249 21.5349 13.3249 21.5175 13.3274H21.475H21.5425H21.405C21.3675 13.3274 21.3925 13.3274 21.405 13.3274H21.425H21.3975C21.34 13.3399 21.285 13.3599 21.2325 13.3899C21.16 13.4274 21.09 13.4749 21.025 13.5249C20.95 13.5799 20.88 13.6399 20.815 13.7049C20.6825 13.8324 20.565 13.9549 20.49 14.0524L20.36 14.2024L20.305 14.2699C20.1304 14.4641 19.8902 14.5871 19.6304 14.6152C19.3707 14.6434 19.1098 14.5747 18.8975 14.4224C18.7604 14.3269 18.6531 14.1945 18.588 14.0405C18.523 13.8865 18.5029 13.7173 18.53 13.5524C18.53 13.5524 18.5475 13.4524 18.5975 13.2749C18.6725 13.0199 18.775 12.7749 18.91 12.5474C19.1225 12.1724 19.4075 11.8449 19.7525 11.5849C19.98 11.4099 20.2325 11.2699 20.5025 11.1724C20.5775 11.1424 20.655 11.1199 20.7325 11.0999C20.815 11.0749 20.8975 11.0574 20.9825 11.0424L21.1375 11.0199L21.2625 11.0049H21.725C21.81 11.0049 21.8925 11.0274 21.975 11.0399C22.1375 11.0674 22.295 11.1099 22.4475 11.1674C22.7175 11.2649 22.97 11.4049 23.1975 11.5799C23.5425 11.8399 23.83 12.1674 24.0425 12.5424C24.12 12.6724 24.1875 12.8099 24.2425 12.9499C24.29 13.0599 24.33 13.1724 24.3625 13.2874C24.38 13.3474 24.395 13.4074 24.4025 13.4674V13.5299C24.4406 13.7749 24.3799 14.025 24.2336 14.2251C24.0873 14.4253 23.8675 14.5592 23.6225 14.5974C23.615 14.5974 23.6075 14.5999 23.6 14.5999C23.2275 14.6624 22.85 14.5174 22.615 14.2224ZM26.0175 17.9049C25.8485 17.5993 25.575 17.3649 25.2471 17.2447C24.9193 17.1244 24.5591 17.1262 24.2325 17.2499C21.6671 17.9972 19.0071 18.3702 16.335 18.3574C13.663 18.3702 11.003 17.9972 8.43754 17.2499C8.11189 17.1261 7.75257 17.1237 7.42527 17.243C7.09798 17.3624 6.82457 17.5955 6.65504 17.8999C6.31504 18.5274 6.56004 19.2549 6.84754 19.8824C8.45254 23.4074 11.99 25.5174 16.315 25.5299H16.355C20.68 25.5299 24.2175 23.4074 25.825 19.8824C26.11 19.2499 26.3575 18.5324 26.0175 17.9049Z" fill="#494949"/>
<path d="M20.3373 24.5353C20.2448 24.4503 20.1498 24.3728 20.0548 24.2853C19.034 23.3875 17.7139 22.9049 16.3548 22.9328C14.9548 22.9103 13.5923 23.3753 12.4998 24.2503C12.4048 24.3278 12.3048 24.4028 12.2123 24.5003C12.1198 24.5978 12.0698 24.6678 12.0098 24.7503C13.3848 25.2878 14.8498 25.5628 16.3273 25.5553H16.3673C17.7823 25.5553 19.1848 25.3028 20.5098 24.8053C20.4598 24.7103 20.4023 24.6203 20.3373 24.5353Z" fill="#DADADA"/>
<path d="M24.2325 17.2498C21.6671 17.9971 19.0071 18.3702 16.335 18.3573C13.663 18.3702 11.003 17.9971 8.43754 17.2498C8.11189 17.1261 7.75257 17.1236 7.42528 17.243C7.09798 17.3623 6.82457 17.5955 6.65504 17.8998C6.60504 17.9948 6.56504 18.0948 6.54004 18.1973C6.62254 18.2398 6.71754 18.2823 6.83004 18.3273C9.83993 19.8345 13.1666 20.5999 16.5325 20.5598C19.76 20.5973 22.95 19.8948 25.865 18.5098C25.9825 18.4598 26.08 18.4123 26.1675 18.3673C26.1475 18.2048 26.095 18.0448 26.0175 17.8998C25.848 17.5948 25.5742 17.3612 25.2463 17.2418C24.9184 17.1224 24.5585 17.1253 24.2325 17.2498Z" fill="white"/>
<path d="M26.0275 17.9074C25.8559 17.6011 25.5803 17.3664 25.2505 17.2458C24.9208 17.1252 24.5588 17.1267 24.23 17.2499C21.665 17.9974 19.005 18.3699 16.335 18.3574C13.663 18.3702 11.003 17.9972 8.43754 17.2499C8.11189 17.1261 7.75257 17.1237 7.42527 17.2431C7.09798 17.3624 6.82457 17.5956 6.65504 17.8999C6.31504 18.5274 6.56004 19.2549 6.84754 19.8824C6.97504 20.1649 7.11754 20.4424 7.27504 20.7099C7.27504 20.7099 6.75004 18.7649 7.20504 18.1999C7.28129 18.0818 7.38452 17.9835 7.50622 17.913C7.62793 17.8426 7.76462 17.8021 7.90504 17.7949C8.02254 17.7949 8.13754 17.8149 8.25004 17.8499C10.86 18.6174 13.5675 19.0049 16.29 18.9999H16.3775C19.1 19.0049 21.8075 18.6174 24.4175 17.8499C24.53 17.8149 24.645 17.7949 24.7625 17.7949C25.0475 17.8099 25.31 17.9599 25.465 18.1999C25.9275 18.7649 25.395 20.7174 25.395 20.7174C25.55 20.4499 25.705 20.1749 25.835 19.8899C26.12 19.2624 26.3675 18.5374 26.0275 17.9074Z" fill="#DADADA"/>
<defs>
<radialGradient id="paint0_radial_647_1328" cx="0" cy="0" r="1" gradientUnits="userSpaceOnUse" gradientTransform="translate(16.3999 15.725) scale(14.24)">
<stop offset="0.5" stop-color="#EBEBEB"/>
<stop offset="0.92" stop-color="#E4E4E4"/>
<stop offset="1" stop-color="#D6D6D6"/>
</radialGradient>
</defs>
</svg>
