<svg width="32" height="32" viewBox="0 0 32 32" fill="none" xmlns="http://www.w3.org/2000/svg">
<path d="M15.8999 29.7C8.9249 29.7 1.3999 25.325 1.3999 15.725C1.3999 6.125 8.9249 1.75 15.8999 1.75C19.7749 1.75 23.3499 3.025 25.9999 5.35C28.8749 7.9 30.3999 11.5 30.3999 15.725C30.3999 19.95 28.8749 23.525 25.9999 26.075C23.3499 28.4 19.7499 29.7 15.8999 29.7Z" fill="url(#paint0_radial_2246_1780)"/>
<path d="M27.8725 7.41699C29.205 9.56699 29.9 12.127 29.9 14.9745C29.9 19.1995 28.375 22.7745 25.5 25.3245C22.85 27.6495 19.25 28.9495 15.4 28.9495C10.885 28.9495 6.14998 27.112 3.35498 23.2145C6.04498 27.6295 11.105 29.6995 15.9 29.6995C19.75 29.6995 23.35 28.3995 26 26.0745C28.875 23.5245 30.4 19.9495 30.4 15.7245C30.4 12.5395 29.5325 9.70949 27.8725 7.41699Z" fill="#EB8F00"/>
<path d="M12.25 14.2224L12.2125 14.1724L12.105 14.0349L11.9725 13.8924C11.9175 13.8299 11.8525 13.7699 11.79 13.7049C11.7275 13.6399 11.65 13.5774 11.58 13.5249C11.515 13.4749 11.445 13.4274 11.37 13.3899C11.32 13.3624 11.265 13.3399 11.2075 13.3274C11.1901 13.3249 11.1724 13.3249 11.155 13.3274H11.1125H11.18H11.0425C11.005 13.3274 11.03 13.3274 11.0425 13.3274H11.0625H11.035C10.9775 13.3399 10.9225 13.3599 10.87 13.3899C10.7975 13.4299 10.725 13.4749 10.66 13.5249C10.5875 13.5799 10.5175 13.6399 10.4525 13.7049C10.32 13.8324 10.2025 13.9549 10.1275 14.0524L9.99754 14.2024L9.94004 14.2699C9.76586 14.4641 9.52608 14.5871 9.26674 14.6152C9.00741 14.6434 8.74682 14.5747 8.53504 14.4224C8.39788 14.3269 8.29057 14.1945 8.22553 14.0405C8.1605 13.8865 8.14039 13.7173 8.16754 13.5524C8.16754 13.5524 8.18504 13.4524 8.23254 13.2749C8.30754 13.0224 8.41254 12.7774 8.54504 12.5474C8.75754 12.1724 9.04504 11.8449 9.39004 11.5849C9.61754 11.4099 9.87004 11.2699 10.14 11.1724C10.215 11.1424 10.2925 11.1199 10.37 11.0999C10.4525 11.0749 10.535 11.0574 10.62 11.0424L10.7725 11.0199L10.9 11.0049H11.3625C11.4475 11.0049 11.53 11.0274 11.6125 11.0399C11.7725 11.0674 11.9325 11.1099 12.085 11.1674C12.355 11.2649 12.6075 11.4049 12.835 11.5799C13.18 11.8399 13.4675 12.1674 13.68 12.5424C13.7575 12.6724 13.825 12.8099 13.88 12.9499C13.9275 13.0624 13.9675 13.1749 14 13.2924C14.0175 13.3524 14.0325 13.4124 14.04 13.4724V13.5349C14.115 14.0449 13.76 14.5199 13.25 14.5949C13.2375 14.5974 13.225 14.5974 13.2125 14.5999C12.8475 14.6524 12.4825 14.5074 12.25 14.2224ZM22.115 14.2224L22.075 14.1724L21.9675 14.0349L21.835 13.8924C21.78 13.8299 21.715 13.7699 21.6525 13.7049C21.59 13.6399 21.5125 13.5774 21.4425 13.5249C21.3775 13.4749 21.3075 13.4274 21.2325 13.3899C21.1825 13.3624 21.1275 13.3399 21.07 13.3274C21.0526 13.3249 21.0349 13.3249 21.0175 13.3274H20.975H21.0425H20.905C20.8675 13.3274 20.8925 13.3274 20.905 13.3274H20.925H20.8975C20.84 13.3399 20.785 13.3599 20.7325 13.3899C20.66 13.4274 20.59 13.4749 20.525 13.5249C20.45 13.5799 20.38 13.6399 20.315 13.7049C20.1825 13.8324 20.065 13.9549 19.99 14.0524L19.86 14.2024L19.805 14.2699C19.6304 14.4641 19.3902 14.5871 19.1304 14.6152C18.8707 14.6434 18.6098 14.5747 18.3975 14.4224C18.2604 14.3269 18.1531 14.1945 18.088 14.0405C18.023 13.8865 18.0029 13.7173 18.03 13.5524C18.03 13.5524 18.0475 13.4524 18.0975 13.2749C18.1725 13.0199 18.275 12.7749 18.41 12.5474C18.6225 12.1724 18.9075 11.8449 19.2525 11.5849C19.48 11.4099 19.7325 11.2699 20.0025 11.1724C20.0775 11.1424 20.155 11.1199 20.2325 11.0999C20.315 11.0749 20.3975 11.0574 20.4825 11.0424L20.6375 11.0199L20.7625 11.0049H21.225C21.31 11.0049 21.3925 11.0274 21.475 11.0399C21.6375 11.0674 21.795 11.1099 21.9475 11.1674C22.2175 11.2649 22.47 11.4049 22.6975 11.5799C23.0425 11.8399 23.33 12.1674 23.5425 12.5424C23.62 12.6724 23.6875 12.8099 23.7425 12.9499C23.79 13.0599 23.83 13.1724 23.8625 13.2874C23.88 13.3474 23.895 13.4074 23.9025 13.4674V13.5299C23.9406 13.7749 23.8799 14.025 23.7336 14.2251C23.5873 14.4253 23.3675 14.5592 23.1225 14.5974C23.115 14.5974 23.1075 14.5999 23.1 14.5999C22.7275 14.6624 22.35 14.5174 22.115 14.2224ZM25.5175 17.9049C25.3485 17.5993 25.075 17.3649 24.7471 17.2447C24.4193 17.1244 24.0591 17.1262 23.7325 17.2499C21.1671 17.9972 18.5071 18.3702 15.835 18.3574C13.163 18.3702 10.503 17.9972 7.93754 17.2499C7.61189 17.1261 7.25257 17.1237 6.92527 17.243C6.59798 17.3624 6.32457 17.5955 6.15504 17.8999C5.81504 18.5274 6.06004 19.2549 6.34754 19.8824C7.95254 23.4074 11.49 25.5174 15.815 25.5299H15.855C20.18 25.5299 23.7175 23.4074 25.325 19.8824C25.61 19.2499 25.8575 18.5324 25.5175 17.9049Z" fill="#422B0D"/>
<path d="M19.8373 24.5353C19.7448 24.4503 19.6498 24.3728 19.5548 24.2853C18.534 23.3875 17.2139 22.9049 15.8548 22.9328C14.4548 22.9103 13.0923 23.3753 11.9998 24.2503C11.9048 24.3278 11.8048 24.4028 11.7123 24.5003C11.6198 24.5978 11.5698 24.6678 11.5098 24.7503C12.8848 25.2878 14.3498 25.5628 15.8273 25.5553H15.8673C17.2823 25.5553 18.6848 25.3028 20.0098 24.8053C19.9598 24.7103 19.9023 24.6203 19.8373 24.5353Z" fill="#F28F8F"/>
<path d="M23.7325 17.2498C21.1671 17.9971 18.5071 18.3702 15.835 18.3573C13.163 18.3702 10.503 17.9971 7.93754 17.2498C7.61189 17.1261 7.25257 17.1236 6.92528 17.243C6.59798 17.3623 6.32457 17.5955 6.15504 17.8998C6.10504 17.9948 6.06504 18.0948 6.04004 18.1973C6.12254 18.2398 6.21754 18.2823 6.33004 18.3273C9.33993 19.8345 12.6666 20.5999 16.0325 20.5598C19.26 20.5973 22.45 19.8948 25.365 18.5098C25.4825 18.4598 25.58 18.4123 25.6675 18.3673C25.6475 18.2048 25.595 18.0448 25.5175 17.8998C25.348 17.5948 25.0742 17.3612 24.7463 17.2418C24.4184 17.1224 24.0585 17.1253 23.7325 17.2498Z" fill="white"/>
<path d="M25.5275 17.9074C25.3559 17.6011 25.0803 17.3664 24.7505 17.2458C24.4208 17.1252 24.0588 17.1267 23.73 17.2499C21.165 17.9974 18.505 18.3699 15.835 18.3574C13.163 18.3702 10.503 17.9972 7.93754 17.2499C7.61189 17.1261 7.25257 17.1237 6.92527 17.2431C6.59798 17.3624 6.32457 17.5956 6.15504 17.8999C5.81504 18.5274 6.06004 19.2549 6.34754 19.8824C6.47504 20.1649 6.61754 20.4424 6.77504 20.7099C6.77504 20.7099 6.25004 18.7649 6.70504 18.1999C6.78129 18.0818 6.88452 17.9835 7.00622 17.913C7.12793 17.8426 7.26462 17.8021 7.40504 17.7949C7.52254 17.7949 7.63754 17.8149 7.75004 17.8499C10.36 18.6174 13.0675 19.0049 15.79 18.9999H15.8775C18.6 19.0049 21.3075 18.6174 23.9175 17.8499C24.03 17.8149 24.145 17.7949 24.2625 17.7949C24.5475 17.8099 24.81 17.9599 24.965 18.1999C25.4275 18.7649 24.895 20.7174 24.895 20.7174C25.05 20.4499 25.205 20.1749 25.335 19.8899C25.62 19.2624 25.8675 18.5374 25.5275 17.9074Z" fill="#EB8F00"/>
<defs>
<radialGradient id="paint0_radial_2246_1780" cx="0" cy="0" r="1" gradientUnits="userSpaceOnUse" gradientTransform="translate(15.8999 15.725) scale(14.24)">
<stop offset="0.5" stop-color="#FDE030"/>
<stop offset="0.92" stop-color="#F7C02B"/>
<stop offset="1" stop-color="#F4A223"/>
</radialGradient>
</defs>
</svg>
