<svg width="24" height="25" viewBox="0 0 24 25" fill="none" xmlns="http://www.w3.org/2000/svg">
<g clip-path="url(#clip0_623_3805)">
<path d="M19.7213 20.3605C19.1092 19.6291 18.8241 18.1315 19.0577 16.8769C19.294 15.6077 19.3329 12.8437 18.0197 10.4077C18.9604 7.29934 19.1713 4.01579 18.6358 0.812607C18.6273 0.763693 18.6092 0.716943 18.5825 0.675035C18.5559 0.633126 18.5213 0.596884 18.4806 0.568382C18.44 0.539881 18.3941 0.51968 18.3456 0.508939C18.2971 0.498197 18.247 0.497125 18.1981 0.505784L10.0247 0.500159C9.81546 0.500159 9.61219 0.5035 9.50323 0.6803C8.07882 2.99045 7.81662 8.11899 7.7703 9.63576C7.76485 9.81009 7.73713 9.98301 7.68783 10.1503C7.52635 10.6795 7.49777 11.2403 7.60463 11.7832C7.72471 12.4226 7.73917 13.0774 7.64743 13.7216C7.53927 14.7293 7.51999 15.7445 7.58981 16.7556C7.67394 18.9516 7.34002 21.4224 6.70907 21.6003C6.5171 21.6545 6.32531 21.7058 6.13742 21.7563C4.85644 22.0995 3.75 22.396 3.75 23.249C3.75 24.328 4.33926 24.4891 4.69059 24.4891C5.23519 24.4891 5.80943 24.4919 6.37534 24.4948C6.93107 24.4975 7.474 24.5002 7.9732 24.5002C8.67475 24.5002 9.28995 24.4949 9.73244 24.477C9.9793 24.4674 10.2171 24.3817 10.4133 24.2315C10.6095 24.0813 10.7543 23.8741 10.8279 23.6382C10.9771 23.154 11.0922 22.437 10.7938 21.7713C10.3986 20.8895 10.5261 19.3324 11.0903 18.1492C11.6605 16.953 12.4432 14.2193 11.8169 11.4697C11.9552 11.1787 12.3263 10.3828 12.7619 9.33666C12.4523 7.97596 11.951 5.44666 11.9212 3.22381C11.9199 3.12435 11.9581 3.02845 12.0275 2.95718C12.0969 2.88592 12.1917 2.84512 12.2912 2.84377H12.2963C12.3949 2.84381 12.4895 2.88265 12.5596 2.95189C12.6298 3.02112 12.6698 3.11519 12.6711 3.21374C12.7041 5.67275 13.3376 8.54174 13.6085 9.66106L13.6089 9.66404L13.6099 9.66815C13.6501 9.83241 13.6686 10.0013 13.6649 10.1704C13.6481 10.7149 13.7687 11.2549 14.0155 11.7406C14.2985 12.311 14.4843 12.9246 14.5653 13.5562C14.7262 14.5373 14.9748 15.5019 15.308 16.4386C15.9645 18.4869 16.2919 20.8972 15.7327 21.2208C15.5613 21.3199 15.3891 21.4166 15.2205 21.5112C14.069 22.1576 13.0745 22.7158 13.3019 23.5319C13.3136 23.5738 13.3239 23.6179 13.3345 23.6625C13.3903 23.8987 13.4668 24.222 13.7514 24.3915C13.8627 24.4571 13.9898 24.4908 14.1189 24.4892C14.2042 24.4884 14.2891 24.4769 14.3715 24.4548C15.1097 24.2639 15.9297 24.0678 16.7226 23.8782C17.7934 23.6221 18.805 23.3802 19.4067 23.1988C19.6416 23.1301 19.8492 22.9895 20.0001 22.7968C20.151 22.604 20.2377 22.3688 20.2479 22.1242C20.293 21.4918 20.1058 20.8646 19.7213 20.3605Z" fill="#FF5F2D"/>
</g>
<defs>
<clipPath id="clip0_623_3805">
<rect width="24" height="24" fill="white" transform="translate(0 0.5)"/>
</clipPath>
</defs>
</svg>
