<svg width="20" height="21" viewBox="0 0 20 21" fill="none" xmlns="http://www.w3.org/2000/svg">
<g clip-path="url(#clip0_2301_1869)">
<path d="M17.1834 7.54183C16.3084 3.69183 12.9501 1.9585 10.0001 1.9585C10.0001 1.9585 10.0001 1.9585 9.99175 1.9585C7.05008 1.9585 3.68341 3.6835 2.80841 7.5335C1.83341 11.8335 4.46675 15.4752 6.85008 17.7668C7.73341 18.6168 8.86675 19.0418 10.0001 19.0418C11.1334 19.0418 12.2667 18.6168 13.1417 17.7668C15.5251 15.4752 18.1584 11.8418 17.1834 7.54183ZM10.0001 11.7168C8.55008 11.7168 7.37508 10.5418 7.37508 9.09183C7.37508 7.64183 8.55008 6.46683 10.0001 6.46683C11.4501 6.46683 12.6251 7.64183 12.6251 9.09183C12.6251 10.5418 11.4501 11.7168 10.0001 11.7168Z" fill="white"/>
</g>
<defs>
<clipPath id="clip0_2301_1869">
<rect width="20" height="20" fill="white" transform="translate(0 0.5)"/>
</clipPath>
</defs>
</svg>
