<svg width="18" height="18" viewBox="0 0 18 18" fill="none" xmlns="http://www.w3.org/2000/svg">
<path d="M12.6 1.5H10.65C8.25 1.5 6.75 3 6.75 5.4V8.4375H11.4375C11.745 8.4375 12 8.6925 12 9C12 9.3075 11.745 9.5625 11.4375 9.5625H6.75V12.6C6.75 15 8.25 16.5 10.65 16.5H12.5925C14.9925 16.5 16.4925 15 16.4925 12.6V5.4C16.5 3 15 1.5 12.6 1.5Z" fill="currentColor"/>
<path d="M3.42 8.43738L4.9725 6.88488C5.085 6.77238 5.1375 6.62988 5.1375 6.48738C5.1375 6.34488 5.085 6.19488 4.9725 6.08988C4.755 5.87238 4.395 5.87238 4.1775 6.08988L1.665 8.60238C1.4475 8.81988 1.4475 9.17988 1.665 9.39738L4.1775 11.9099C4.395 12.1274 4.755 12.1274 4.9725 11.9099C5.19 11.6924 5.19 11.3324 4.9725 11.1149L3.42 9.56238H6.75V8.43738H3.42Z" fill="currentColor"/>
</svg>
