<svg width="24" height="25" viewBox="0 0 24 25" fill="none" xmlns="http://www.w3.org/2000/svg">
<path d="M21.25 18.9701L19.6 19.3601C19.23 19.4501 18.94 19.7301 18.86 20.1001L18.51 21.5701C18.32 22.3701 17.3 22.6201 16.77 21.9901L13.78 18.5501C13.54 18.2701 13.67 17.8301 14.03 17.7401C15.8 17.3101 17.39 16.3201 18.56 14.9101C18.75 14.6801 19.09 14.6501 19.3 14.8601L21.52 17.0801C22.28 17.8401 22.01 18.7901 21.25 18.9701Z" fill="#FF5F2D"/>
<path d="M2.69992 18.9701L4.34992 19.3601C4.71992 19.4501 5.00992 19.7301 5.08992 20.1001L5.43992 21.5701C5.62992 22.3701 6.64992 22.6201 7.17992 21.9901L10.1699 18.5501C10.4099 18.2701 10.2799 17.8301 9.91992 17.7401C8.14992 17.3101 6.55992 16.3201 5.38992 14.9101C5.19992 14.6801 4.85992 14.6501 4.64992 14.8601L2.42992 17.0801C1.66992 17.8401 1.93992 18.7901 2.69992 18.9701Z" fill="#FF5F2D"/>
<path d="M12 2.5C8.13 2.5 5 5.63 5 9.5C5 10.95 5.43 12.28 6.17 13.39C7.25 14.99 8.96 16.12 10.95 16.41C11.29 16.47 11.64 16.5 12 16.5C12.36 16.5 12.71 16.47 13.05 16.41C15.04 16.12 16.75 14.99 17.83 13.39C18.57 12.28 19 10.95 19 9.5C19 5.63 15.87 2.5 12 2.5ZM15.06 9.28L14.23 10.11C14.09 10.25 14.01 10.52 14.06 10.72L14.3 11.75C14.49 12.56 14.06 12.88 13.34 12.45L12.34 11.86C12.16 11.75 11.86 11.75 11.68 11.86L10.68 12.45C9.96 12.87 9.53 12.56 9.72 11.75L9.96 10.72C10 10.53 9.93 10.25 9.79 10.11L8.94 9.28C8.45 8.79 8.61 8.3 9.29 8.19L10.36 8.01C10.54 7.98 10.75 7.82 10.83 7.66L11.42 6.48C11.74 5.84 12.26 5.84 12.58 6.48L13.17 7.66C13.25 7.82 13.46 7.98 13.65 8.01L14.72 8.19C15.39 8.3 15.55 8.79 15.06 9.28Z" fill="#FF5F2D"/>
</svg>
