<svg width="20" height="20" viewBox="0 0 20 20" fill="none" xmlns="http://www.w3.org/2000/svg">
<g clip-path="url(#clip0_623_3461)">
<path d="M5.43541 0.883845L8.53588 6.26184C8.63158 6.41495 8.5933 6.60633 8.45933 6.7403C8.44019 6.7403 8.44019 6.75944 8.42105 6.77858C8.40191 6.79772 8.40191 6.79772 8.40191 6.81686V6.836C8.40191 6.85514 8.40191 6.836 8.40191 6.85514C8.40191 6.85514 8.40191 6.87428 8.38278 6.87428L7.71292 8.06088C7.6555 8.17571 7.52153 8.25227 7.38756 8.25227H5.8756C5.7799 8.25227 5.70335 8.29054 5.64593 8.34796C5.58852 8.40538 5.55024 8.48193 5.55024 8.57763V8.59676C5.55024 8.6159 5.55024 8.6159 5.55024 8.63504L5.56938 9.41973C5.58852 9.57284 5.51196 9.70681 5.37799 9.78337C5.1866 9.8982 4.95694 9.82164 4.86124 9.6494L0.0574163 1.28576C0.0191388 1.22834 0 1.17093 0 1.09437C0 0.883845 0.172249 0.711596 0.382775 0.711596H5.07177C5.20574 0.692458 5.35885 0.749874 5.43541 0.883845Z" fill="#686C83"/>
<path d="M14.5838 0.921856L11.4833 6.29985C11.3876 6.45296 11.4259 6.64434 11.5599 6.77832C11.579 6.77832 11.579 6.79745 11.5982 6.81659C11.6173 6.83573 11.6173 6.83573 11.6173 6.85487V6.87401C11.6173 6.89315 11.6173 6.87401 11.6173 6.89315C11.6173 6.89315 11.6173 6.91229 11.6364 6.91229L12.3063 8.09889C12.3637 8.21372 12.4977 8.29028 12.6317 8.29028H14.1436C14.2393 8.29028 14.3159 8.32855 14.3733 8.38597C14.4307 8.44339 14.469 8.51994 14.469 8.61564V8.63477C14.469 8.65391 14.469 8.65391 14.469 8.67305L14.4498 9.45774C14.4307 9.61085 14.5073 9.74482 14.6412 9.82138C14.8326 9.93621 15.0623 9.85966 15.158 9.68741L19.9427 1.34291C19.9809 1.28549 20.0001 1.22808 20.0001 1.15152C20.0001 0.940995 19.8278 0.768746 19.6173 0.768746H14.9283C14.8135 0.730469 14.6604 0.807024 14.5838 0.921856Z" fill="#686C83"/>
<path d="M9.91382 18.4535L11.2153 19.1999C11.5598 19.3913 11.9808 19.2764 12.1722 18.9319C12.1722 18.9128 12.1913 18.8937 12.1913 18.8745L12.8612 17.6879H14.3731C14.7559 17.6879 15.0813 17.3817 15.0813 16.9798L15.0621 15.5635L16.3636 14.798C16.7081 14.6066 16.8229 14.1664 16.6124 13.841C16.6124 13.8219 16.5932 13.8219 16.5932 13.8028L15.8851 12.6161L16.6315 11.2956C16.8229 10.9511 16.7081 10.53 16.3636 10.3386C16.3444 10.3386 16.3253 10.3195 16.3062 10.3195L15.1196 9.64964V8.13768C15.1196 7.75491 14.8133 7.42955 14.4114 7.42955L12.9952 7.44869L12.2296 6.14725C12.0382 5.80275 11.598 5.68792 11.2727 5.89845C11.2535 5.89845 11.2535 5.91758 11.2344 5.91758L10.0478 6.62572L8.72722 5.87931C8.38272 5.68792 7.96167 5.80275 7.77028 6.14725C7.77028 6.16639 7.75114 6.18553 7.75114 6.20467L7.08128 7.39127H5.56932C5.18655 7.39127 4.86119 7.69749 4.86119 8.0994L4.88033 9.51567L3.57889 10.2812C3.23439 10.4726 3.11956 10.9128 3.33009 11.2382C3.33009 11.2573 3.34923 11.2573 3.34923 11.2764L4.05736 12.463L3.31095 13.7645C3.11956 14.109 3.23439 14.53 3.57889 14.7214C3.59803 14.7214 3.61717 14.7406 3.63631 14.7406L4.82291 15.4104V16.9224C4.82291 17.3051 5.12913 17.6305 5.53104 17.6305L6.94731 17.6114L7.71286 18.9128C7.90425 19.2573 8.34444 19.3721 8.6698 19.1616C8.68894 19.1616 8.68894 19.1425 8.70808 19.1425L9.91382 18.4535Z" fill="#FCB912"/>
<path d="M11.6363 6.14707L12.4018 7.44851H12.9952L12.2487 6.14707C12.0574 5.82171 11.6746 5.70688 11.3301 5.85999C11.464 5.91741 11.5789 6.0131 11.6363 6.14707Z" fill="#F2A31E"/>
<path d="M16.6123 13.8029L15.9042 12.6163L16.6506 11.2957C16.842 10.9512 16.7272 10.5302 16.3827 10.3388C16.3635 10.3388 16.3444 10.3196 16.3252 10.3196L15.1386 9.64978V8.13782C15.1386 7.75505 14.8324 7.42969 14.4305 7.42969H13.9138C14.2583 7.46797 14.5453 7.75505 14.5453 8.11868V9.63064L15.7319 10.3005C15.7511 10.3005 15.7702 10.3196 15.7894 10.3196C16.1339 10.511 16.2487 10.9512 16.0573 11.2766L15.3109 12.5972L16.019 13.7838C16.019 13.8029 16.0382 13.8029 16.0382 13.822C16.2295 14.1665 16.1147 14.5876 15.7894 14.779L14.4879 15.5445L14.5071 16.9608C14.5071 17.3436 14.2008 17.6689 13.7989 17.6689H12.287L11.6171 18.8555C11.6171 18.8747 11.598 18.8938 11.598 18.9129C11.5214 19.0469 11.4066 19.1426 11.2917 19.2C11.6171 19.3531 12.019 19.2383 12.2104 18.9129C12.2104 18.8938 12.2295 18.8747 12.2295 18.8555L12.8994 17.6689H14.4114C14.7941 17.6689 15.1195 17.3627 15.1195 16.9608L15.1004 15.5445L16.4018 14.779C16.7463 14.5876 16.8611 14.1474 16.6506 13.822C16.6315 13.822 16.6123 13.8029 16.6123 13.8029Z" fill="#F2A31E"/>
<path d="M13.4353 15.7354C12.6124 16.5583 11.4832 17.056 10.2392 17.056C8.99514 17.056 7.84681 16.5392 7.04299 15.7354C6.22002 14.9124 5.72241 13.7832 5.72241 12.5392C5.72241 11.2952 6.23916 10.1469 7.04299 9.34304C7.86595 8.52007 8.99514 8.02246 10.2392 8.02246C11.4832 8.02246 12.6315 8.53921 13.4353 9.34304C14.2583 10.166 14.7559 11.2952 14.7559 12.5392C14.775 13.7832 14.2583 14.9124 13.4353 15.7354ZM10.2392 16.2904C11.2727 16.2904 12.2105 15.8694 12.8994 15.1804C13.5884 14.4914 14.0095 13.5536 14.0095 12.5201C14.0095 11.4866 13.5884 10.5488 12.8994 9.85978C12.2105 9.17079 11.2727 8.74973 10.2392 8.74973C9.20567 8.74973 8.26787 9.17079 7.57887 9.85978C6.88988 10.5488 6.46882 11.4866 6.46882 12.5201C6.46882 13.5536 6.88988 14.4914 7.57887 15.1804C8.26787 15.8694 9.20567 16.2904 10.2392 16.2904Z" fill="#F2A31E"/>
<path d="M10.5646 10.6641L10.9473 11.8699H12.2296C12.421 11.8699 12.555 12.023 12.555 12.1952C12.555 12.3101 12.4976 12.4058 12.421 12.4632L11.3875 13.2096L11.7894 14.4153C11.8469 14.5876 11.7512 14.779 11.5789 14.8364C11.4641 14.8747 11.3493 14.8364 11.2536 14.779L10.2392 14.0326L9.20571 14.779C9.0526 14.8938 8.84208 14.8555 8.74638 14.7024C8.68897 14.6067 8.66983 14.511 8.7081 14.3962L9.11002 13.1905L8.05739 12.4823C7.90428 12.3675 7.866 12.157 7.98083 12.023C8.05739 11.9273 8.17222 11.8699 8.26791 11.889H9.51193L9.89471 10.6833C9.95212 10.511 10.1435 10.4153 10.3158 10.4727C10.4497 10.4919 10.5263 10.5684 10.5646 10.6641Z" fill="#F2A31E"/>
<path d="M13.1866 15.7354C12.3636 16.5583 11.2344 17.056 9.99038 17.056C8.74636 17.056 7.59803 16.5392 6.79421 15.7354C5.97124 14.9124 5.47363 13.7832 5.47363 12.5392C5.47363 11.2952 5.99038 10.1469 6.79421 9.34304C7.61717 8.52007 8.74636 8.02246 9.99038 8.02246C11.2344 8.02246 12.3827 8.53921 13.1866 9.34304C14.0095 10.166 14.5071 11.2952 14.5071 12.5392C14.5071 13.7832 14.0095 14.9124 13.1866 15.7354ZM9.99038 16.2904C11.0239 16.2904 11.9617 15.8694 12.6507 15.1804C13.3397 14.4914 13.7607 13.5536 13.7607 12.5201C13.7607 11.4866 13.3397 10.5488 12.6507 9.85978C11.9617 9.17079 11.0239 8.74973 9.99038 8.74973C8.95689 8.74973 8.01909 9.17079 7.33009 9.85978C6.6411 10.5488 6.22004 11.4866 6.22004 12.5201C6.22004 13.5536 6.6411 14.4914 7.33009 15.1804C7.99995 15.8694 8.93775 16.2904 9.99038 16.2904Z" fill="#FCF8CF"/>
<path d="M10.2966 10.6632L10.6794 11.8689H11.9617C12.1531 11.8689 12.2871 12.022 12.2871 12.1943C12.2871 12.3091 12.2297 12.4048 12.1531 12.4622L11.1196 13.2086L11.5215 14.4144C11.5789 14.5866 11.4832 14.778 11.311 14.8354C11.1962 14.8737 11.0813 14.8354 10.9856 14.778L9.97129 14.0316L8.93779 14.778C8.78468 14.8928 8.57416 14.8545 8.47846 14.7014C8.42105 14.6057 8.40191 14.51 8.44019 14.3952L8.8421 13.1895L7.80861 12.4813C7.6555 12.3665 7.61722 12.156 7.73205 12.022C7.80861 11.9263 7.92344 11.8689 8.01913 11.888H9.26315L9.64593 10.6823C9.70334 10.51 9.89473 10.4144 10.067 10.4718C10.201 10.4909 10.2775 10.5675 10.2966 10.6632Z" fill="#FCF8CF"/>
</g>
<defs>
<clipPath id="clip0_623_3461">
<rect width="20" height="20" fill="white"/>
</clipPath>
</defs>
</svg>
