<svg width="21" height="20" viewBox="0 0 21 20" fill="none" xmlns="http://www.w3.org/2000/svg">
<path d="M13.4917 10.3333V13.725C13.4917 14.025 13.4584 14.3083 13.3834 14.5667C13.0751 15.7917 12.0584 16.5583 10.6584 16.5583H8.39175L5.87508 18.2333C5.50008 18.4917 5.00008 18.2167 5.00008 17.7667V16.5583C4.15008 16.5583 3.44175 16.275 2.95008 15.7833C2.45008 15.2833 2.16675 14.575 2.16675 13.725V10.3333C2.16675 8.75 3.15008 7.65833 4.66675 7.51667C4.77508 7.50833 4.88341 7.5 5.00008 7.5H10.6584C12.3584 7.5 13.4917 8.63333 13.4917 10.3333Z" fill="#131313"/>
<path d="M15.2917 13.0003C16.3501 13.0003 17.2417 12.6503 17.8584 12.0253C18.4834 11.4087 18.8334 10.517 18.8334 9.45866V5.20866C18.8334 3.25033 17.2501 1.66699 15.2917 1.66699H8.20842C6.25008 1.66699 4.66675 3.25033 4.66675 5.20866V5.83366C4.66675 6.06699 4.85008 6.25033 5.08341 6.25033H10.6584C12.9167 6.25033 14.7417 8.07533 14.7417 10.3337V12.5837C14.7417 12.817 14.9251 13.0003 15.1584 13.0003H15.2917Z" fill="#131313"/>
</svg>
