<svg width="20" height="21" viewBox="0 0 20 21" fill="none" xmlns="http://www.w3.org/2000/svg">
<path d="M13.5333 2.16669H6.46665C4.16665 2.16669 3.33331 3.00002 3.33331 5.34169V15.6584C3.33331 18 4.16665 18.8334 6.46665 18.8334H13.525C15.8333 18.8334 16.6666 18 16.6666 15.6584V5.34169C16.6666 3.00002 15.8333 2.16669 13.5333 2.16669ZM9.99998 16.5834C9.19998 16.5834 8.54165 15.925 8.54165 15.125C8.54165 14.325 9.19998 13.6667 9.99998 13.6667C10.8 13.6667 11.4583 14.325 11.4583 15.125C11.4583 15.925 10.8 16.5834 9.99998 16.5834ZM11.6666 5.70835H8.33331C7.99165 5.70835 7.70831 5.42502 7.70831 5.08335C7.70831 4.74169 7.99165 4.45835 8.33331 4.45835H11.6666C12.0083 4.45835 12.2916 4.74169 12.2916 5.08335C12.2916 5.42502 12.0083 5.70835 11.6666 5.70835Z" fill="currentColor"/>
</svg>
