<svg width="32" height="32" viewBox="0 0 32 32" fill="none" xmlns="http://www.w3.org/2000/svg">
<path d="M15.8999 29.7C8.9249 29.7 1.3999 25.325 1.3999 15.725C1.3999 6.125 8.9249 1.75 15.8999 1.75C19.7749 1.75 23.3499 3.025 25.9999 5.35C28.8749 7.9 30.3999 11.5 30.3999 15.725C30.3999 19.95 28.8749 23.525 25.9999 26.075C23.3499 28.4 19.7499 29.7 15.8999 29.7Z" fill="url(#paint0_radial_2246_1796)"/>
<path d="M27.8725 7.41699C29.205 9.56699 29.9 12.127 29.9 14.9745C29.9 19.1995 28.375 22.7745 25.5 25.3245C22.85 27.6495 19.25 28.9495 15.4 28.9495C10.885 28.9495 6.14998 27.112 3.35498 23.2145C6.04498 27.6295 11.105 29.6995 15.9 29.6995C19.75 29.6995 23.35 28.3995 26 26.0745C28.875 23.5245 30.4 19.9495 30.4 15.7245C30.4 12.5395 29.5325 9.70949 27.8725 7.41699Z" fill="#EB8F00"/>
<path d="M22.25 22.0004H9.75C9.1975 22.0004 8.75 21.5529 8.75 21.0004C8.75 20.4479 9.1975 20.0004 9.75 20.0004H22.25C22.8025 20.0004 23.25 20.4479 23.25 21.0004C23.25 21.5529 22.8025 22.0004 22.25 22.0004ZM11.1675 11.4854C10.12 11.4854 9.1675 12.3704 9.1675 13.8404C9.1675 15.3104 10.12 16.1929 11.1675 16.1929C12.215 16.1929 13.1675 15.3079 13.1675 13.8404C13.1675 12.3729 12.215 11.4854 11.1675 11.4854Z" fill="#422B0D"/>
<path d="M11.0701 12.4671C10.8989 12.3857 10.7025 12.3752 10.5236 12.438C10.3447 12.5007 10.1979 12.6316 10.1151 12.8021C9.98259 13.0796 10.0426 13.4121 10.2651 13.6271C10.6201 13.7971 11.0476 13.6471 11.2201 13.2921C11.3526 13.0146 11.2926 12.6821 11.0701 12.4671Z" fill="#896024"/>
<path d="M20.75 11.4854C19.7025 11.4854 18.75 12.3704 18.75 13.8404C18.75 15.3104 19.7025 16.1929 20.75 16.1929C21.7975 16.1929 22.75 15.3079 22.75 13.8404C22.75 12.3729 21.8025 11.4854 20.75 11.4854Z" fill="#422B0D"/>
<path d="M20.6575 12.4671C20.4863 12.3857 20.2899 12.3752 20.111 12.438C19.9321 12.5007 19.7853 12.6316 19.7025 12.8021C19.57 13.0796 19.63 13.4121 19.8525 13.6271C20.2075 13.7971 20.635 13.6471 20.8075 13.2921C20.94 13.0146 20.88 12.6821 20.6575 12.4671Z" fill="#896024"/>
<defs>
<radialGradient id="paint0_radial_2246_1796" cx="0" cy="0" r="1" gradientUnits="userSpaceOnUse" gradientTransform="translate(15.8999 15.725) scale(14.24)">
<stop offset="0.5" stop-color="#FDE030"/>
<stop offset="0.92" stop-color="#F7C02B"/>
<stop offset="1" stop-color="#F4A223"/>
</radialGradient>
</defs>
</svg>
