<svg width="33" height="32" viewBox="0 0 33 32" fill="none" xmlns="http://www.w3.org/2000/svg">
<path d="M16.3999 29.7C9.4249 29.7 1.8999 25.325 1.8999 15.725C1.8999 6.125 9.4249 1.75 16.3999 1.75C20.2749 1.75 23.8499 3.025 26.4999 5.35C29.3749 7.9 30.8999 11.5 30.8999 15.725C30.8999 19.95 29.3749 23.525 26.4999 26.075C23.8499 28.4 20.2499 29.7 16.3999 29.7Z" fill="url(#paint0_radial_647_1344)"/>
<path d="M28.3725 7.41699C29.705 9.56699 30.4 12.127 30.4 14.9745C30.4 19.1995 28.875 22.7745 26 25.3245C23.35 27.6495 19.75 28.9495 15.9 28.9495C11.385 28.9495 6.64998 27.112 3.85498 23.2145C6.54498 27.6295 11.605 29.6995 16.4 29.6995C20.25 29.6995 23.85 28.3995 26.5 26.0745C29.375 23.5245 30.9 19.9495 30.9 15.7245C30.9 12.5395 30.0325 9.70949 28.3725 7.41699Z" fill="#D5D5D5"/>
<path d="M22.75 22.0004H10.25C9.6975 22.0004 9.25 21.5529 9.25 21.0004C9.25 20.4479 9.6975 20.0004 10.25 20.0004H22.75C23.3025 20.0004 23.75 20.4479 23.75 21.0004C23.75 21.5529 23.3025 22.0004 22.75 22.0004ZM11.6675 11.4854C10.62 11.4854 9.6675 12.3704 9.6675 13.8404C9.6675 15.3104 10.62 16.1929 11.6675 16.1929C12.715 16.1929 13.6675 15.3079 13.6675 13.8404C13.6675 12.3729 12.715 11.4854 11.6675 11.4854Z" fill="#494949"/>
<path d="M11.5701 12.4671C11.3989 12.3857 11.2025 12.3752 11.0236 12.438C10.8447 12.5007 10.6979 12.6316 10.6151 12.8021C10.4826 13.0796 10.5426 13.4121 10.7651 13.6271C11.1201 13.7971 11.5476 13.6471 11.7201 13.2921C11.8526 13.0146 11.7926 12.6821 11.5701 12.4671Z" fill="#7C7C7C"/>
<path d="M21.25 11.4854C20.2025 11.4854 19.25 12.3704 19.25 13.8404C19.25 15.3104 20.2025 16.1929 21.25 16.1929C22.2975 16.1929 23.25 15.3079 23.25 13.8404C23.25 12.3729 22.3025 11.4854 21.25 11.4854Z" fill="#494949"/>
<path d="M21.1575 12.4671C20.9863 12.3857 20.7899 12.3752 20.611 12.438C20.4321 12.5007 20.2853 12.6316 20.2025 12.8021C20.07 13.0796 20.13 13.4121 20.3525 13.6271C20.7075 13.7971 21.135 13.6471 21.3075 13.2921C21.44 13.0146 21.38 12.6821 21.1575 12.4671Z" fill="#7C7C7C"/>
<defs>
<radialGradient id="paint0_radial_647_1344" cx="0" cy="0" r="1" gradientUnits="userSpaceOnUse" gradientTransform="translate(16.3999 15.725) scale(14.24)">
<stop offset="0.5" stop-color="#EBEBEB"/>
<stop offset="0.92" stop-color="#E4E4E4"/>
<stop offset="1" stop-color="#D6D6D6"/>
</radialGradient>
</defs>
</svg>
