<svg width="30" height="30" viewBox="0 0 30 30" fill="none" xmlns="http://www.w3.org/2000/svg">
<g clip-path="url(#clip0_559_2031)">
<path d="M15 30.0001C23.2843 30.0001 30.0001 23.2843 30.0001 15C30.0001 6.71574 23.2843 0 15 0C6.71574 0 0 6.71574 0 15C0 23.2843 6.71574 30.0001 15 30.0001Z" fill="#FF9827"/>
<path d="M24.2378 24.2409C29.3414 19.1373 29.3414 10.8627 24.2378 5.75912C19.1342 0.655515 10.8596 0.655514 5.75602 5.75911C0.652422 10.8627 0.652422 19.1373 5.75602 24.2409C10.8596 29.3445 19.1342 29.3445 24.2378 24.2409Z" fill="#FFDD99"/>
<path d="M12.4964 15.5571H3.59387C3.31202 15.5571 3.09003 15.7994 3.11523 16.0801C3.33821 18.5646 4.3218 20.8297 5.83237 22.6403C6.01269 22.8564 6.34077 22.8699 6.5398 22.6709L12.8354 16.3754C13.1374 16.0734 12.9235 15.5571 12.4964 15.5571Z" fill="#FFCC3B"/>
<path d="M26.407 15.5571H17.5014C17.0751 15.5571 16.8617 16.0725 17.1631 16.3739L23.4607 22.6715C23.6594 22.8702 23.9868 22.8567 24.1669 22.641C25.678 20.8301 26.662 18.5643 26.8847 16.0792C26.9099 15.799 26.6884 15.5571 26.407 15.5571Z" fill="#FFCC3B"/>
<path d="M13.6188 17.1691L7.33099 23.457C7.13063 23.6573 7.14419 23.9875 7.36174 24.1689C9.17116 25.6777 11.4341 26.6603 13.9159 26.8837C14.1984 26.9091 14.4424 26.6856 14.4424 26.402V17.5102C14.4424 17.0805 13.9228 16.8652 13.6188 17.1691Z" fill="#FFCC3B"/>
<path d="M3.62364 14.4419H12.4306C12.882 14.4419 13.108 13.8962 12.7888 13.5771L6.56085 7.34917C6.35051 7.13883 6.00338 7.15265 5.81334 7.38159C4.3195 9.18115 3.34504 11.4268 3.11789 13.8891C3.09051 14.1857 3.32579 14.4419 3.62364 14.4419Z" fill="#FFCC3B"/>
<path d="M16.4288 12.7821L22.6475 6.56346C22.8593 6.35159 22.8454 6.00175 22.6149 5.81045C20.8167 4.31893 18.5738 3.34566 16.1144 3.11792C15.8157 3.09027 15.5576 3.32734 15.5576 3.62737V12.4213C15.5576 12.8759 16.1073 13.1036 16.4288 12.7821Z" fill="#FFCC3B"/>
<path d="M16.3752 17.1632C16.0735 16.8615 15.5576 17.0752 15.5576 17.5019V26.4058C15.5576 26.6874 15.7998 26.9093 16.0802 26.8841C18.565 26.6612 20.8304 25.6774 22.6412 24.1665C22.8571 23.9863 22.8706 23.6585 22.6717 23.4597L16.3752 17.1632Z" fill="#FFCC3B"/>
<path d="M13.9122 3.11528C11.433 3.33925 9.1724 4.32072 7.36444 5.82739C7.14529 6.00995 7.13173 6.34254 7.33341 6.54421L13.613 12.8238C13.919 13.1298 14.4422 12.9131 14.4422 12.4804V3.60033C14.4422 3.31471 14.1966 3.08961 13.9122 3.11528Z" fill="#FFCC3B"/>
<path d="M17.5719 14.4418H26.3751C26.6736 14.4418 26.9093 14.1851 26.8819 13.8879C26.6546 11.4265 25.6805 9.18156 24.1873 7.38246C23.9969 7.15306 23.649 7.13917 23.4383 7.34998L17.213 13.5752C16.8931 13.895 17.1196 14.4418 17.5719 14.4418Z" fill="#FFCC3B"/>
<path d="M15 28.0703C7.7814 28.0703 1.92948 22.2185 1.92948 14.9998C1.92948 11.2622 3.50084 7.89365 6.01583 5.51147C6.5071 4.15204 7.18159 2.88032 8.0096 1.72607C3.24684 4.23955 0 9.24005 0 14.9998C0 23.2841 6.71572 29.9999 15 29.9999C19.1023 29.9999 22.8193 28.3524 25.5274 25.6838C24.2014 26.1133 22.7978 26.3701 21.343 26.4281C19.4642 27.473 17.3023 28.0703 15 28.0703Z" fill="#F4891E"/>
<path d="M1.92944 15C1.92944 22.2187 7.78137 28.0706 15 28.0706C17.3023 28.0706 19.4642 27.4732 21.3429 26.4282C21.133 26.4366 20.9224 26.4421 20.7104 26.4421C20.0556 26.4421 19.4105 26.4012 18.7768 26.3229C17.9173 26.6093 17.0143 26.8008 16.0803 26.8845C15.7998 26.9097 15.5577 26.6879 15.5577 26.4063V25.571C15.179 25.4387 14.807 25.2922 14.4423 25.1322V26.4024C14.4423 26.686 14.1983 26.9096 13.9158 26.8841C11.4339 26.6607 9.17096 25.6781 7.36161 24.1694C7.14405 23.9879 7.13049 23.6576 7.33085 23.4574L9.30015 21.4881C9.04562 21.2159 8.80074 20.9348 8.56599 20.6449L6.53981 22.6711C6.34078 22.8701 6.0127 22.8566 5.83238 22.6405C4.32181 20.8299 3.33815 18.5647 3.11524 16.0804C3.09004 15.7997 3.31209 15.5573 3.59394 15.5573H5.82147C5.70512 15.1912 5.60193 14.8192 5.51237 14.4419H3.6237C3.32585 14.4419 3.09057 14.1858 3.11795 13.8892C3.32049 11.6937 4.11834 9.6715 5.34753 7.98313C5.5035 7.13328 5.7282 6.30745 6.0158 5.51172C3.50074 7.8939 1.92944 11.2624 1.92944 15Z" fill="#F4CD87"/>
<path d="M3.11523 16.0801C3.33821 18.5645 4.3218 20.8297 5.83237 22.6403C6.01269 22.8564 6.34077 22.8699 6.5398 22.6709L8.56598 20.6447C7.35664 19.1514 6.41704 17.431 5.82139 15.5571H3.59393C3.31208 15.5571 3.09003 15.7994 3.11523 16.0801Z" fill="#FFB93E"/>
<path d="M7.36174 24.1695C9.17116 25.6782 11.4341 26.6608 13.9159 26.8843C14.1984 26.9097 14.4424 26.6862 14.4424 26.4025V25.1324C12.486 24.2743 10.7394 23.027 9.30028 21.4883L7.33099 23.4575C7.13063 23.6578 7.14419 23.9881 7.36174 24.1695Z" fill="#FFB93E"/>
<path d="M3.62371 14.4418H5.51231C5.23641 13.2796 5.08957 12.0675 5.08957 10.821C5.08957 9.85173 5.17854 8.90333 5.34747 7.98291C4.11828 9.67128 3.32043 11.6936 3.11789 13.889C3.09051 14.1857 3.32579 14.4418 3.62371 14.4418Z" fill="#FFB93E"/>
<path d="M16.0802 26.8843C17.0142 26.8005 17.9172 26.6091 18.7767 26.3227C17.663 26.1852 16.586 25.93 15.5576 25.5708V26.4061C15.5576 26.6876 15.7998 26.9094 16.0802 26.8843Z" fill="#FFB93E"/>
<path d="M21.0811 6.96889C21.4284 6.24541 20.7033 5.17566 19.4615 4.57954C18.2197 3.98342 16.9315 4.08667 16.5842 4.81014C16.2369 5.53362 16.962 6.60337 18.2038 7.19949C19.4456 7.79561 20.7338 7.69236 21.0811 6.96889Z" fill="#FFD773"/>
</g>
<defs>
<clipPath id="clip0_559_2031">
<rect width="30" height="30" fill="white"/>
</clipPath>
</defs>
</svg>
