<svg width="22" height="19" viewBox="0 0 22 19" fill="none" xmlns="http://www.w3.org/2000/svg">
<path fill-rule="evenodd" clip-rule="evenodd" d="M3.18287 12.8335H1.58281C1.47332 12.8335 1.38019 12.9131 1.36312 13.0211L0.715973 17.1242C0.70311 17.2052 0.765811 17.2781 0.847934 17.2781H1.61182C1.72131 17.2781 1.81444 17.1985 1.83151 17.0903L2.00605 15.9836C2.02289 15.8753 2.11624 15.7958 2.22551 15.7958H2.73203C3.78605 15.7958 4.39432 15.2857 4.55326 14.275C4.62483 13.8328 4.55629 13.4854 4.34917 13.242C4.1218 12.9749 3.71838 12.8335 3.18287 12.8335ZM3.36747 14.3321C3.27999 14.9062 2.8413 14.9062 2.41713 14.9062H2.17567L2.34506 13.8339C2.35512 13.7692 2.41127 13.7214 2.47678 13.7214H2.58745C2.87639 13.7214 3.14898 13.7214 3.28984 13.8861C3.37375 13.9844 3.39952 14.1304 3.36747 14.3321ZM7.96585 14.3137H7.19962C7.13433 14.3137 7.07792 14.3614 7.06785 14.4263L7.03396 14.6405L6.98037 14.5629C6.8145 14.3221 6.44464 14.2417 6.07544 14.2417C5.22865 14.2417 4.50551 14.883 4.36465 15.7826C4.29146 16.2313 4.39551 16.6603 4.65005 16.9596C4.88359 17.2347 5.21772 17.3494 5.61518 17.3494C6.29739 17.3494 6.6758 16.9107 6.6758 16.9107L6.64159 17.1236C6.6287 17.205 6.69139 17.278 6.77303 17.278H7.46326C7.57304 17.278 7.66561 17.1984 7.68294 17.0902L8.09707 14.4676C8.11017 14.387 8.0477 14.3137 7.96585 14.3137ZM6.89776 15.805C6.82381 16.2427 6.47637 16.5366 6.03332 16.5366C5.81082 16.5366 5.63294 16.4652 5.51882 16.33C5.40557 16.1957 5.36247 16.0045 5.39853 15.7917C5.46761 15.3576 5.82089 15.0542 6.25723 15.0542C6.47474 15.0542 6.65166 15.1265 6.76816 15.2629C6.88487 15.4007 6.93121 15.593 6.89776 15.805ZM11.2767 14.3136H12.0467C12.1545 14.3136 12.2174 14.4345 12.1562 14.523L9.59522 18.2195C9.55375 18.2794 9.48543 18.315 9.41246 18.315H8.64341C8.53514 18.315 8.47191 18.1931 8.5346 18.1044L9.33201 16.9789L8.48393 14.4899C8.45458 14.4034 8.51846 14.3136 8.6105 14.3136H9.36709C9.4654 14.3136 9.55213 14.3781 9.58049 14.4722L10.0306 15.9754L11.0926 14.4111C11.1342 14.35 11.2033 14.3136 11.2767 14.3136Z" fill="#253B80"/>
<path fill-rule="evenodd" clip-rule="evenodd" d="M19.625 17.1244L20.2817 12.9463C20.2918 12.8815 20.348 12.8337 20.4132 12.8335H21.1525C21.2342 12.8335 21.2968 12.9067 21.284 12.9877L20.6364 17.0905C20.6195 17.1988 20.5264 17.2783 20.4167 17.2783H19.7565C19.6748 17.2783 19.6122 17.2054 19.625 17.1244ZM14.596 12.8337H12.9956C12.8864 12.8337 12.7932 12.9133 12.7761 13.0213L12.129 17.1244C12.1161 17.2054 12.1788 17.2783 12.2606 17.2783H13.0817C13.158 17.2783 13.2233 17.2227 13.2352 17.1469L13.4188 15.9839C13.4357 15.8755 13.5291 15.796 13.6383 15.796H14.1446C15.1988 15.796 15.807 15.2859 15.966 14.2752C16.0378 13.8331 15.9688 13.4856 15.7618 13.2422C15.5346 12.9751 15.1315 12.8337 14.596 12.8337ZM14.7806 14.3323C14.6933 14.9065 14.2546 14.9065 13.8302 14.9065H13.5889L13.7586 13.8341C13.7687 13.7694 13.8243 13.7216 13.89 13.7216H14.0007C14.2894 13.7216 14.5623 13.7216 14.703 13.8863C14.7871 13.9846 14.8126 14.1306 14.7806 14.3323ZM19.3785 14.3139H18.6128C18.547 14.3139 18.4911 14.3616 18.4813 14.4265L18.4474 14.6408L18.3936 14.5631C18.2277 14.3223 17.8581 14.2419 17.4888 14.2419C16.6421 14.2419 15.9191 14.8832 15.7783 15.7828C15.7053 16.2315 15.8089 16.6605 16.0635 16.9598C16.2974 17.2349 16.6311 17.3496 17.0286 17.3496C17.7108 17.3496 18.0891 16.9109 18.0891 16.9109L18.055 17.1238C18.0421 17.2053 18.1048 17.2782 18.187 17.2782H18.8769C18.9861 17.2782 19.0792 17.1987 19.0963 17.0904L19.5107 14.4678C19.5234 14.3872 19.4607 14.3139 19.3785 14.3139ZM18.3105 15.8052C18.237 16.2429 17.8891 16.5368 17.446 16.5368C17.2239 16.5368 17.0457 16.4654 16.9315 16.3302C16.8182 16.196 16.7757 16.0048 16.8113 15.7919C16.8807 15.3578 17.2335 15.0545 17.6699 15.0545C17.8875 15.0545 18.0643 15.1267 18.1809 15.2631C18.2981 15.4009 18.3444 15.5932 18.3105 15.8052Z" fill="#179BD7"/>
<path d="M9.10435 11.3655L9.30108 10.1161L8.8629 10.1059H6.77057L8.22465 0.885957C8.22909 0.85812 8.24381 0.832168 8.26525 0.81374C8.28669 0.795312 8.31419 0.785156 8.34277 0.785156H11.8708C13.0421 0.785156 13.8503 1.02888 14.2723 1.50994C14.4701 1.73562 14.5962 1.97145 14.6571 2.23097C14.721 2.5033 14.7222 2.82864 14.6597 3.22545L14.6552 3.25442V3.50867L14.8531 3.62076C15.0197 3.70914 15.152 3.81032 15.2536 3.92617C15.4229 4.11912 15.5324 4.36436 15.5786 4.6551C15.6264 4.95412 15.6106 5.30993 15.5324 5.71276C15.4421 6.17615 15.2961 6.57973 15.0991 6.90997C14.9177 7.21425 14.6868 7.46658 14.4127 7.66222C14.1509 7.84802 13.8398 7.98909 13.4881 8.07939C13.1473 8.16806 12.7588 8.21289 12.3327 8.21289H12.0581C11.8618 8.21289 11.671 8.28359 11.5214 8.41038C11.3713 8.53976 11.2719 8.71646 11.2415 8.90983L11.2208 9.02232L10.8733 11.2244L10.8575 11.3053C10.8534 11.331 10.8462 11.3438 10.8357 11.3524C10.8263 11.3602 10.8128 11.3655 10.7995 11.3655H9.10435Z" fill="#253B80"/>
<path d="M15.0404 3.28418C15.0299 3.3515 15.0179 3.42033 15.0044 3.49104C14.539 5.87981 12.9473 6.70503 10.9143 6.70503H9.87927C9.63068 6.70503 9.42117 6.88556 9.38241 7.1308L8.85243 10.4919L8.70236 11.4446C8.67713 11.6056 8.80132 11.7507 8.96373 11.7507H10.7997C11.0171 11.7507 11.2017 11.5928 11.2359 11.3784L11.254 11.2851L11.5997 9.09151L11.6219 8.97122C11.6557 8.75608 11.8407 8.59812 12.0581 8.59812H12.3327C14.1114 8.59812 15.5038 7.87595 15.9108 5.78616C16.0808 4.91317 15.9928 4.18425 15.5429 3.67158C15.4068 3.51699 15.2379 3.38874 15.0404 3.28418Z" fill="#179BD7"/>
<path d="M14.5535 3.09034C14.4825 3.06965 14.4091 3.05084 14.3339 3.03392C14.2583 3.01737 14.1808 3.0027 14.1011 2.98992C13.822 2.94478 13.5162 2.92334 13.1886 2.92334H10.4233C10.3552 2.92334 10.2906 2.93876 10.2327 2.96659C10.1051 3.0279 10.0104 3.14864 9.98744 3.29645L9.39909 7.02235L9.3822 7.13104C9.42096 6.88581 9.63047 6.70527 9.87906 6.70527H10.9141C12.9471 6.70527 14.5389 5.87968 15.0042 3.49129C15.018 3.42057 15.0297 3.35175 15.0402 3.28442C14.9225 3.22198 14.795 3.16857 14.6577 3.12306C14.6239 3.11177 14.589 3.10087 14.5535 3.09034Z" fill="#222D65"/>
<path d="M9.98747 3.29617C10.0104 3.14835 10.1053 3.02762 10.2327 2.96668C10.2911 2.93885 10.3554 2.92343 10.4234 2.92343H13.1887C13.5163 2.92343 13.8221 2.94487 14.1011 2.99C14.1809 3.00279 14.2584 3.01746 14.334 3.03401C14.4093 3.05094 14.4826 3.06975 14.5537 3.09043C14.589 3.10096 14.624 3.11186 14.6582 3.12278C14.7955 3.16828 14.923 3.22207 15.0407 3.28413C15.1792 2.40137 15.0396 1.80032 14.5624 1.25607C14.0362 0.656906 13.0864 0.400391 11.8712 0.400391H8.34305C8.09479 0.400391 7.88312 0.580922 7.84468 0.826534L6.37523 10.1413C6.34621 10.3255 6.48837 10.4918 6.67417 10.4918H8.85236L9.39924 7.02206L9.98747 3.29617Z" fill="#253B80"/>
</svg>
