<svg width="24" height="25" viewBox="0 0 24 25" fill="none" xmlns="http://www.w3.org/2000/svg">
<path d="M10.9436 20.0068C10.9939 20.2285 10.7979 20.5984 10.7979 21.0906C10.7979 21.5828 11.4766 21.2927 11.4921 21.5465C11.5077 21.8004 12.5335 22.0854 12.7771 21.8471C13.0206 21.6087 12.4714 21.3082 12.2278 21.0388C11.9843 20.7694 11.7771 20.417 11.7771 20.417L10.9436 20.0068Z" fill="#AEB2F4"/>
<path d="M7.72988 21.5076C7.74029 21.797 7.63369 21.985 7.69013 22.3863C7.74653 22.7875 8.36717 22.4866 8.38599 22.7938C8.40481 23.101 9.52071 23.5022 9.84044 23.1825C10.1602 22.8628 9.69001 22.7186 9.3577 22.3361C9.02545 21.9537 8.76212 21.6277 8.76212 21.6277L7.72988 21.5076Z" fill="#D7DAFF"/>
<path d="M11.2023 4.88184C11.5198 5.34753 12.1782 7.16515 12.5503 7.63747C12.9224 8.10974 14.3536 8.81102 14.4967 9.22608C14.6398 9.64113 14.3392 9.70732 14.0816 9.72696C13.824 9.74659 12.3785 8.9087 12.0064 8.63088C11.6343 8.35305 10.6611 6.7644 10.6611 6.7644L11.2023 4.88184Z" fill="#EBAB94"/>
<path d="M11.6023 10.5903C11.6023 10.5903 12.739 14.833 12.6589 15.8417C12.5789 16.8503 12.0995 20.3886 11.8028 20.5967C11.5062 20.8049 11.154 20.5807 10.9939 20.2285C10.8488 19.9093 10.7059 16.7926 11.1451 15.7701C11.2163 15.6042 11.203 15.4157 11.0908 15.2743C10.5997 14.6554 9.44437 13.0013 9.81315 11.539C10.2774 9.69772 11.6023 10.5903 11.6023 10.5903Z" fill="#EBAB94"/>
<path d="M11.5725 10.4534C11.5725 10.4534 12.3033 12.5043 12.3141 13.069C12.325 13.6337 10.8373 14.4519 10.4258 14.2983C10.0143 14.1446 9.69431 11.6939 9.69431 11.6939L11.5725 10.4534Z" fill="#AEB2F4"/>
<path d="M7.686 11.7772C7.686 11.7772 7.31328 14.6191 7.89902 16.5326C7.94117 16.6702 7.93574 16.8162 7.88179 16.9496C7.69214 17.4187 7.3801 18.7332 7.74725 21.6482C7.76112 21.7582 7.81953 21.8606 7.91121 21.923C8.076 22.035 8.36712 22.1423 8.71061 21.8704C9.24653 21.4461 9.22421 17.8063 9.42518 16.7568C9.62616 15.7072 10.765 12.715 9.9611 11.6655C9.1572 10.616 7.686 11.7772 7.686 11.7772Z" fill="#EBAB94"/>
<path d="M10.4547 11.9114C10.4547 11.9114 10.2574 14.3225 10.0382 14.6075C9.819 14.8925 7.85258 15.036 7.5809 14.3888C7.30922 13.7417 7.62703 12.0429 7.62703 12.0429L10.4547 11.9114Z" fill="#D7DAFF"/>
<path d="M7.97643 9.52296C7.90644 10.4112 7.35041 12.1955 7.6087 12.589C8.09144 13.3251 11.5423 12.3701 11.6751 10.695C11.7595 9.61368 11.1355 8.85437 11.1065 8.09645C11.0799 7.33853 11.4199 5.63021 11.3282 5.18366C11.1955 4.54641 10.4979 4.39195 9.80758 4.42574C9.63862 4.43299 9.47206 4.44989 9.31279 4.47643C8.99902 4.52472 8.62006 4.74677 8.2604 5.04365C7.68353 5.51913 7.15491 6.19017 7.02943 6.65601C6.82423 7.41393 8.04881 8.63712 7.97643 9.52296Z" fill="#DE3078"/>
<path d="M8.26039 5.04369C8.46074 5.39365 9.0376 6.27229 9.69415 6.07919C10.3048 5.89813 10.0007 4.91097 9.80757 4.42578C9.63861 4.43303 9.47205 4.44993 9.31279 4.47647C8.99896 4.52471 8.62 4.74681 8.26039 5.04369Z" fill="#E88E71"/>
<path d="M8.60596 4.09082L8.4958 5.03037L8.80684 5.08869C8.80684 5.08869 8.91052 4.4537 8.60596 4.09082Z" fill="#E88E71"/>
<path d="M10.7953 2.99246C10.8841 3.52468 10.7289 5.2186 10.2089 5.34839C9.68901 5.47819 8.5685 4.98931 8.24819 3.76531C8.04971 3.00681 8.33397 2.12759 8.99905 1.99454C9.66414 1.86153 10.6504 2.1238 10.7953 2.99246Z" fill="#EBAB94"/>
<path d="M7.0294 6.65612C6.89188 7.25583 6.70919 8.82006 6.39906 9.56795C6.08898 10.3158 5.40546 11.8664 5.5149 12.1947C5.62434 12.5231 5.73633 12.7792 6.10881 12.4795C6.35346 12.2826 6.92807 10.4253 7.21991 9.93279C7.51175 9.44027 8.49647 8.26959 8.26036 7.21739C8.02429 6.16518 7.10063 6.34547 7.0294 6.65612Z" fill="#EBAB94"/>
<path d="M6.27632 12.2156C6.19193 12.3729 6.44878 12.8214 6.32417 12.8688C6.19957 12.9163 6.16985 12.6077 6.07491 12.7323C5.97997 12.8569 5.86126 13.6403 5.7307 13.5988C5.60014 13.5572 5.84345 12.8659 5.77817 12.8406C5.71289 12.8154 5.54672 13.4801 5.42801 13.4207C5.30931 13.3614 5.60605 12.8035 5.54672 12.7323C5.48739 12.6611 5.23813 13.2723 5.11942 13.2367C5.00072 13.2011 5.38054 12.6649 5.34493 12.6125C5.30931 12.5601 5.01853 13.0586 4.93544 12.9874C4.85235 12.9163 5.53457 11.9114 5.53457 11.9114L6.27632 12.2156Z" fill="#EBAB94"/>
<path d="M10.6611 2.44131C10.9872 2.7043 10.8267 3.00339 10.3835 3.16553C9.94039 3.32767 9.43236 2.91689 9.01083 3.05743C8.58929 3.19798 9.14484 3.40332 8.82382 3.56547C8.50279 3.72761 8.98923 4.57635 8.61089 4.58974C8.23255 4.60313 7.98262 3.1255 8.21235 2.58401C8.44212 2.04247 9.4146 1.43609 10.6611 2.44131Z" fill="#886D62"/>
<path d="M13.795 9.63329C13.824 9.63329 14.215 9.9894 14.4347 10.1246C14.4854 10.156 14.5288 10.1777 14.5553 10.1849C14.705 10.2211 14.6471 10.0497 14.7557 10.0497C14.9271 10.0521 14.7895 9.91217 14.9488 9.88562C15.0816 9.86633 14.9608 9.76495 15.0767 9.66357C15.1371 9.61289 15.0912 9.5453 15.0236 9.47772C14.9584 9.41493 14.874 9.3498 14.8474 9.29666C14.7943 9.19044 14.9874 9.22183 15.0188 9.08426C15.0502 8.94665 14.4347 9.11805 14.355 9.02393C14.355 9.02393 13.8361 9.61399 13.795 9.63329Z" fill="#EBAB94"/>
<path d="M18.4299 5.15482L18.3078 5.11426C18.5435 5.19255 18.7197 5.40437 18.7914 5.74287C18.9562 6.52133 18.5041 7.67611 17.7794 8.32378L17.9016 8.36434C18.6262 7.71667 19.0783 6.56189 18.9135 5.78343C18.8418 5.44498 18.6656 5.23311 18.4299 5.15482Z" fill="#AEB2F4"/>
<path d="M16.6536 8.71224L16.7757 8.7528C17.0832 8.85495 17.4921 8.73029 17.9016 8.36429L17.7794 8.32373C17.37 8.68968 16.9611 8.81434 16.6536 8.71224Z" fill="#AEB2F4"/>
<path d="M16.5784 8.8786L16.7006 8.91916C16.6801 8.91235 16.66 8.90467 16.6405 8.89603L16.5184 8.85547C16.5379 8.86411 16.558 8.87184 16.5784 8.8786Z" fill="#AEB2F4"/>
<path d="M16.0749 8.32059L15.9528 8.28003C15.9922 8.43209 16.1016 8.51489 16.174 8.6227L16.2961 8.66326C16.2237 8.55545 16.1143 8.47265 16.0749 8.32059Z" fill="#AEB2F4"/>
<path d="M16.1036 7.75467L15.9815 7.71411C15.9703 7.89526 15.9255 8.11726 15.9528 8.28022L16.0749 8.32078C16.0476 8.15782 16.0925 7.93582 16.1036 7.75467Z" fill="#AEB2F4"/>
<path d="M16.296 8.66338L16.1739 8.62282L15.5874 8.60669L15.7095 8.64725L16.296 8.66338Z" fill="#AEB2F4"/>
<path d="M18.5073 4.98937L18.3852 4.94881C18.0495 4.8373 17.603 4.97372 17.1549 5.37428C16.6811 5.79778 16.3128 6.42217 16.1333 7.03671L16.2554 7.07727C16.4349 6.46268 16.8032 5.83834 17.277 5.41479C17.7251 5.01428 18.1716 4.87786 18.5073 4.98937Z" fill="#AEB2F4"/>
<path d="M16.2554 7.07718L16.1333 7.03662C16.0043 7.41203 15.7338 8.21574 15.4118 8.50355L15.5339 8.54411C15.8559 8.25625 16.1264 7.45254 16.2554 7.07718Z" fill="#AEB2F4"/>
<path d="M14.4468 9.51669C14.5299 9.44114 14.6192 9.36112 14.7116 9.27885C14.8008 9.19883 14.8924 9.11805 14.9801 9.04106C15.0717 8.95648 15.161 8.87647 15.2433 8.8024C15.278 8.7725 15.3111 8.74183 15.3426 8.71413C15.4157 8.65058 15.4796 8.59375 15.5342 8.54363C15.8552 8.2564 16.1256 7.45336 16.2556 7.0768C16.436 6.4624 16.8027 5.83927 17.2768 5.41519C18.0687 4.70613 18.8549 4.82445 19.0343 5.67491C19.2152 6.52619 18.7194 7.78648 17.9283 8.49405C17.4557 8.9189 16.9821 9.04667 16.6401 8.89442C16.4198 8.83581 15.9484 8.69311 15.626 8.97957C15.6099 8.99224 15.5945 9.00727 15.5775 9.02143C15.5475 9.04989 15.5137 9.07826 15.4797 9.11047C15.4274 9.15607 15.3728 9.20618 15.3136 9.25778C15.2282 9.33405 15.1381 9.4156 15.0457 9.49787C14.958 9.57487 14.868 9.65642 14.7818 9.73423C14.4186 10.0588 14.0938 10.3498 14.0645 10.3767L13.9704 9.94154C13.9951 9.91984 14.1913 9.74407 14.4468 9.51669ZM17.902 8.36373C18.6254 7.71679 19.0779 6.56219 18.9127 5.78411C18.7482 5.0045 18.0295 4.89631 17.3053 5.54474C16.5812 6.18938 16.1279 7.34551 16.2923 8.12507C16.459 8.90402 17.1786 9.01072 17.902 8.36373ZM16.2969 8.66311C16.2247 8.55496 16.1142 8.47283 16.0745 8.32034C16.048 8.15733 16.0921 7.93538 16.1038 7.75394L15.7097 8.64794L16.2969 8.66311Z" fill="#888ABF"/>
<path d="M13.9711 9.94119L13.8489 9.90063L13.9413 10.3369L14.0634 10.3775L13.9711 9.94119Z" fill="#2C353B"/>
<path d="M15.5339 8.54422L15.4118 8.50366C14.9719 8.89693 13.9051 9.85045 13.8489 9.90065L13.9711 9.94121C14.0272 9.89101 15.094 8.93749 15.5339 8.54422Z" fill="#AEB2F4"/>
<mask id="mask0_882_2554" style="mask-type:luminance" maskUnits="userSpaceOnUse" x="16" y="5" width="3" height="4">
<path d="M16.2925 8.12627C16.4582 8.90454 17.1786 9.01058 17.9018 8.36445C18.6261 7.7165 19.0787 6.56238 18.913 5.78411C18.7486 5.00397 18.0293 4.89606 17.3049 5.54406C16.5818 6.19019 16.128 7.34613 16.2925 8.12627Z" fill="white"/>
</mask>
<g mask="url(#mask0_882_2554)">
<path d="M18.2606 7.78114L18.2246 7.61117L18.0944 7.72753L18.1304 7.89749L18.2606 7.78114ZM18.0827 7.94017L18.0467 7.7702L17.9165 7.88655L17.9525 8.05652L18.0827 7.94017ZM17.9039 8.09996L17.8679 7.92999L17.7378 8.04634L17.7738 8.21631L17.9039 8.09996ZM17.7252 8.25975L17.6892 8.08978L17.559 8.20613L17.595 8.3761L17.7252 8.25975ZM17.5472 8.41877L17.5112 8.24881L17.3811 8.36516L17.4171 8.53513L17.5472 8.41877ZM17.3685 8.57852L17.3325 8.40855L17.2023 8.5249L17.2383 8.69487L17.3685 8.57852ZM18.5687 7.22813L18.5327 7.05817L18.4026 7.17452L18.4386 7.34449L18.5687 7.22813ZM18.3899 7.38793L18.3539 7.21796L18.2238 7.33431L18.2598 7.50428L18.3899 7.38793ZM18.2112 7.54772L18.1752 7.37775L18.045 7.4941L18.081 7.66407L18.2112 7.54772ZM18.0333 7.70674L17.9973 7.53677L17.8671 7.65313L17.9031 7.82309L18.0333 7.70674ZM17.8545 7.86653L17.8185 7.69657L17.6883 7.81292L17.7243 7.98289L17.8545 7.86653ZM17.6757 8.02628L17.6398 7.85631L17.5096 7.97266L17.5456 8.14263L17.6757 8.02628ZM17.4979 8.1853L17.4619 8.01533L17.3317 8.13169L17.3677 8.30165L17.4979 8.1853ZM17.3191 8.34509L17.2831 8.17513L17.1529 8.29148L17.1889 8.46145L17.3191 8.34509ZM17.1403 8.50489L17.1043 8.33492L16.9741 8.45127L17.0101 8.62124L17.1403 8.50489ZM18.6972 6.83569L18.6612 6.66572L18.531 6.78207L18.567 6.95204L18.6972 6.83569ZM18.5193 6.99471L18.4833 6.82474L18.3531 6.94109L18.3891 7.11106L18.5193 6.99471ZM18.3405 7.1545L18.3045 6.98453L18.1744 7.10089L18.2104 7.27085L18.3405 7.1545ZM18.1618 7.31429L18.1258 7.14433L17.9956 7.26068L18.0316 7.43065L18.1618 7.31429ZM17.9839 7.47327L17.9479 7.3033L17.8177 7.41965L17.8537 7.58962L17.9839 7.47327ZM17.8051 7.63311L17.7691 7.46314L17.6389 7.57949L17.6749 7.74946L17.8051 7.63311ZM17.6263 7.79285L17.5903 7.62289L17.4602 7.73924L17.4962 7.90921L17.6263 7.79285ZM17.4484 7.95188L17.4124 7.78191L17.2822 7.89826L17.3182 8.06823L17.4484 7.95188ZM17.2697 8.11167L17.2337 7.9417L17.1035 8.05805L17.1395 8.22802L17.2697 8.11167ZM17.0909 8.27146L17.0549 8.10149L16.9247 8.21785L16.9607 8.38781L17.0909 8.27146ZM16.913 8.43049L16.877 8.26052L16.7468 8.37687L16.7828 8.54684L16.913 8.43049ZM18.8268 6.44362L18.7908 6.27365L18.6606 6.39001L18.6966 6.55997L18.8268 6.44362ZM18.648 6.60341L18.612 6.43345L18.4819 6.5498L18.5179 6.71977L18.648 6.60341ZM18.4701 6.76244L18.4341 6.59247L18.3039 6.70882L18.3399 6.87879L18.4701 6.76244ZM18.2913 6.92218L18.2553 6.75221L18.1252 6.86857L18.1612 7.03853L18.2913 6.92218ZM18.1126 7.08197L18.0766 6.91201L17.9464 7.02836L17.9824 7.19833L18.1126 7.08197ZM17.9347 7.241L17.8987 7.07103L17.7685 7.18738L17.8045 7.35735L17.9347 7.241ZM17.7559 7.40079L17.7199 7.23082L17.5897 7.34717L17.6257 7.51714L17.7559 7.40079ZM17.5771 7.56058L17.5411 7.39061L17.411 7.50697L17.447 7.67693L17.5771 7.56058ZM17.3993 7.71961L17.3633 7.54964L17.2331 7.66599L17.2691 7.83596L17.3993 7.71961ZM17.2205 7.8794L17.1845 7.70943L17.0543 7.82578L17.0903 7.99575L17.2205 7.8794ZM17.0417 8.03914L17.0057 7.86917L16.8755 7.98553L16.9115 8.15549L17.0417 8.03914ZM16.8638 8.19817L16.8278 8.0282L16.6976 8.14455L16.7336 8.31452L16.8638 8.19817ZM16.6851 8.35796L16.6491 8.18799L16.5189 8.30434L16.5549 8.47431L16.6851 8.35796ZM18.7773 6.2102L18.7413 6.04023L18.6112 6.15658L18.6472 6.32655L18.7773 6.2102ZM18.5986 6.36994L18.5626 6.19997L18.4324 6.31633L18.4684 6.48629L18.5986 6.36994ZM18.4207 6.52897L18.3847 6.359L18.2545 6.47535L18.2905 6.64532L18.4207 6.52897ZM18.2419 6.68876L18.2059 6.51879L18.0758 6.63514L18.1118 6.80511L18.2419 6.68876ZM18.0631 6.84855L18.0271 6.67858L17.897 6.79493L17.933 6.9649L18.0631 6.84855ZM17.8853 7.00757L17.8493 6.83761L17.7191 6.95396L17.7551 7.12393L17.8853 7.00757ZM17.7065 7.16737L17.6705 6.9974L17.5403 7.11375L17.5763 7.28372L17.7065 7.16737ZM17.5277 7.32716L17.4917 7.15719L17.3615 7.27354L17.3975 7.44351L17.5277 7.32716ZM17.3498 7.48618L17.3138 7.31621L17.1836 7.43257L17.2196 7.60253L17.3498 7.48618ZM17.1711 7.64597L17.1351 7.47601L17.0049 7.59236L17.0409 7.76233L17.1711 7.64597ZM16.9923 7.80572L16.9563 7.63575L16.8261 7.7521L16.8621 7.92207L16.9923 7.80572ZM16.8144 7.96474L16.7784 7.79477L16.6482 7.91113L16.6842 8.08109L16.8144 7.96474ZM16.6356 8.12453L16.5996 7.95457L16.4695 8.07092L16.5055 8.24089L16.6356 8.12453ZM18.7279 5.97677L18.6919 5.80681L18.5618 5.92316L18.5978 6.09313L18.7279 5.97677ZM18.5492 6.13652L18.5132 5.96655L18.383 6.0829L18.419 6.25287L18.5492 6.13652ZM18.3713 6.29554L18.3353 6.12557L18.2051 6.24193L18.2411 6.41189L18.3713 6.29554ZM18.1925 6.45533L18.1565 6.28537L18.0263 6.40172L18.0623 6.57169L18.1925 6.45533ZM18.0137 6.61513L17.9777 6.44516L17.8475 6.56151L17.8835 6.73148L18.0137 6.61513ZM17.8358 6.77415L17.7998 6.60418L17.6696 6.72053L17.7056 6.8905L17.8358 6.77415ZM17.6571 6.93394L17.6211 6.76397L17.4909 6.88033L17.5269 7.05029L17.6571 6.93394ZM17.4783 7.09373L17.4423 6.92377L17.3121 7.04012L17.3481 7.21009L17.4783 7.09373ZM17.3004 7.25271L17.2644 7.08274L17.1343 7.19909L17.1703 7.36906L17.3004 7.25271ZM17.1216 7.41255L17.0856 7.24258L16.9555 7.35893L16.9915 7.5289L17.1216 7.41255ZM16.9429 7.57229L16.9069 7.40233L16.7767 7.51868L16.8127 7.68865L16.9429 7.57229ZM16.765 7.73132L16.729 7.56135L16.5988 7.6777L16.6348 7.84767L16.765 7.73132ZM16.5862 7.89111L16.5502 7.72114L16.4201 7.83749L16.4561 8.00746L16.5862 7.89111ZM18.6787 5.74445L18.6427 5.57449L18.5126 5.69084L18.5486 5.86081L18.6787 5.74445ZM18.5 5.90425L18.464 5.73428L18.3338 5.85063L18.3698 6.0206L18.5 5.90425ZM18.3221 6.06327L18.2861 5.8933L18.1559 6.00965L18.1919 6.17962L18.3221 6.06327ZM18.1433 6.22306L18.1073 6.05309L17.9771 6.16945L18.0131 6.33941L18.1433 6.22306ZM17.9646 6.38281L17.9286 6.21284L17.7984 6.32919L17.8344 6.49916L17.9646 6.38281ZM17.7867 6.54183L17.7507 6.37186L17.6205 6.48821L17.6565 6.65818L17.7867 6.54183ZM17.6079 6.70162L17.5719 6.53165L17.4417 6.64801L17.4777 6.81797L17.6079 6.70162ZM17.4291 6.86141L17.3931 6.69145L17.2629 6.8078L17.2989 6.97777L17.4291 6.86141ZM17.2512 7.02044L17.2152 6.85047L17.0851 6.96682L17.1211 7.13679L17.2512 7.02044ZM17.0724 7.18023L17.0364 7.01026L16.9063 7.12661L16.9423 7.29658L17.0724 7.18023ZM16.8937 7.34002L16.8577 7.17005L16.7275 7.28641L16.7635 7.45637L16.8937 7.34002ZM16.7158 7.49905L16.6798 7.32908L16.5496 7.44543L16.5856 7.6154L16.7158 7.49905ZM16.537 7.65884L16.501 7.48887L16.3709 7.60522L16.4069 7.77519L16.537 7.65884ZM18.6294 5.51103L18.5934 5.34106L18.4632 5.45741L18.4992 5.62738L18.6294 5.51103ZM18.4506 5.67082L18.4146 5.50085L18.2844 5.61721L18.3204 5.78717L18.4506 5.67082ZM18.2727 5.8298L18.2367 5.65983L18.1065 5.77618L18.1425 5.94615L18.2727 5.8298ZM18.0939 5.98964L18.0579 5.81967L17.9277 5.93602L17.9637 6.10599L18.0939 5.98964ZM17.9151 6.14938L17.8791 5.97941L17.7489 6.09577L17.7849 6.26573L17.9151 6.14938ZM17.7372 6.30841L17.7012 6.13844L17.5711 6.25479L17.6071 6.42476L17.7372 6.30841ZM17.5585 6.4682L17.5225 6.29823L17.3923 6.41458L17.4283 6.58455L17.5585 6.4682ZM17.3797 6.62799L17.3437 6.45802L17.2135 6.57437L17.2495 6.74434L17.3797 6.62799ZM17.2018 6.78701L17.1658 6.61705L17.0356 6.7334L17.0716 6.90337L17.2018 6.78701ZM17.023 6.94681L16.987 6.77684L16.8569 6.89319L16.8929 7.06316L17.023 6.94681ZM16.8443 7.1066L16.8083 6.93663L16.6781 7.05298L16.7141 7.22295L16.8443 7.1066ZM16.6664 7.26557L16.6304 7.09561L16.5002 7.21196L16.5362 7.38193L16.6664 7.26557ZM16.4876 7.42541L16.4516 7.25545L16.3214 7.3718L16.3574 7.54177L16.4876 7.42541ZM18.4012 5.4374L18.3652 5.26743L18.235 5.38378L18.271 5.55375L18.4012 5.4374ZM18.2233 5.59637L18.1873 5.42641L18.0571 5.54276L18.0931 5.71273L18.2233 5.59637ZM18.0445 5.75621L18.0085 5.58625L17.8783 5.7026L17.9143 5.87257L18.0445 5.75621ZM17.8657 5.91596L17.8297 5.74599L17.6995 5.86234L17.7355 6.03231L17.8657 5.91596ZM17.6878 6.07498L17.6518 5.90501L17.5217 6.02137L17.5577 6.19133L17.6878 6.07498ZM17.509 6.23477L17.473 6.06481L17.3429 6.18116L17.3789 6.35113L17.509 6.23477ZM17.3303 6.39457L17.2943 6.2246L17.1641 6.34095L17.2001 6.51092L17.3303 6.39457ZM17.1524 6.55359L17.1164 6.38362L16.9862 6.49997L17.0222 6.66994L17.1524 6.55359ZM16.9736 6.71338L16.9376 6.54341L16.8074 6.65977L16.8434 6.82973L16.9736 6.71338ZM16.7948 6.87317L16.7588 6.70321L16.6287 6.81956L16.6647 6.98953L16.7948 6.87317ZM16.617 7.03215L16.581 6.86218L16.4508 6.97853L16.4868 7.1485L16.617 7.03215ZM18.1741 5.3641L18.1381 5.19413L18.0079 5.31049L18.0439 5.48045L18.1741 5.3641ZM17.9953 5.52389L17.9593 5.35393L17.8291 5.47028L17.8651 5.64025L17.9953 5.52389ZM17.8165 5.68369L17.7805 5.51372L17.6503 5.63007L17.6863 5.80004L17.8165 5.68369ZM17.6386 5.84271L17.6026 5.67274L17.4725 5.78909L17.5085 5.95906L17.6386 5.84271ZM17.4599 6.0025L17.4239 5.83253L17.2937 5.94889L17.3297 6.11885L17.4599 6.0025ZM17.2811 6.16225L17.2451 5.99228L17.1149 6.10863L17.1509 6.2786L17.2811 6.16225ZM17.1032 6.32127L17.0672 6.1513L16.937 6.26765L16.973 6.43762L17.1032 6.32127ZM16.9244 6.48106L16.8884 6.31109L16.7583 6.42745L16.7943 6.59741L16.9244 6.48106ZM16.7456 6.64085L16.7096 6.47089L16.5795 6.58724L16.6155 6.75721L16.7456 6.64085ZM17.7671 5.45026L17.7311 5.28029L17.6009 5.39665L17.6369 5.56661L17.7671 5.45026ZM17.5892 5.60924L17.5532 5.43927L17.4231 5.55562L17.459 5.72559L17.5892 5.60924ZM17.4104 5.76908L17.3744 5.59911L17.2443 5.71546L17.2803 5.88543L17.4104 5.76908ZM17.2317 5.92882L17.1957 5.75885L17.0655 5.87521L17.1015 6.04517L17.2317 5.92882ZM17.0538 6.08785L17.0178 5.91788L16.8876 6.03423L16.9236 6.2042L17.0538 6.08785ZM16.875 6.24764L16.839 6.07767L16.7088 6.19402L16.7448 6.36399L16.875 6.24764ZM17.211 5.55793L17.2309 5.65196L17.3611 5.53561L17.3416 5.44383C17.3586 5.43135 17.3742 5.41738 17.3912 5.4049L17.4097 5.49217L17.5399 5.37581L17.5262 5.31125C17.5434 5.29993 17.56 5.29047 17.5765 5.28106L17.5876 5.33319L17.7177 5.21684L17.7158 5.20777C17.7733 5.18199 17.8296 5.16001 17.8839 5.14378L17.7798 5.23685L17.8158 5.40682L17.9459 5.29047L17.9128 5.13409C17.9314 5.12957 17.9495 5.12693 17.9681 5.12237L17.9945 5.24703L18.1247 5.13068L18.1189 5.10351C18.1588 5.10159 18.1971 5.10236 18.2353 5.10725L18.1859 5.15146L18.2219 5.32143L18.3521 5.20508L18.3355 5.12689C18.3572 5.13178 18.3774 5.13932 18.3976 5.1469L18.4007 5.16164L18.4111 5.15233C18.4302 5.15953 18.4492 5.16673 18.4668 5.17666L18.4139 5.22399L18.4499 5.39396L18.5801 5.27761L18.5743 5.25044C18.5996 5.27233 18.624 5.29498 18.6469 5.32033L18.6781 5.46764L18.7241 5.42655C18.7337 5.44229 18.7434 5.45914 18.7523 5.47681L18.6915 5.53109L18.7275 5.70106L18.816 5.62196C18.8221 5.64082 18.8266 5.66233 18.8327 5.68119L18.7407 5.76341L18.7767 5.93338L18.8687 5.85116C18.8715 5.87425 18.8761 5.89575 18.8787 5.91773L18.7902 5.99684L18.8262 6.16681L18.8869 6.11252C18.8872 6.13796 18.8863 6.16297 18.8856 6.18917L18.8396 6.23026L18.8708 6.37757C18.8642 6.42927 18.8557 6.48145 18.846 6.53319L18.8402 6.50597L18.71 6.62233L18.746 6.79229L18.799 6.74497C18.7908 6.77924 18.7804 6.81284 18.7699 6.84644L18.7595 6.85575L18.7626 6.87049C18.7516 6.90596 18.7405 6.94148 18.7275 6.97738L18.7109 6.89919L18.5807 7.01554L18.6167 7.18551L18.6662 7.1413C18.6417 7.20097 18.6161 7.26025 18.5882 7.31885L18.5825 7.29169L18.4523 7.40804L18.4787 7.53269C18.4643 7.55765 18.4511 7.5829 18.4366 7.60671L18.4037 7.45148L18.2735 7.56783L18.3095 7.7378L18.4136 7.64473C18.3708 7.71538 18.3247 7.78493 18.276 7.85261L18.2741 7.84354L18.1439 7.95989L18.155 8.01202C18.1403 8.03055 18.1259 8.05013 18.1101 8.06828L18.0962 8.00257L17.966 8.11892L17.9848 8.20729C17.9687 8.22428 17.9531 8.23825 17.9369 8.25413L17.9175 8.16236L17.7873 8.27871L17.8075 8.37389C17.7909 8.38863 17.7751 8.40145 17.7584 8.41508L17.7387 8.32215L17.6085 8.4385L17.6249 8.51554C17.6085 8.5261 17.5918 8.53969 17.5755 8.55025L17.5608 8.48113L17.4307 8.59748L17.4376 8.63036C17.4199 8.63943 17.4029 8.64658 17.385 8.65455L17.3821 8.64097L17.3474 8.67197C17.2945 8.69501 17.2411 8.7158 17.1884 8.73049L17.1541 8.56844L17.0239 8.68479L17.04 8.76073C17.0209 8.76298 17.0024 8.76337 16.9839 8.76375L16.9762 8.72751L16.932 8.76706C16.9051 8.76682 16.8788 8.76471 16.8535 8.76178L16.9628 8.66405L16.9268 8.49409L16.7966 8.61044L16.8281 8.7589C16.8069 8.75631 16.7872 8.75098 16.7675 8.7457L16.748 8.65393L16.6778 8.71676C16.6587 8.70956 16.6397 8.70236 16.6209 8.69209L16.7346 8.59047L16.6986 8.4205L16.5684 8.53685L16.5982 8.67735C16.5757 8.66377 16.5523 8.65095 16.5314 8.63468L16.5199 8.58029L16.4964 8.60122C16.4826 8.58937 16.4678 8.57828 16.4546 8.5645L16.5067 8.51794L16.4707 8.34797L16.3648 8.44258C16.3542 8.4265 16.3455 8.40999 16.3357 8.39309L16.4572 8.28452L16.4212 8.11455L16.2728 8.24717C16.2659 8.22908 16.2613 8.20757 16.2559 8.18684L16.4078 8.05109L16.3718 7.88113L16.2199 8.01687C16.2164 7.9957 16.2119 7.9742 16.2102 7.95145L16.3586 7.81882L16.3226 7.64885L16.2011 7.75743C16.2018 7.73122 16.2015 7.70583 16.2033 7.68001L16.3092 7.5854L16.2732 7.41543L16.2211 7.46199C16.2252 7.43271 16.2313 7.403 16.2363 7.37295L16.2597 7.35202L16.2485 7.29879C16.257 7.25612 16.2683 7.21229 16.2788 7.16924L16.3083 7.30863L16.4385 7.19228L16.4025 7.02231L16.2888 7.12393C16.2982 7.08999 16.3086 7.05639 16.319 7.02284L16.3893 6.96001L16.3699 6.86823C16.3814 6.83501 16.3929 6.80175 16.4062 6.767L16.4379 6.91657L16.568 6.80021L16.532 6.63025L16.4227 6.72797C16.439 6.68785 16.4561 6.6469 16.4743 6.60634L16.5186 6.56679L16.5107 6.5294C16.5237 6.50295 16.5364 6.4754 16.5503 6.44818L16.5664 6.52412L16.6965 6.40777L16.662 6.24457C16.7033 6.1766 16.7471 6.1105 16.792 6.04479L16.8259 6.01455L16.8232 6.00207C16.8383 5.98052 16.8524 5.95978 16.8677 5.93938L16.8744 5.97111L17.0046 5.85476L16.9902 5.78679C17.0051 5.76946 17.0211 5.75242 17.0362 5.7362L17.0523 5.81213L17.1825 5.69578L17.1631 5.60401C17.1791 5.58778 17.1944 5.57266 17.211 5.55793Z" fill="#D7DAFF"/>
</g>
<path d="M13.9704 9.94172L14.0646 10.3769C14.0938 10.35 14.4186 10.059 14.7818 9.7344C14.868 9.6566 14.9581 9.57504 15.0458 9.49805C15.1381 9.41578 15.2282 9.33423 15.3136 9.25796C15.3729 9.20636 15.4275 9.15624 15.4798 9.11064L15.3426 8.71436C15.311 8.74205 15.278 8.77272 15.2433 8.80263C15.161 8.87669 15.0717 8.95671 14.9801 9.04128C14.8924 9.11832 14.8008 9.19906 14.7116 9.27908C14.6192 9.36135 14.5299 9.44136 14.4468 9.51692C14.1913 9.74424 13.9951 9.92002 13.9704 9.94172Z" fill="#3B4951"/>
<path d="M15.3426 8.7142L15.2371 8.65967L13.8489 9.90056L13.9704 9.9416L15.3426 8.7142Z" fill="#5D7280"/>
<path d="M14.2609 9.81313C14.2319 9.85902 14.3309 9.99899 14.4347 10.1245C14.4854 10.1559 14.5288 10.1776 14.5553 10.1848C14.705 10.221 14.6471 10.0497 14.7557 10.0497C14.9271 10.0521 14.7895 9.91211 14.9488 9.88556C15.0816 9.86627 14.9608 9.76489 15.0767 9.66352C15.1371 9.61283 15.0912 9.54524 15.0236 9.47766C14.9078 9.40768 14.7847 9.34249 14.7581 9.35939C14.6809 9.40768 14.9415 9.60558 14.9078 9.63217C14.8716 9.65872 14.6205 9.44632 14.5457 9.49456C14.4685 9.54524 14.7822 9.72385 14.746 9.76489C14.7098 9.80593 14.4588 9.58144 14.384 9.63217C14.3116 9.68526 14.635 9.90006 14.5843 9.93145C14.5312 9.9652 14.3164 9.7214 14.2609 9.81313Z" fill="#E88E71"/>
<path d="M11.7033 3.78895L10.1777 2.90234C10.1817 2.90474 10.1857 2.90724 10.1895 2.90988L11.7151 3.79649C11.7114 3.79385 11.7074 3.79135 11.7033 3.78895Z" fill="#D7DAFF"/>
<path d="M11.7499 3.70546L10.2243 2.81885C10.1042 2.74906 9.89234 2.77934 9.65099 2.91864L11.1767 3.80525C11.418 3.6659 11.6298 3.63562 11.7499 3.70546Z" fill="#D7DAFF"/>
<path d="M11.1767 3.80514C10.8963 3.967 10.6565 4.2297 10.5543 4.46672L10.6399 4.41733C10.7415 4.22836 10.9439 4.0221 11.1769 3.8876C11.4099 3.75311 11.6129 3.72532 11.7153 3.79645L11.8008 3.74706C11.6976 3.6286 11.457 3.64324 11.1767 3.80514Z" fill="#AEB2F4"/>
<path d="M11.1767 3.80531L9.65102 2.9187C9.3707 3.08056 9.13079 3.34326 9.02865 3.58029L10.5543 4.46689C10.6565 4.22987 10.8963 3.96717 11.1767 3.80531Z" fill="#D7DAFF"/>
<path d="M10.9091 3.05566C10.9105 3.07434 10.9105 3.09301 10.9105 3.11168C10.9105 3.13035 10.9105 3.14902 10.9091 3.1677C10.9148 3.1303 10.9148 3.09296 10.9091 3.05566Z" fill="#D7DAFF"/>
<path d="M8.08735 3.11144C8.08735 3.13587 8.08735 3.16025 8.08879 3.18469C8.08879 3.18752 8.08879 3.1904 8.09023 3.19333C8.12182 3.37424 8.25679 3.55088 8.4966 3.69017C9.04947 4.00894 9.94697 4.00894 10.4998 3.69017C10.7511 3.54373 10.8876 3.35845 10.9091 3.16746C10.9105 3.14878 10.9105 3.13011 10.9105 3.11144C10.9105 3.09277 10.9105 3.0741 10.9091 3.05542C10.9076 3.02672 10.9062 2.99941 10.9033 2.9707C10.8717 3.15018 10.7368 3.32254 10.4998 3.4604C9.94697 3.77922 9.04947 3.77922 8.4966 3.4604C8.26255 3.32398 8.12897 3.1531 8.09307 2.97646C8.09163 2.9937 8.09019 3.01237 8.08875 3.03104V3.03819C8.08735 3.06262 8.08735 3.08706 8.08735 3.11144Z" fill="#AEB2F4"/>
<path d="M8.09306 2.97656C8.12897 3.1532 8.2625 3.32408 8.4966 3.4605C9.04946 3.77931 9.94697 3.77931 10.4998 3.4605C10.7368 3.32264 10.8717 3.15032 10.9033 2.9708C10.833 2.25714 10.2298 1.69995 9.49894 1.69995C8.76516 1.69995 8.1606 2.26002 8.09306 2.97656Z" fill="#D7DAFF"/>
</svg>
