<svg width="24" height="25" viewBox="0 0 24 25" fill="none" xmlns="http://www.w3.org/2000/svg">
<path d="M11.168 10.836C11.8 11.796 11.528 13.084 10.568 13.716C9.66398 14.308 8.31998 14.076 7.68798 13.116C7.05598 12.156 7.32798 10.868 8.28798 10.236C9.24798 9.60401 10.544 9.87601 11.168 10.836Z" fill="#E5B092"/>
<path d="M8.46398 13.796C8.46398 13.796 7.63198 13.036 8.27198 11.492C8.91198 9.94802 10.096 10.004 10.096 10.004C10.096 10.004 9.41598 9.52402 8.83198 9.45202C7.83198 9.33202 6.87998 9.50002 6.27998 10.748C5.83998 11.676 6.28798 12.804 7.02398 13.26C7.88798 13.788 8.46398 13.796 8.46398 13.796Z" fill="#E2E5F2"/>
<path d="M6.216 12.1721C6.216 12.1721 7.128 12.6201 8.032 12.3961C8.032 12.3961 8.032 13.2601 8.464 13.7961C8.464 13.7961 6.584 13.5561 6.216 12.1721Z" fill="#CFD3E8"/>
<path d="M7.35199 9.6201C7.35199 9.6201 8.51199 10.1321 8.75999 10.7001C8.75999 10.7001 9.32799 10.0921 10.104 10.0041C10.104 10.0041 8.82399 8.9801 7.35199 9.6201Z" fill="#CFD3E8"/>
<path d="M9.53144 12.9435C9.69188 12.5845 9.5636 12.178 9.24492 12.0356C8.92624 11.8932 8.53785 12.0688 8.37741 12.4278C8.21697 12.7868 8.34525 13.1933 8.66393 13.3357C8.98261 13.4781 9.37101 13.3026 9.53144 12.9435Z" fill="#E2E5F2"/>
<path d="M10.2604 11.3183C10.4208 10.9593 10.2925 10.5528 9.97387 10.4104C9.65519 10.268 9.26679 10.4436 9.10635 10.8026C8.94592 11.1616 9.0742 11.5681 9.39287 11.7105C9.71155 11.8529 10.0999 11.6773 10.2604 11.3183Z" fill="#E2E5F2"/>
<path d="M9.21619 12.0571L9.40876 11.6262L9.56215 11.6947L9.36957 12.1257L9.21619 12.0571Z" fill="#E2E5F2"/>
<path d="M10.0833 11.2467C10.2059 10.9724 10.1418 10.677 9.94009 10.5868C9.73839 10.4967 9.47551 10.646 9.35293 10.9203C9.23035 11.1946 9.29449 11.4901 9.49618 11.5802C9.69788 11.6703 9.96075 11.521 10.0833 11.2467Z" fill="#ADC33D"/>
<path d="M9.36495 12.8681C9.48753 12.5938 9.4234 12.2983 9.2217 12.2082C9.02001 12.1181 8.75713 12.2674 8.63455 12.5417C8.51197 12.816 8.5761 13.1114 8.7778 13.2015C8.97949 13.2917 9.24237 13.1424 9.36495 12.8681Z" fill="#ADC33D"/>
<path d="M8.67202 13.3401L8.52002 13.8521L8.73602 13.9401L8.91202 13.3961L8.67202 13.3401Z" fill="#E2E5F2"/>
<path d="M10.048 9.97192L9.86401 10.4519L10.064 10.5399L10.256 10.0679L10.048 9.97192Z" fill="#E2E5F2"/>
<path d="M17.304 12.988C17.336 12.884 16.024 12.724 16.016 12.612C15.976 12.268 15.76 11.972 15.464 11.788C14.672 11.292 13.64 10.372 13.64 10.372C12.312 8.63598 11.296 7.64398 10.68 7.11598C10.264 6.75598 9.68799 6.63598 9.15999 6.80398C7.46399 7.33198 4.97599 8.76398 4.97599 8.76398L4.05599 9.21998C3.17599 9.67598 2.94399 10.596 3.43999 10.7C3.93599 10.804 4.81599 10.108 4.97599 9.89198C5.12799 9.68398 5.47199 9.41998 5.47199 9.41998C7.03999 8.89198 9.56799 8.28398 9.56799 8.28398L12.344 12.18C12.344 12.18 11.96 12.284 11.352 12.108L10.68 13.388C10.68 13.388 11.344 13.54 11.544 13.772C11.544 13.772 12.608 15.188 12.936 15.644C13.272 16.108 13.184 16.82 13.656 16.988C14.128 17.156 15.016 16.892 15.32 16.772C15.36 16.756 15.432 16.756 15.512 16.772C16.8 16.988 18.12 16.652 19.088 15.78C19.72 15.204 20.272 14.628 20.32 14.316C20.32 14.316 19.04 14.044 17.304 12.988Z" fill="#E5B092"/>
<path d="M12.344 12.1801C12.344 12.1801 12.96 13.4841 13.832 13.7961C14.704 14.1081 16.248 13.4441 15.856 12.1721L17.304 12.9881C17.304 12.9881 17.096 13.9641 18.272 14.5801C19.448 15.1961 20.312 14.3241 20.312 14.3241L21.184 14.5321C21.184 14.5321 18.984 15.6601 18.576 16.3721C18.168 17.0841 15.456 16.3721 15.456 16.3721C15.456 16.3721 13.248 16.8281 12.424 15.3241C12.424 15.3241 12.72 14.8681 12.632 14.2121C12.552 13.6441 11.704 12.1961 11.704 12.1961L12.344 12.1801Z" fill="#3A3893"/>
<path d="M4.63201 12.9881C4.63201 12.9881 6.11201 12.4521 7.68801 13.1161C9.26401 13.7801 10.512 14.4201 11.92 14.2921C13.328 14.1641 14.472 13.7241 16.008 14.3081C17.544 14.8921 17.92 15.6521 21.184 14.5241C21.184 14.5241 22.216 13.9561 23.6 14.0441C23.6 14.0441 21.76 14.7401 20.728 15.8201C19.696 16.8921 14.76 17.4201 12.816 17.4201C9.96001 17.4201 9.04001 15.5241 7.08801 14.4281C5.67201 13.6361 3.98401 14.3721 2.03201 15.2041C2.02401 15.2041 2.58401 13.6361 4.63201 12.9881Z" fill="#A4D4E5"/>
<path d="M0.400024 15.7401C0.400024 15.7401 0.856024 16.2521 2.44002 15.7401C4.02402 15.2281 5.82402 14.1081 7.35202 15.5321C8.88002 16.9561 9.76002 18.3961 15.384 17.7801C15.384 17.7801 12.192 18.8601 8.31202 17.7881C8.31202 17.7881 6.88802 17.2761 5.25602 16.5321C3.61602 15.7881 2.24002 17.7321 0.400024 15.7401Z" fill="#81C2D4"/>
<path d="M2.69601 11.612C2.84181 11.612 2.96001 11.4938 2.96001 11.348C2.96001 11.2022 2.84181 11.084 2.69601 11.084C2.5502 11.084 2.43201 11.2022 2.43201 11.348C2.43201 11.4938 2.5502 11.612 2.69601 11.612Z" fill="#A4D4E5"/>
<path d="M3.68002 12.716C3.82582 12.716 3.94402 12.5978 3.94402 12.452C3.94402 12.3062 3.82582 12.188 3.68002 12.188C3.53421 12.188 3.41602 12.3062 3.41602 12.452C3.41602 12.5978 3.53421 12.716 3.68002 12.716Z" fill="#A4D4E5"/>
<path d="M4.73598 11.9001C4.88179 11.9001 4.99998 11.7819 4.99998 11.6361C4.99998 11.4903 4.88179 11.3721 4.73598 11.3721C4.59018 11.3721 4.47198 11.4903 4.47198 11.6361C4.47198 11.7819 4.59018 11.9001 4.73598 11.9001Z" fill="#BBE2F3"/>
<path d="M2.43203 13.6039C2.57783 13.6039 2.69603 13.4857 2.69603 13.3399C2.69603 13.1941 2.57783 13.0759 2.43203 13.0759C2.28623 13.0759 2.16803 13.1941 2.16803 13.3399C2.16803 13.4857 2.28623 13.6039 2.43203 13.6039Z" fill="#BBE2F3"/>
<path d="M2.69601 8.90007C2.84181 8.90007 2.96001 8.78187 2.96001 8.63607C2.96001 8.49027 2.84181 8.37207 2.69601 8.37207C2.5502 8.37207 2.43201 8.49027 2.43201 8.63607C2.43201 8.78187 2.5502 8.90007 2.69601 8.90007Z" fill="#BBE2F3"/>
</svg>
