<svg width="29" height="30" viewBox="0 0 29 30" fill="none" xmlns="http://www.w3.org/2000/svg">
<path d="M16.2659 0.822751C16.9294 1.61281 18.0374 1.86607 18.9788 1.44214C20.2851 0.854409 21.806 1.58666 22.1611 2.97408C22.4171 3.97336 23.3049 4.68222 24.3372 4.70974C25.7701 4.74691 26.8217 6.06689 26.5395 7.47083C26.3358 8.48249 26.8285 9.50655 27.7466 9.97866C29.0212 10.6338 29.3969 12.2786 28.5325 13.4224C27.9104 14.2455 27.9104 15.3825 28.5325 16.2056C29.3969 17.348 29.0212 18.9942 27.7466 19.6493C26.8285 20.1214 26.3358 21.1455 26.5395 22.1572C26.8217 23.5611 25.7701 24.8811 24.3372 24.9182C23.3049 24.9444 22.4171 25.6533 22.1611 26.6539C21.806 28.0427 20.2851 28.775 18.9788 28.1859C18.0374 27.7619 16.9294 28.0152 16.2659 28.8052C15.3437 29.9022 13.6563 29.9022 12.7341 28.8052C12.0706 28.0152 10.9626 27.7619 10.0211 28.1859C8.71493 28.7736 7.19399 28.0413 6.83888 26.6539C6.58287 25.6546 5.69508 24.9458 4.66277 24.9182C3.22992 24.8811 2.17834 23.5611 2.46051 22.1572C2.66422 21.1455 2.17146 20.1214 1.25339 19.6493C-0.0211666 18.9942 -0.396926 17.3493 0.467461 16.2056C1.0896 15.3825 1.0896 14.2455 0.467461 13.4224C-0.396926 12.28 -0.0211666 10.6338 1.25339 9.97866C2.17146 9.50655 2.66422 8.48249 2.46051 7.47083C2.17834 6.06689 3.22992 4.74691 4.66277 4.70974C5.69508 4.68359 6.58287 3.97474 6.83888 2.97408C7.19399 1.58528 8.71493 0.853032 10.0211 1.44214C10.9626 1.86607 12.0706 1.61281 12.7341 0.822751C13.6563 -0.27425 15.3437 -0.27425 16.2659 0.822751Z" fill="currentColor"/>
</svg>
