<svg width="47" height="47" viewBox="0 0 47 47" fill="none" xmlns="http://www.w3.org/2000/svg">
<path d="M26.0459 15.8821L28.6309 21.0521C28.9834 21.7571 29.9234 22.4621 30.7067 22.5796L35.3871 23.3629C38.3834 23.8721 39.0884 26.0262 36.9342 28.1804L33.2917 31.8425C32.6846 32.4496 32.3321 33.6441 32.5279 34.5058L33.5659 39.0296C34.3884 42.5937 32.4888 43.9841 29.3359 42.1237L24.9492 39.5191C24.1463 39.0491 22.8538 39.0491 22.0509 39.5191L17.6446 42.1041C14.4917 43.9646 12.5921 42.5741 13.4146 39.01L14.4525 34.4862C14.6484 33.6441 14.2959 32.4496 13.6888 31.8229L10.0659 28.2C7.9117 26.0458 8.6167 23.8721 11.6129 23.3825L16.2934 22.5991C17.0767 22.4621 18.0167 21.7766 18.3692 21.0716L20.9542 15.9016C22.3446 13.0816 24.6554 13.0816 26.0459 15.8821Z" fill="white"/>
<path d="M11.75 19.0938C10.9471 19.0938 10.2812 18.428 10.2812 17.6251V3.91675C10.2812 3.11383 10.9471 2.448 11.75 2.448C12.5529 2.448 13.2188 3.11383 13.2188 3.91675V17.6251C13.2188 18.428 12.5529 19.0938 11.75 19.0938Z" fill="white"/>
<path d="M35.25 19.0938C34.4471 19.0938 33.7812 18.428 33.7812 17.6251V3.91675C33.7812 3.11383 34.4471 2.448 35.25 2.448C36.0529 2.448 36.7188 3.11383 36.7188 3.91675V17.6251C36.7188 18.428 36.0529 19.0938 35.25 19.0938Z" fill="white"/>
<path d="M23.5 9.30216C22.6971 9.30216 22.0312 8.63633 22.0312 7.83341V3.91675C22.0312 3.11383 22.6971 2.448 23.5 2.448C24.3029 2.448 24.9688 3.11383 24.9688 3.91675V7.83341C24.9688 8.63633 24.3029 9.30216 23.5 9.30216Z" fill="white"/>
</svg>
