<svg width="20" height="20" viewBox="0 0 20 20" fill="none" xmlns="http://www.w3.org/2000/svg">
<path d="M14.6859 1.40137C11.2625 1.40137 10.0047 4.8998 10.0047 4.8998C10.0047 4.8998 8.76405 1.40137 5.31717 1.40137C2.72655 1.40137 -0.226579 3.45449 0.864046 8.12168C1.95467 12.7889 10.014 18.6029 10.014 18.6029C10.014 18.6029 18.0437 12.7889 19.1359 8.12168C20.2265 3.45449 17.4859 1.40137 14.6859 1.40137Z" fill="#F44336"/>
<path d="M4.78911 1.7498C7.47661 1.7498 8.81099 4.63887 9.24224 5.80918C9.30317 5.97637 9.53599 5.98105 9.6063 5.81855L10 4.89824C9.44536 3.12637 7.92036 1.40137 5.31724 1.40137C4.23911 1.40137 3.10005 1.75762 2.21411 2.50918C2.99692 1.99512 3.91411 1.7498 4.78911 1.7498ZM14.686 1.40137C13.8594 1.40137 13.1063 1.58105 12.5188 1.94355C12.9313 1.78418 13.4422 1.7498 13.9485 1.7498C16.4813 1.7498 18.7485 3.67012 17.725 8.10918C16.8469 11.9201 11.7157 16.5436 10.1485 18.3076C10.0485 18.4201 10.0141 18.6014 10.0141 18.6014C10.0141 18.6014 18.0438 12.7873 19.136 8.12012C20.2266 3.45449 17.4907 1.40137 14.686 1.40137Z" fill="#CC3333"/>
<path d="M2.66253 3.87794C3.24847 3.14669 4.29534 2.542 5.18284 3.23887C5.66253 3.61544 5.45316 4.38731 5.02347 4.71231C4.39847 5.18731 3.85472 5.47325 3.47347 6.217C3.24534 6.66387 3.10784 7.15294 3.03753 7.65137C3.00941 7.84825 2.75159 7.89669 2.65472 7.72325C1.99534 6.5545 1.80784 4.94512 2.66253 3.87794ZM12.0563 5.41544C11.7813 5.41544 11.5875 5.14981 11.6875 4.89356C11.8735 4.42169 12.1141 3.96544 12.4032 3.55919C12.8313 2.95919 13.6453 2.60919 14.161 2.97325C14.6891 3.34512 14.6203 4.08887 14.25 4.44825C13.4547 5.21856 12.4516 5.41544 12.0563 5.41544Z" fill="#FF8A80"/>
</svg>
