<svg width="16" height="16" viewBox="0 0 16 16" fill="none" xmlns="http://www.w3.org/2000/svg">
<path d="M8 0.5C3.86 0.5 0.5 3.86 0.5 8C0.5 12.14 3.86 15.5 8 15.5C12.14 15.5 15.5 12.14 15.5 8C15.5 3.86 12.14 0.5 8 0.5ZM3.95 7.4225C4.0775 6.53 4.475 5.7275 5.0975 5.0975C6.5975 3.605 8.96 3.5225 10.565 4.8275V4.115C10.565 3.8075 10.82 3.5525 11.1275 3.5525C11.435 3.5525 11.69 3.8075 11.69 4.115V6.1175C11.69 6.425 11.435 6.68 11.1275 6.68H9.125C8.8175 6.68 8.5625 6.425 8.5625 6.1175C8.5625 5.81 8.8175 5.555 9.125 5.555H9.6875C8.525 4.745 6.92 4.8575 5.885 5.8925C5.435 6.3425 5.15 6.9275 5.0525 7.58C5.015 7.8575 4.775 8.06 4.4975 8.06C4.4675 8.06 4.445 8.06 4.415 8.0525C4.1225 8.015 3.905 7.73 3.95 7.4225ZM10.9025 10.9025C10.1 11.705 9.05 12.1025 8 12.1025C7.085 12.1025 6.1775 11.78 5.4275 11.1725V11.8775C5.4275 12.185 5.1725 12.44 4.865 12.44C4.5575 12.44 4.3025 12.185 4.3025 11.8775V9.875C4.3025 9.5675 4.5575 9.3125 4.865 9.3125H6.8675C7.175 9.3125 7.43 9.5675 7.43 9.875C7.43 10.1825 7.175 10.4375 6.8675 10.4375H6.305C7.4675 11.2475 9.0725 11.135 10.1075 10.1C10.5575 9.65 10.8425 9.065 10.94 8.4125C10.985 8.105 11.2625 7.8875 11.5775 7.9325C11.885 7.9775 12.095 8.2625 12.0575 8.57C11.9225 9.4775 11.525 10.28 10.9025 10.9025Z" fill="currentColor"/>
</svg>
