<svg width="16" height="16" viewBox="0 0 16 16" fill="none" xmlns="http://www.w3.org/2000/svg">
<path d="M15.3201 10.94L10.5201 2.3C9.8751 1.1375 8.9826 0.5 8.0001 0.5C7.0176 0.5 6.12511 1.1375 5.48011 2.3L0.680105 10.94C0.0726053 12.0425 0.00510529 13.1 0.492605 13.9325C0.980105 14.765 1.94011 15.2225 3.20011 15.2225H12.8001C14.0601 15.2225 15.0201 14.765 15.5076 13.9325C15.9951 13.1 15.9276 12.035 15.3201 10.94ZM7.4376 5.75C7.4376 5.4425 7.69261 5.1875 8.0001 5.1875C8.3076 5.1875 8.5626 5.4425 8.5626 5.75V9.5C8.5626 9.8075 8.3076 10.0625 8.0001 10.0625C7.69261 10.0625 7.4376 9.8075 7.4376 9.5V5.75ZM8.53261 12.2825C8.4951 12.3125 8.45761 12.3425 8.4201 12.3725C8.3751 12.4025 8.3301 12.425 8.2851 12.44C8.2401 12.4625 8.1951 12.4775 8.1426 12.485C8.0976 12.4925 8.0451 12.5 8.0001 12.5C7.9551 12.5 7.90261 12.4925 7.85011 12.485C7.80511 12.4775 7.7601 12.4625 7.71511 12.44C7.6701 12.425 7.6251 12.4025 7.5801 12.3725C7.5426 12.3425 7.50511 12.3125 7.4676 12.2825C7.3326 12.14 7.2501 11.945 7.2501 11.75C7.2501 11.555 7.3326 11.36 7.4676 11.2175C7.50511 11.1875 7.5426 11.1575 7.5801 11.1275C7.6251 11.0975 7.6701 11.075 7.71511 11.06C7.7601 11.0375 7.80511 11.0225 7.85011 11.015C7.94761 10.9925 8.0526 10.9925 8.1426 11.015C8.1951 11.0225 8.2401 11.0375 8.2851 11.06C8.3301 11.075 8.3751 11.0975 8.4201 11.1275C8.45761 11.1575 8.4951 11.1875 8.53261 11.2175C8.66761 11.36 8.7501 11.555 8.7501 11.75C8.7501 11.945 8.66761 12.14 8.53261 12.2825Z" fill="#686C83"/>
</svg>
