<svg width="24" height="25" viewBox="0 0 24 25" fill="none" xmlns="http://www.w3.org/2000/svg">
<g clip-path="url(#clip0_879_2104)">
<path d="M11.9761 6.32324C11.9761 6.32324 10.7128 8.08866 10.6755 8.5732C10.6382 9.05775 12.9118 9.84043 13.359 9.95224C13.8063 10.064 14.9753 10.3809 15.2573 10.6231C15.5394 10.8654 15.3727 10.8925 15.8748 10.6231C16.3769 10.3537 16.4898 10.3622 16.4898 10.1758C16.4898 9.9895 15.6231 9.64472 15.2179 9.57481C14.8125 9.5049 11.9761 6.32324 11.9761 6.32324Z" fill="#E8A682"/>
<path d="M16.7407 3.10449C16.7118 3.32127 16.4449 3.18354 16.4449 3.18354C16.4449 3.18354 16.3167 3.25297 16.3466 3.44946C16.3755 3.64701 16.2868 3.57865 16.2868 3.57865C16.2868 3.57865 16.258 3.62778 16.2772 3.66731C16.2975 3.70683 16.2975 3.75597 16.1811 3.80504C16.0647 3.85418 16.1789 4.0026 16.1789 4.0026C16.2184 4.31872 15.7048 4.19054 15.5168 4.2792C15.33 4.36786 15.1356 4.94664 15.1356 4.94664C16.022 6.2217 15.8832 6.88594 15.5264 8.21227C15.1687 9.5386 14.7458 12.2244 14.7458 12.2244C13.9598 12.3675 13.3639 12.407 12.9132 12.3835C11.384 12.3044 11.5228 11.495 11.5228 11.495C11.5228 11.495 11.7791 10.9813 11.7535 10.2872C11.7278 9.59409 11.7791 6.84535 12.0878 5.81692C12.3963 4.78962 13.7697 4.1798 13.7697 4.1798C13.7697 4.1798 13.948 3.57859 13.8882 3.25285C13.8294 2.92717 13.4642 2.21594 13.7697 1.30821C14.0761 0.399422 14.8066 0.804146 15.4185 0.794533C16.0304 0.784919 16.0998 1.18003 16.0998 1.18003C16.4729 1.5304 16.2986 1.72641 16.3622 2.20217C16.3622 2.20217 16.3872 2.36056 16.407 2.44126C16.5653 3.08319 16.7706 2.88771 16.7407 3.10449Z" fill="#F7B791"/>
<path d="M15.8144 0.656711C15.6436 0.542771 14.5498 0.246586 13.7067 0.975684C12.8637 1.70484 13.5244 3.47068 13.8207 3.50486C14.1169 3.53904 14.5384 3.02637 14.5726 2.65043C14.6068 2.27448 14.7435 2.28588 15.1764 2.25169C15.5087 2.22546 15.4383 2.69588 15.3876 2.91599C15.3745 2.97266 15.4176 3.02637 15.4758 3.02637C15.5217 3.02637 15.5603 2.99242 15.5656 2.94685C15.5794 2.82863 15.6043 2.5877 15.6188 2.28582C15.6396 1.8529 15.7916 1.80733 15.7005 1.59084C15.6093 1.37436 15.5751 1.28326 15.7005 1.14653C15.8258 1.00981 16.1577 1.213 16.1577 1.213C16.1934 0.92631 15.9853 0.770592 15.8144 0.656711Z" fill="#4D5C7D"/>
<path d="M15.5265 8.2124C15.1687 9.53874 14.7458 12.2245 14.7458 12.2245L12.9133 12.3836C11.3841 12.3046 11.5229 11.4951 11.5229 11.4951C11.5229 11.4951 11.7792 10.9814 11.7535 10.2873C11.7279 9.59422 11.7792 6.84548 12.0878 5.81705C12.3964 4.78975 13.7697 4.17993 13.7697 4.17993L15.1356 4.94671C16.022 6.22183 15.8832 6.88607 15.5265 8.2124Z" fill="#27A2DB"/>
<path d="M17.8299 21.1206L17.4893 17.033C17.4793 16.913 17.4426 16.7966 17.3818 16.6926L15.2442 13.0314L14.746 12.2249L13.0854 12.723L13.5124 15.0478L16.1219 17.681C16.1219 17.681 15.7898 19.0331 16.5489 20.7886C17.3081 22.544 17.3317 23.4148 17.3317 23.4148H18.1383L18.2424 22.4928C18.2425 22.4928 17.9011 21.9746 17.8299 21.1206Z" fill="#F7B791"/>
<path d="M17.809 20.8694H16.5829C17.3072 22.5693 17.3318 23.4146 17.3318 23.4146H18.1383L18.2425 22.4927C18.2425 22.4927 17.9011 21.9745 17.8299 21.1206C17.8243 21.0526 17.8171 20.9668 17.809 20.8694Z" fill="#3EA69B"/>
<path d="M11.2231 13.4699C10.1369 15.3436 10.7343 17.4074 10.7343 17.4074C10.7343 17.4074 9.15929 17.163 8.18172 17.2445C7.20415 17.326 5.11317 17.5433 5.11317 17.5433L4.9231 18.548L5.98215 18.5209C7.47227 18.8545 10.236 18.8692 11.1876 18.8637C11.3923 18.8625 11.5783 18.7481 11.6732 18.5666L13.5125 15.0477C13.5125 15.0476 12.3093 11.5962 11.2231 13.4699Z" fill="#F7B791"/>
<path d="M7.8294 17.2754C6.77622 17.3705 5.11317 17.5433 5.11317 17.5433L4.9231 18.5481L5.98215 18.5209C6.50105 18.6371 7.15698 18.7223 7.82946 18.7847V17.2754H7.8294Z" fill="#44C4A1"/>
<path d="M14.6355 5.00637C13.9028 4.39091 12.7701 4.85807 12.6656 5.80917C12.6642 5.82181 12.6629 5.83463 12.6617 5.8475C12.5403 7.13699 12.7679 7.56177 13.5113 7.66794C14.2546 7.7741 15.1042 7.81962 15.4075 7.34938C15.6579 6.96133 15.7017 5.90192 14.6355 5.00637Z" fill="#F7B791"/>
<path d="M17.2507 9.80927C17.2507 9.80927 17.5211 9.77948 17.4715 9.62733C17.4452 9.54656 17.3132 9.54365 17.256 9.55018C17.3201 9.52419 17.3887 9.47398 17.3604 9.38111C17.311 9.2188 17.121 9.30266 17.0357 9.30669C16.1406 9.43885 15.3297 9.35268 14.6584 8.9047L14.8489 6.32324C14.8489 6.32324 14.5403 7.05519 14.4059 7.67248L13.1824 6.91193C13.1824 6.91193 13.0001 8.6437 13.0731 9.28171C13.146 9.91971 14.3491 9.99265 15.3335 10.1932C16.3179 10.3937 16.9741 10.3937 17.0835 10.3937C17.0835 10.3937 17.2887 10.4167 17.3797 10.3754C17.5105 10.316 17.5129 10.0885 17.194 10.1065C17.194 10.1065 17.4723 10.1407 17.506 10.0775C17.5463 10.0018 17.5928 9.76714 17.2507 9.80927Z" fill="#F7B791"/>
<path d="M11.5819 11.3538C11.5819 11.3538 11.2583 12.1645 11.065 12.6131C10.8717 13.0617 10.9948 14.2037 10.9948 14.2037L13.3862 15.2712H13.8409C13.8409 15.2712 14.3329 14.5748 15.0532 14.2564C15.7735 13.9381 15.387 12.6132 15.387 12.6132L14.8032 11.8722C14.8032 11.8721 12.7665 12.492 11.5819 11.3538Z" fill="#4D5C7D"/>
<path d="M14.7467 7.70917L14.8268 6.62354L14.8734 7.70917H14.7467Z" fill="#DC8744"/>
<path d="M19.8866 22.791C19.5595 22.9741 18.835 22.7382 18.5072 22.4892C18.4214 22.4241 18.3005 22.4291 18.2282 22.509C18.0672 22.6868 17.7377 22.9407 17.1388 23.001C17.0164 23.0134 16.9337 23.1323 16.959 23.2526L17.1636 24.2242C17.1636 24.2242 17.2824 24.5024 17.9287 24.4161C18.6632 24.318 18.8842 23.8906 19.4574 23.7473C20.0307 23.604 20.8899 22.9662 20.8899 22.6159C20.8898 22.2655 20.2847 22.5681 19.8866 22.791Z" fill="#D5D6DB"/>
<path d="M20.8895 22.6163C20.8895 22.9666 20.0939 23.6671 19.5204 23.8103C18.947 23.9533 18.7238 24.3677 17.9912 24.4788C17.2586 24.5909 17.1636 24.2246 17.1636 24.2246L17.1443 24.1349C17.2223 24.2352 17.4263 24.3826 17.9272 24.3068C18.6598 24.1957 18.8829 23.7813 19.4553 23.6383C20.0106 23.4995 20.7742 22.8384 20.8233 22.4785C20.8649 22.502 20.8895 22.5458 20.8895 22.6163Z" fill="#4D5C7D"/>
<path d="M3.84699 19.5474C3.9487 19.1867 4.62789 18.8412 5.03576 18.7854C5.14252 18.7708 5.22442 18.6818 5.21908 18.5742C5.20721 18.3347 5.26068 17.9221 5.64149 17.456C5.71929 17.3607 5.69371 17.2181 5.59069 17.1509L4.75904 16.6086C4.75904 16.6086 4.51627 16.4171 4.07706 17.014C3.63792 17.6107 3.77305 18.0611 3.46903 18.5679C3.16501 19.0746 3.01368 20.1331 3.26144 20.3808C3.5092 20.6284 3.72314 19.9866 3.84699 19.5474Z" fill="#D5D6DB"/>
<path d="M3.2614 20.3803C3.0137 20.1326 3.08094 19.0746 3.38525 18.568C3.68957 18.0613 3.55438 17.6105 3.99388 17.0139C4.43261 16.4166 4.75882 16.6084 4.75882 16.6084L4.83585 16.6583C4.70975 16.6424 4.46133 16.6824 4.16076 17.0902C3.72126 17.6868 3.85644 18.1376 3.5529 18.6435C3.25837 19.1343 3.18592 20.1416 3.40567 20.4309C3.35961 20.4437 3.31125 20.4301 3.2614 20.3803Z" fill="#4D5C7D"/>
</g>
<defs>
<clipPath id="clip0_879_2104">
<rect width="24" height="24" fill="white" transform="translate(0 0.5)"/>
</clipPath>
</defs>
</svg>
