<svg width="22" height="22" viewBox="0 0 22 22" fill="none" xmlns="http://www.w3.org/2000/svg">
<path fill-rule="evenodd" clip-rule="evenodd" d="M20.048 9.39786L18.1885 14.9763C16.8774 18.9095 16.2219 20.8761 15.2606 21.4349C14.3461 21.9666 13.2167 21.9666 12.3022 21.4349C11.3409 20.8761 10.6854 18.9095 9.37431 14.9763C9.1638 14.3448 9.05854 14.029 8.88185 13.7651C8.71061 13.5093 8.49088 13.2896 8.2351 13.1183C7.97116 12.9416 7.65539 12.8364 7.02386 12.6259C3.09067 11.3148 1.12408 10.6593 0.565233 9.69798C0.0335938 8.78349 0.0335941 7.65404 0.565234 6.73956C1.12408 5.77827 3.09068 5.12274 7.02386 3.81167L12.6023 1.95219C17.4756 0.327775 19.9122 -0.484432 21.1984 0.801775C22.4846 2.08798 21.6724 4.52461 20.048 9.39786ZM12.1327 9.81102C11.8171 9.49196 11.82 8.97752 12.139 8.66199L16.7004 4.15086C17.0195 3.83532 17.5339 3.83818 17.8495 4.15723C18.165 4.47628 18.1622 4.99072 17.8431 5.30626L13.2817 9.81739C12.9626 10.1329 12.4482 10.1301 12.1327 9.81102Z" fill="white"/>
</svg>
