<svg width="18" height="18" viewBox="0 0 18 18" fill="none" xmlns="http://www.w3.org/2000/svg">
<path d="M13.905 3.08988L9.78001 1.54488C9.35251 1.38738 8.65501 1.38738 8.22751 1.54488L4.10251 3.08988C3.30751 3.38988 2.66251 4.31988 2.66251 5.16738V11.2424C2.66251 11.8499 3.06001 12.6524 3.54751 13.0124L7.67251 16.0949C8.40001 16.6424 9.59251 16.6424 10.32 16.0949L14.445 13.0124C14.9325 12.6449 15.33 11.8499 15.33 11.2424V5.16738C15.3375 4.31988 14.6925 3.38988 13.905 3.08988ZM11.61 7.28988L8.38501 10.5149C8.27251 10.6274 8.13001 10.6799 7.98751 10.6799C7.84501 10.6799 7.70251 10.6274 7.59001 10.5149L6.39001 9.29988C6.17251 9.08238 6.17251 8.72238 6.39001 8.50488C6.60751 8.28738 6.96751 8.28738 7.18501 8.50488L7.99501 9.31488L10.8225 6.48738C11.04 6.26988 11.4 6.26988 11.6175 6.48738C11.835 6.70488 11.835 7.07238 11.61 7.28988Z" fill="#FF5F2D"/>
</svg>
