<svg width="30" height="84" viewBox="0 0 30 84" fill="none" xmlns="http://www.w3.org/2000/svg">
<path d="M7.18404 76.6891C6.91529 78.1739 8.26724 78.9205 10.2454 78.6994C12.2235 78.4782 12.6401 77.3063 13.3651 76.6551C14.0899 76.0039 14.7934 75.6526 15.4569 75.202C15.8786 74.8661 16.1909 74.3821 16.1307 74.0754C15.6094 73.1616 7.5608 74.6073 7.18404 76.6891Z" fill="#161616"/>
<path d="M15.7978 71.9635C14.7914 71.2264 14.0285 72.2188 12.7752 72.0891C12.3228 72.1284 11.3143 73.1104 11.1754 73.2879C10.8861 73.6573 10.3305 74.1182 9.83242 74.5084C9.46035 74.7998 9.45136 74.5041 9.09218 74.6678C8.02129 75.1563 7.37871 75.6502 7.19863 76.584C7.01855 77.5178 7.27324 78.8094 9.8998 78.5473C12.5266 78.2852 12.6514 76.9 13.5713 76.3104C14.4912 75.7206 16.0475 74.7213 16.1459 74.0004C16.2166 73.4821 16.2705 72.7047 16.1383 72.1854C16.0865 71.9827 15.9738 72.1854 15.7978 71.9635Z" fill="#FCB117"/>
<path d="M15.7978 71.9635C14.7914 71.2264 14.0285 72.2188 12.7751 72.0891L16.1382 72.1856C16.1382 72.1856 15.9738 72.1854 15.7978 71.9635Z" fill="#FCBB17"/>
<path d="M12.7962 72.0913C12.1357 72.0095 11.4689 72.6288 10.9159 73.2308C10.0968 74.2198 9.45694 74.4989 9.18936 74.6335C9.14014 74.7751 9.07628 75.2517 9.17823 75.4184C9.78956 76.4163 11.1978 76.5515 12.4515 75.0921C13.7052 73.6327 13.6161 73.6696 13.7355 73.7241C13.2749 73.5788 14.0327 72.1249 12.7962 72.0913Z" fill="#444348"/>
<path d="M12.3085 72.1159C12.1776 72.1583 11.8786 72.3485 11.7902 72.4219C11.2058 72.9063 11.7528 73.8305 13.3165 74.0256C14.7964 74.2104 16.2263 73.3762 16.1696 72.3366C16.1128 71.2969 13.3034 71.795 12.3085 72.1159Z" fill="#444348"/>
<path d="M15.1906 81.4205C14.9219 82.9055 16.2738 83.652 18.2522 83.4309C20.2303 83.2098 20.6469 82.0377 21.3717 81.3865C22.0965 80.7354 22.8 80.384 23.4635 79.9334C23.8852 79.5975 24.1977 79.1135 24.1373 78.8069C23.616 77.893 15.5674 79.3389 15.1906 81.4205Z" fill="#161616"/>
<path d="M23.8042 76.695C22.7978 75.9579 22.0349 76.9502 20.7816 76.8206C20.3292 76.8598 19.3208 77.842 19.182 78.0194C18.8927 78.3887 18.3371 78.8497 17.839 79.2399C17.4669 79.5313 17.458 79.2356 17.0988 79.3993C16.0279 79.8877 15.3853 80.3819 15.2052 81.3157C15.0251 82.2493 15.2798 83.5411 17.9064 83.2789C20.5332 83.0168 20.658 81.6319 21.5779 81.0422C22.4978 80.4524 24.0541 79.4532 24.1525 78.7323C24.2232 78.2139 24.2771 77.4366 24.1449 76.9172C24.0931 76.7143 23.9802 76.917 23.8042 76.695Z" fill="#FCB117"/>
<path d="M23.8043 76.695C22.7978 75.9579 22.0349 76.9502 20.7816 76.8206L24.1447 76.917C24.1447 76.917 23.9803 76.917 23.8043 76.695Z" fill="#FCBB17"/>
<path d="M20.8028 76.8227C20.1422 76.7409 19.4754 77.3602 18.9225 77.9622C18.1034 78.9513 17.4635 79.2304 17.196 79.3651C17.1467 79.5067 17.0829 79.9833 17.1848 80.1499C17.7961 81.1479 19.2044 81.2829 20.4581 79.8235C21.7118 78.364 21.6227 78.4011 21.742 78.4554C21.2815 78.3104 22.0393 76.8565 20.8028 76.8227Z" fill="#444348"/>
<path d="M20.3151 76.8483C20.184 76.8905 19.8852 77.0809 19.7965 77.1543C19.2121 77.6387 19.7592 78.5629 21.3229 78.7581C22.8027 78.9426 24.2326 78.1084 24.176 77.069C24.1193 76.0295 21.31 76.5272 20.3151 76.8483Z" fill="#444348"/>
<path d="M16.2265 60.7351C16.7408 58.0578 16.883 46.6259 16.2265 44.2355C15.5699 41.8451 11.0203 39.6306 10.3619 43.9613C10.0258 46.1724 9.18553 56.2482 10.5785 60.201C10.8556 61.0357 10.9789 66.0914 11.9338 69.2259C12.4262 70.7123 12.3031 71.7347 12.357 72.5547C12.3984 73.7896 16.0998 73.8019 15.9863 72.1859C15.8695 71.6232 15.7455 71.0146 15.9129 70.3773C16.2939 68.9263 17.2674 63.2369 16.2265 60.7351Z" fill="#E8C6AB"/>
<path d="M24.2992 43.7404C24.2992 43.7404 16.3246 41.8332 16.2322 44.6045C16.1826 46.0916 16.5814 50.1277 16.9871 54.4572C17.3375 58.1974 17.6199 62.2035 18.4977 64.4086C18.7287 65.1476 19.2478 71.2883 19.5182 73.207C19.7885 75.1258 19.9775 75.639 20.0855 77.2605C20.1936 78.882 23.8283 78.5037 23.9228 76.8006C24.0039 76.0703 24.0373 74.9886 24.0885 74.517C24.3537 72.0687 25.9137 67.9328 24.4359 63.6299C25.2557 60.3836 25.3154 49.2931 24.2992 43.7404Z" fill="#EFCDB0"/>
<path d="M14.8606 37.7334L11.9048 40.1137L13.4753 48.7574C13.4753 48.7574 11.9263 53.29 13.5661 54.1564C14.1974 54.3375 17.8999 54.4936 18.1962 52.6125C18.1962 52.6125 19.5622 49.8852 19.5876 49.2707C19.5958 49.0768 19.6583 48.9818 19.7417 48.9594C19.6978 48.6719 19.6708 47.2869 19.67 46.9951C19.6688 46.6086 19.737 46.2365 19.796 45.8564C19.9062 45.148 19.9671 44.4312 20.1489 43.7359C20.3167 43.0943 20.6235 42.542 21.096 42.0752C21.22 41.9527 21.354 41.8424 21.4933 41.7385L19.1632 40.1738L14.8606 37.7334Z" fill="#FE7701"/>
<path d="M24.4147 43.7004L21.516 41.7539C21.0801 42.077 20.7014 42.491 20.4571 42.9723C20.1301 43.6158 20.0299 44.3615 19.933 45.0682C19.8688 45.5375 19.7807 46.0063 19.7264 46.4764C19.6731 46.9371 19.6991 48.4961 19.7692 48.9529C19.8028 48.9504 19.8387 48.9578 19.8756 48.975C20.0192 49.074 20.152 49.3002 20.1639 49.6033C20.1893 50.2471 20.7743 54.0494 20.7743 54.0494C22.5682 55.5207 21.06 58.1506 22.1903 58.5725C25.5823 58.8564 25.7491 56.2861 25.6325 55.4947C25.516 54.7035 24.4147 43.7004 24.4147 43.7004Z" fill="#FCB117"/>
<path d="M16.1239 42.4957L10.6495 38.7402C10.6495 38.7402 9.69186 48.3668 9.33776 50.5785C9.23912 51.5145 9.8358 52.9082 13.5661 54.1562C13.5661 54.1562 14.6844 49.9373 14.7098 49.3229C14.7219 49.0336 15.0145 48.9125 15.5573 49.1781C16.1001 49.4438 16.4139 49.9988 16.426 50.3018C16.4436 50.7504 16.5188 52.824 16.6928 54.6129C16.7489 55.9186 17.318 56.2557 17.4542 56.3619C20.5924 58.6592 22.4981 58.5898 22.4981 58.5898L20.6733 45.1496L16.1239 42.4957Z" fill="#FCB117"/>
<path d="M20.5162 39.3092C18.2397 37.995 13.8588 36.6831 11.4346 37.6551C9.51195 38.7401 11.192 41.1659 14.8067 43.2214C19.7125 46.1188 23.7741 45.2253 24.4494 44.1989C24.5164 44.0969 24.4494 43.8149 24.4494 43.7178C24.0508 42.2628 23.1858 40.8505 20.5162 39.3092Z" fill="#B8290B"/>
<path d="M13.4444 18.7049C12.8957 18.6201 11.2608 18.7742 10.3278 20.3467C9.39457 21.9192 6.44066 27.8758 6.44066 27.8758C5.05258 27.7387 4.09125 27.8801 2.97797 27.4297C2.68735 27.3121 2.14496 26.7172 1.8348 26.5971C0.336758 26.017 -0.673984 29.425 1.18539 30.0555C1.58852 30.1922 2.19281 29.9113 2.81586 30.132C5.06645 30.9291 8.2225 32.46 8.96821 31.6174C11.3409 29.3359 15.6131 19.5744 13.4444 18.7049Z" fill="#EBC3A0"/>
<path d="M23.9204 22.1208C21.9825 20.6124 15.262 18.9378 13.4446 18.705C11.6272 18.4722 9.98071 22.496 9.92192 25.0716C9.86313 27.6472 10.3875 32.6069 10.6301 38.1384C10.694 39.2868 11.0192 40.4704 16.0245 43.1495C21.1334 45.9257 24.4436 43.6866 24.4489 43.6829C24.4448 43.6808 24.4209 43.5265 24.6805 39.2481C24.9577 34.6751 25.7436 32.2435 25.8776 31.7349C26.3373 28.0175 27.0012 25.6976 26.0346 23.9431C25.7122 23.3585 24.4047 22.498 23.9204 22.1208Z" fill="#E7290B"/>
<path d="M21.3096 17.1693C21.2959 16.4544 20.4223 17.1693 20.4223 17.1693L15.0391 17.5952C15.0391 17.5952 15.4602 19.207 14.492 20.5786C13.5238 21.9503 14.1561 26.9316 16.1461 26.5013C18.1365 26.071 22.135 22.4923 21.8281 21.0374C21.8279 21.0374 21.0139 18.8634 21.3096 17.1693Z" fill="#EECAAB"/>
<path d="M19.1168 9.7975C16.0092 8.98558 14.2177 9.88148 13.7978 11.925C13.3781 13.9686 13.1261 18.6996 14.6935 20.603C16.2611 22.5067 20.0963 20.4633 21.4121 18.6436C22 17.8037 22.3777 17.383 22.4398 16.4407C22.4717 15.96 22.4779 15.9338 22.6008 15.4328C22.9648 13.9491 22.2238 10.6094 19.1168 9.7975Z" fill="#FFD7B8"/>
<path d="M20.517 8.25516C18.273 7.45965 17.4219 8.25575 17.2678 8.27176C17.1107 8.28934 14.3547 8.36688 13.4799 10.6536C13.3047 11.1118 13.108 13.1739 13.5426 13.8475C13.5426 13.8475 14.0053 12.8464 14.3518 12.9485C14.3518 12.9485 14.7531 13.813 16.0605 14.0581C18.3486 14.436 19.6625 13.872 20.3744 13.8729C20.8016 13.8733 20.9978 14.2091 21.0973 14.7048C21.1352 14.8188 21.7145 13.9923 22.2555 14.9911C22.427 15.3927 22.3309 15.7962 22.2756 16.3388C22.2143 16.947 22.1035 17.6341 22.1035 17.6341C22.1035 17.6341 23.4637 15.9542 23.7156 13.9388C23.9674 11.9231 22.7088 9.18719 20.517 8.25516Z" fill="#331707"/>
<path d="M28.4974 38.4875C27.9273 37.2285 27.2324 35.5896 27.3264 35.1545C27.6525 32.4634 28.1455 27.0496 26.5277 24.4703C24.5256 21.2779 22.725 24.2226 22.3971 27.6908C22.0691 31.1589 23.7771 36.3093 24.1375 37.3181C24.4033 38.0625 25.8662 39.7648 27.1281 41.2498C27.5766 41.7775 27.7639 42.9404 28.191 43.1009C30.2088 43.8593 29.8234 40.9013 29.5351 40.0367C29.4277 39.7142 28.8365 39.2365 28.4974 38.4875Z" fill="#FFD7B8"/>
<path d="M0.284058 25.5264C0.284058 27.0672 0.581908 26.4002 0.581908 27.8771C0.581908 29.3543 0.284058 29.9492 0.284058 30.807C0.284058 30.9574 0.388353 31.1209 0.595385 31.241C1.01101 31.4805 1.68406 31.4805 2.09929 31.241C2.30691 31.1209 2.40672 31.0469 2.41082 30.807C2.41082 29.9535 2.16726 29.5168 2.16726 27.8771C2.16726 26.2375 2.41082 27.1432 2.41082 25.5264H0.284058Z" fill="#E7290B"/>
<path d="M2.09929 25.1068C1.68367 24.8667 1.01062 24.8667 0.595386 25.1068C0.179956 25.3462 0.179956 25.7351 0.595386 25.9748C1.01042 26.2144 1.68347 26.2144 2.09929 25.9748C2.51453 25.7351 2.51453 25.3462 2.09929 25.1068Z" fill="#F86C32"/>
<path d="M27.5239 38.8203C27.5239 40.3611 27.8218 39.6941 27.8218 41.1711C27.8218 42.6482 27.5239 43.2432 27.5239 44.101C27.5239 44.2514 27.6282 44.4148 27.8353 44.535C28.2509 44.7744 28.9239 44.7744 29.3392 44.535C29.5468 44.4148 29.6464 44.3408 29.6507 44.101C29.6507 43.2475 29.4071 42.8107 29.4071 41.1711C29.4071 39.5314 29.6507 40.4371 29.6507 38.8203H27.5239Z" fill="#E7290B"/>
<path d="M29.339 38.4007C28.9233 38.1607 28.2503 38.1607 27.8353 38.4007C27.4198 38.6402 27.4198 39.0291 27.8353 39.2687C28.2503 39.5083 28.9233 39.5083 29.339 39.2687C29.7542 39.0291 29.7542 38.6402 29.339 38.4007Z" fill="#F86C32"/>
<path d="M18.9436 0.986123C14.9936 -0.00606424 11.5336 0.626748 8.66079 2.8664C2.77017 7.46034 0.679932 17.8266 0.679932 25.3078C0.679932 25.3078 0.758837 25.6734 1.32798 25.6734C1.89712 25.6734 1.977 25.3078 1.977 25.3078C1.977 17.5508 4.29048 7.91991 9.45825 3.88905C11.9997 1.90741 15.0854 1.35429 18.6276 2.24433C31.2678 5.41913 27.9432 38.4322 27.9073 38.765C27.9073 38.765 28.0194 39.05 28.5288 39.05C29.0381 39.05 29.1301 38.7744 29.1338 38.7402C29.428 35.8621 32.328 4.34804 18.9436 0.986123Z" fill="#4DAFFF"/>
<path d="M28.4253 41.2502C28.4253 42.415 28.4644 43.4385 29.5978 43.4043C30.1909 42.7002 30.1007 40.3072 29.5062 39.9109C29.2515 39.741 28.4253 40.0854 28.4253 41.2502Z" fill="#FFD7B8"/>
<path d="M28.0289 39.6377C27.2723 39.3315 26.0291 39.7301 27.0381 40.2705C27.0381 40.2705 27.2203 40.8174 27.941 40.8356C28.6617 40.8537 28.7856 39.944 28.0289 39.6377Z" fill="#FFD7B8"/>
<path d="M1.34731 26.7774C1.13149 27.48 1.93774 27.8493 2.53227 28.0655C3.1268 28.2817 3.09302 27.5559 2.73677 27.244C2.73677 27.244 1.56294 26.0749 1.34731 26.7774Z" fill="#EBC3A0"/>
<path d="M0.477383 26.8595C0.477383 26.8595 0.0326582 26.9851 0.0596114 27.4041C0.0867598 27.8228 0.0166403 27.85 0.0584371 28.1742C0.100234 28.4984 -0.129648 28.8628 0.113712 29.0929C0.357071 29.3232 0.275821 29.4982 0.884024 29.5253C1.49203 29.5523 1.61371 29.2957 1.64067 29.0929C1.66762 28.8902 1.74867 28.6605 1.74867 28.3767C1.74867 28.0931 1.28715 26.8152 0.477383 26.8595Z" fill="#EBC3A0"/>
</svg>
