<svg width="32" height="32" viewBox="0 0 32 32" fill="none" xmlns="http://www.w3.org/2000/svg">
<path d="M15.8999 29.7C8.9249 29.7 1.3999 25.325 1.3999 15.725C1.3999 6.125 8.9249 1.75 15.8999 1.75C19.7749 1.75 23.3499 3.025 25.9999 5.35C28.8749 7.9 30.3999 11.5 30.3999 15.725C30.3999 19.95 28.8749 23.525 25.9999 26.075C23.3499 28.4 19.7499 29.7 15.8999 29.7Z" fill="url(#paint0_radial_2246_1772)"/>
<path d="M11 10.2354C9.9525 10.2354 9 11.1204 9 12.5904C9 14.0604 9.9525 14.9429 11 14.9429C12.05 14.9429 13 14.0579 13 12.5904C13 11.1229 12.06 10.2354 11 10.2354Z" fill="#422B0D"/>
<path d="M10.9124 11.2171C10.7412 11.1357 10.5448 11.1252 10.3659 11.188C10.187 11.2507 10.0402 11.3816 9.95737 11.5521C9.82487 11.8296 9.88487 12.1621 10.1074 12.3771C10.4624 12.5471 10.8899 12.3971 11.0624 12.0421C11.1949 11.7646 11.1349 11.4321 10.9124 11.2171Z" fill="#896024"/>
<path d="M20.6001 10.2354C19.5526 10.2354 18.6001 11.1204 18.6001 12.5904C18.6001 14.0604 19.5526 14.9429 20.6001 14.9429C21.6476 14.9429 22.6001 14.0579 22.6001 12.5904C22.6001 11.1229 21.6476 10.2354 20.6001 10.2354Z" fill="#422B0D"/>
<path d="M20.4998 11.2171C20.3286 11.1357 20.1322 11.1252 19.9533 11.188C19.7744 11.2507 19.6276 11.3816 19.5448 11.5521C19.4123 11.8296 19.4723 12.1621 19.6948 12.3771C20.0498 12.5471 20.4773 12.3971 20.6498 12.0421C20.7823 11.7646 20.7223 11.4321 20.4998 11.2171Z" fill="#896024"/>
<path d="M15.75 22.9022C13.4825 22.9197 11.3175 21.9672 9.79998 20.2822C9.68498 20.1497 9.65748 19.9622 9.72998 19.8022C9.80248 19.6397 9.96248 19.5347 10.14 19.5322C10.22 19.5322 10.3 19.5547 10.37 19.5947C11.575 20.2872 13.59 21.1472 15.75 21.1472H15.785C17.9425 21.1472 19.96 20.2872 21.1625 19.5947C21.2325 19.5547 21.3125 19.5322 21.3925 19.5322C21.57 19.5347 21.73 19.6397 21.8025 19.8022C21.8775 19.9622 21.85 20.1497 21.7325 20.2822C20.9818 21.1155 20.0628 21.7799 19.0363 22.2316C18.0097 22.6832 16.899 22.9118 15.7775 22.9022" fill="#422B0D"/>
<path d="M27.8725 7.41797C29.205 9.56797 29.9 12.128 29.9 14.9755C29.9 19.2005 28.375 22.7755 25.5 25.3255C22.85 27.6505 19.25 28.9505 15.4 28.9505C10.885 28.9505 6.14998 27.113 3.35498 23.2155C6.04498 27.6305 11.105 29.7005 15.9 29.7005C19.75 29.7005 23.35 28.4005 26 26.0755C28.875 23.5255 30.4 19.9505 30.4 15.7255C30.4 12.5405 29.5325 9.71047 27.8725 7.41797Z" fill="#EB8F00"/>
<defs>
<radialGradient id="paint0_radial_2246_1772" cx="0" cy="0" r="1" gradientUnits="userSpaceOnUse" gradientTransform="translate(15.8999 15.725) scale(14.24)">
<stop offset="0.5" stop-color="#FDE030"/>
<stop offset="0.92" stop-color="#F7C02B"/>
<stop offset="1" stop-color="#F4A223"/>
</radialGradient>
</defs>
</svg>
