<svg width="33" height="32" viewBox="0 0 33 32" fill="none" xmlns="http://www.w3.org/2000/svg">
<path d="M16.3999 29.7C9.4249 29.7 1.8999 25.325 1.8999 15.725C1.8999 6.125 9.4249 1.75 16.3999 1.75C20.2749 1.75 23.8499 3.025 26.4999 5.35C29.3749 7.9 30.8999 11.5 30.8999 15.725C30.8999 19.95 29.3749 23.525 26.4999 26.075C23.8499 28.4 20.2499 29.7 16.3999 29.7Z" fill="url(#paint0_radial_2266_1824)"/>
<path d="M11.5 10.2354C10.4525 10.2354 9.5 11.1204 9.5 12.5904C9.5 14.0604 10.4525 14.9429 11.5 14.9429C12.55 14.9429 13.5 14.0579 13.5 12.5904C13.5 11.1229 12.56 10.2354 11.5 10.2354Z" fill="#494949"/>
<path d="M11.4124 11.2171C11.2412 11.1357 11.0448 11.1252 10.8659 11.188C10.687 11.2507 10.5402 11.3816 10.4574 11.5521C10.3249 11.8296 10.3849 12.1621 10.6074 12.3771C10.9624 12.5471 11.3899 12.3971 11.5624 12.0421C11.6949 11.7646 11.6349 11.4321 11.4124 11.2171Z" fill="#7C7C7C"/>
<path d="M21.1001 10.2354C20.0526 10.2354 19.1001 11.1204 19.1001 12.5904C19.1001 14.0604 20.0526 14.9429 21.1001 14.9429C22.1476 14.9429 23.1001 14.0579 23.1001 12.5904C23.1001 11.1229 22.1476 10.2354 21.1001 10.2354Z" fill="#494949"/>
<path d="M20.9998 11.2171C20.8286 11.1357 20.6322 11.1252 20.4533 11.188C20.2744 11.2507 20.1276 11.3816 20.0448 11.5521C19.9123 11.8296 19.9723 12.1621 20.1948 12.3771C20.5498 12.5471 20.9773 12.3971 21.1498 12.0421C21.2823 11.7646 21.2223 11.4321 20.9998 11.2171Z" fill="#7C7C7C"/>
<path d="M16.25 22.9022C13.9825 22.9197 11.8175 21.9672 10.3 20.2822C10.185 20.1497 10.1575 19.9622 10.23 19.8022C10.3025 19.6397 10.4625 19.5347 10.64 19.5322C10.72 19.5322 10.8 19.5547 10.87 19.5947C12.075 20.2872 14.09 21.1472 16.25 21.1472H16.285C18.4425 21.1472 20.46 20.2872 21.6625 19.5947C21.7325 19.5547 21.8125 19.5322 21.8925 19.5322C22.07 19.5347 22.23 19.6397 22.3025 19.8022C22.3775 19.9622 22.35 20.1497 22.2325 20.2822C21.4818 21.1155 20.5628 21.7799 19.5363 22.2316C18.5097 22.6832 17.399 22.9118 16.2775 22.9022" fill="#494949"/>
<path d="M28.3725 7.41699C29.705 9.56699 30.4 12.127 30.4 14.9745C30.4 19.1995 28.875 22.7745 26 25.3245C23.35 27.6495 19.75 28.9495 15.9 28.9495C11.385 28.9495 6.64998 27.112 3.85498 23.2145C6.54498 27.6295 11.605 29.6995 16.4 29.6995C20.25 29.6995 23.85 28.3995 26.5 26.0745C29.375 23.5245 30.9 19.9495 30.9 15.7245C30.9 12.5395 30.0325 9.70949 28.3725 7.41699Z" fill="#B8B8B8"/>
<defs>
<radialGradient id="paint0_radial_2266_1824" cx="0" cy="0" r="1" gradientUnits="userSpaceOnUse" gradientTransform="translate(16.3999 15.725) scale(14.24)">
<stop offset="0.5" stop-color="#EBEBEB"/>
<stop offset="0.92" stop-color="#D2D2D2"/>
<stop offset="1" stop-color="#B8B8B8"/>
</radialGradient>
</defs>
</svg>
