<svg width="20" height="21" viewBox="0 0 20 21" fill="none" xmlns="http://www.w3.org/2000/svg">
<path d="M14.1667 3.41669H5.83334C3.33334 3.41669 1.66667 4.66669 1.66667 7.58335V13.4167C1.66667 16.3334 3.33334 17.5834 5.83334 17.5834H14.1667C16.6667 17.5834 18.3333 16.3334 18.3333 13.4167V7.58335C18.3333 4.66669 16.6667 3.41669 14.1667 3.41669ZM14.5583 8.49169L11.95 10.575C11.4 11.0167 10.7 11.2334 10 11.2334C9.30001 11.2334 8.59167 11.0167 8.05001 10.575L5.44167 8.49169C5.17501 8.27502 5.13334 7.87502 5.34167 7.60835C5.55834 7.34169 5.95001 7.29169 6.21667 7.50835L8.82501 9.59169C9.45834 10.1 10.5333 10.1 11.1667 9.59169L13.775 7.50835C14.0417 7.29169 14.4417 7.33335 14.65 7.60835C14.8667 7.87502 14.825 8.27502 14.5583 8.49169Z" fill="currentColor"/>
</svg>
