<svg width="69" height="83" viewBox="0 0 69 83" fill="none" xmlns="http://www.w3.org/2000/svg">
<path d="M33.3128 80.8121C33.1587 82.3666 34.6158 83.025 36.6388 82.6326C38.6619 82.2402 38.8966 81.0841 39.6472 80.4098C40.3977 79.7355 40.8927 79.4047 41.5798 78.9384C42.0164 78.5907 42.3399 78.0896 42.2774 77.772C41.7375 76.8264 33.5289 78.6325 33.3128 80.8121Z" fill="#161616"/>
<path d="M41.9326 75.5856C40.8906 74.8223 40.1009 75.8499 38.8033 75.7156C38.335 75.7563 37.291 76.7731 37.1473 76.9566C36.8479 77.3389 36.3468 77.8975 35.8652 78.3415C35.5054 78.6733 35.4717 78.3687 35.1145 78.5675C34.0499 79.1604 33.4277 79.7235 33.3192 80.7019C33.2108 81.6806 33.5807 82.9925 36.2697 82.504C38.9585 82.0157 38.7694 80.7583 39.7217 80.1478C40.6741 79.5373 42.1911 78.4408 42.2928 77.6944C42.3661 77.1578 42.422 76.353 42.2848 75.8153C42.2315 75.6055 42.1147 75.8153 41.9326 75.5856Z" fill="#FCB117"/>
<path d="M41.9325 75.5856C40.8905 74.8223 40.1008 75.8499 38.8032 75.7156L42.2851 75.8156C42.2851 75.8156 42.1146 75.8153 41.9325 75.5856Z" fill="#FCBB17"/>
<path d="M38.8249 75.7176C38.141 75.6327 37.4507 76.2739 36.8782 76.8972C36.0301 77.9212 35.4764 78.3628 35.2114 78.5238C35.1723 78.6741 35.146 79.1712 35.2651 79.3349C35.9786 80.314 37.17 80.3353 38.4678 78.8244C39.7656 77.3134 39.6735 77.3518 39.797 77.408C39.3206 77.2577 40.1049 75.7524 38.8249 75.7176Z" fill="#444348"/>
<path d="M38.32 75.7444C38.1845 75.7882 37.875 75.9851 37.7834 76.0611C37.1785 76.5626 37.7448 77.5195 39.3635 77.7214C40.8958 77.9127 42.376 77.0491 42.3174 75.9728C42.2585 74.8967 39.35 75.4122 38.32 75.7444Z" fill="#444348"/>
<path d="M16.5593 72.9309C16.2813 74.4681 17.6808 75.2412 19.7288 75.0121C21.7768 74.7832 22.208 73.5699 22.9587 72.8956C23.7091 72.2213 24.4373 71.8577 25.1244 71.3912C25.561 71.0435 25.8845 70.5424 25.822 70.2248C25.2821 69.279 16.9495 70.7758 16.5593 72.9309Z" fill="#161616"/>
<path d="M25.4773 68.0387C24.4353 67.2755 23.6456 68.303 22.348 68.1687C21.8797 68.2094 20.8357 69.2262 20.692 69.4097C20.3926 69.792 19.8171 70.2693 19.3016 70.6733C18.9164 70.975 18.9072 70.6689 18.5353 70.8384C17.4266 71.344 16.7613 71.8555 16.5749 72.8224C16.3884 73.7891 16.6519 75.1265 19.3715 74.8549C22.0908 74.5836 22.22 73.1497 23.1723 72.5392C24.1247 71.9285 25.736 70.8939 25.8378 70.1475C25.911 69.6109 25.9669 68.8062 25.8297 68.2685C25.7762 68.0587 25.6594 68.2687 25.4773 68.0387Z" fill="#FCB117"/>
<path d="M25.4773 68.0387C24.4353 67.2755 23.6456 68.303 22.348 68.1687L25.8299 68.2687C25.8297 68.2687 25.6594 68.2687 25.4773 68.0387Z" fill="#FCBB17"/>
<path d="M22.3697 68.1707C21.6858 68.0858 20.9954 68.727 20.4231 69.3503C19.5749 70.3743 18.9126 70.6632 18.6356 70.8027C18.5846 70.9493 18.5186 71.4426 18.6242 71.6153C19.2571 72.6485 20.715 72.7884 22.0128 71.2773C23.3106 69.7663 23.2185 69.8047 23.3423 69.8609C22.8652 69.7111 23.6498 68.2055 22.3697 68.1707Z" fill="#444348"/>
<path d="M21.8646 68.1977C21.729 68.2415 21.4197 68.4385 21.3278 68.5144C20.723 69.0159 21.2892 69.9728 22.908 70.1747C24.44 70.3658 25.9204 69.5024 25.8618 68.4259C25.8032 67.3498 22.8949 67.8653 21.8646 68.1977Z" fill="#444348"/>
<path d="M40.6028 44.9851C40.6028 44.9851 30.9431 46.6097 29.6716 42.3008C29.6716 42.3008 20.9125 50.8126 18.5815 58.3002C18.1576 59.9955 21.0537 67.3771 21.6896 68.7899C22.3255 70.2027 25.7074 70.2184 25.5042 67.9775C25.287 65.5847 25.1511 61.7259 24.0208 60.1721C24.0208 60.1721 31.6497 52.1899 32.6386 49.5058C32.6386 49.5058 32.9888 51.2099 32.9801 54.3091C32.9713 57.4085 32.3902 60.1617 32.804 61.8333C33.2175 63.5048 37.1421 74.5821 38.2015 76.3482C38.7667 77.4077 40.4396 77.7257 41.698 76.666C42.9565 75.6065 41.2106 66.6001 39.7978 62.6445C39.0912 61.3025 43.1456 51.6957 40.6028 44.9851Z" fill="#EECAAB"/>
<path d="M27.4643 23.3115C27.4643 23.3115 23.3162 23.3234 22.9991 23.0777C22.7875 22.9138 22.2338 20.988 20.7061 18.4813C20.3469 17.8922 20.441 16.2774 20.0187 15.532C19.5439 14.6937 18.5426 14.731 17.9499 14.2434C17.0613 13.7468 16.325 14.501 16.8691 17.5076C17.4131 20.5143 19.3667 26.1131 20.3206 26.9644C21.2748 27.8156 25.1791 29.4458 27.337 28.8785C29.4946 28.3111 29.2237 23.7693 27.4643 23.3115Z" fill="#EECAAB"/>
<path d="M29.6714 42.3008C29.6714 42.3008 20.2412 51.7308 20.418 52.9318C20.5945 54.1325 27.3052 58.4062 28.1881 58.0531C29.0711 57.6998 31.6518 53.3057 32.0631 52.1897C32.0631 52.1897 31.7466 57.4824 32.0377 58.5829C32.3288 59.6835 40.439 59.9582 40.9381 58.6535C41.4372 57.3487 42.7684 49.4195 41.1148 45.0556C41.1148 45.0556 30.943 46.6095 29.6714 42.3008Z" fill="#FCB117"/>
<path d="M38.6428 27.3953C33.8395 24.4992 27.8705 22.7685 26.599 23.1216C25.3275 23.4749 25.2922 27.6778 25.8573 31.5629C26.4224 35.448 27.4114 43.1476 29.1773 44.0658C30.9432 44.9842 37.3713 48.516 41.115 45.0547C42.1536 44.0945 43.446 30.2914 38.6428 27.3953Z" fill="#E7290B"/>
<path d="M53.1699 33.5109C52.2975 33.7838 51.5601 34.9745 50.0274 35.1299C48.4899 34.6549 45.526 34.9406 45.526 34.9406C43.5056 31.3805 43.5676 30.6831 41.6672 28.9862C40.9273 28.3256 39.1374 27.1576 37.7163 29.9197C36.2777 32.7156 42.7615 39.004 44.6853 39.2171C46.3685 39.4038 48.8471 39.5175 52.2178 38.1094C52.6993 37.9081 53.5019 37.5692 53.9931 37.3055C57.922 35.1955 55.5438 32.7684 53.1699 33.5109Z" fill="#EECAAB"/>
<path d="M5.98157 0.93127C2.67802 2.83843 0 7.47684 0 11.2914C0 13.1541 0.638339 14.4759 1.67648 15.1187C1.71961 15.1452 4.75835 16.9053 4.75835 16.9053C4.75835 16.9053 4.3581 15.6823 5.98157 14.745C9.28513 12.8376 13.528 2.45232 13.528 2.45232C13.528 2.45232 10.3376 0.587167 10.2435 0.531464C9.15867 -0.114512 7.64975 -0.0320793 5.98157 0.93127Z" fill="#5C5C5C"/>
<path d="M9.05855 1.01851C4.94012 3.39645 1.60107 9.17924 1.60107 13.9349C1.60107 16.2571 2.39709 17.9049 3.69129 18.7065C3.74497 18.7397 6.05171 20.0723 6.05171 20.0723C6.05171 20.0723 7.03415 19.4091 9.05855 18.2404C13.177 15.8625 16.8653 1.9877 16.8653 1.9877C16.8653 1.9877 14.4894 0.589508 14.3721 0.519655C13.0195 -0.28512 11.1384 -0.182251 9.05855 1.01851Z" fill="#6B6B6B"/>
<path d="M11.2632 2.29394C7.1445 4.67188 3.80591 10.4547 3.80591 15.2103C3.80591 19.966 7.1445 21.8936 11.2632 19.5156C15.3814 17.1379 18.7204 11.3551 18.7204 6.59948C18.7204 1.8436 15.3814 -0.0839951 11.2632 2.29394Z" fill="#545454"/>
<path d="M12.168 9.85089C11.9885 9.68513 11.7075 9.673 11.3902 9.85606C10.8484 10.1689 10.4091 10.9299 10.4091 11.5557C10.4091 11.8488 10.5063 12.059 10.6647 12.1689L10.6644 12.1695L10.6728 12.1743C10.6887 12.185 10.7055 12.1947 10.7228 12.2032L56.6083 38.6907L58.0413 36.3204L12.1682 9.85067L12.168 9.85089Z" fill="url(#paint0_linear_1071_1825)"/>
<path d="M58.4647 29.3728C54.2957 31.7797 50.916 37.6331 50.916 42.4471C50.916 44.7976 51.7217 46.4656 53.0318 47.2771C53.086 47.3108 55.0313 48.4368 55.0313 48.4368C55.0313 48.4368 56.4156 47.9882 58.4647 46.8052C62.6337 44.3981 65.9035 30.0756 65.9035 30.0756C65.9035 30.0756 63.871 28.8787 63.7012 28.7877C62.3439 28.0615 60.4981 28.1988 58.4647 29.3728Z" fill="#6B6B6B"/>
<path d="M60.3173 30.446C56.1484 32.8529 52.7687 38.7064 52.7687 43.5205C52.7687 48.3343 56.1484 50.2855 60.3173 47.8786C64.4861 45.4717 67.8656 39.6181 67.8656 34.8043C67.8658 29.9902 64.4863 28.0391 60.3173 30.446Z" fill="#545454"/>
<path d="M61.4837 32.9526C58.1927 34.8525 55.5248 39.4734 55.5248 43.2736C55.5248 45.1291 56.1609 46.4458 57.195 47.0863C57.2379 47.1128 58.7032 47.963 58.7032 47.963C58.7032 47.963 59.866 47.6479 61.4839 46.7139C64.7746 44.8137 67.3628 33.5101 67.3628 33.5101C67.3628 33.5101 65.7517 32.5624 65.6176 32.4908C64.546 31.9173 63.0887 32.0258 61.4837 32.9526Z" fill="#6B6B6B"/>
<path d="M63.0414 33.8607C59.7502 35.7608 57.0825 40.3815 57.0825 44.1819C57.0825 47.9818 59.7504 49.5222 63.0414 47.622C66.3324 45.7218 69.0001 41.1009 69.0001 37.301C69.0001 33.5011 66.3324 31.9607 63.0414 33.8607Z" fill="#545454"/>
<path d="M63.7694 39.2609C63.552 39.0601 63.2115 39.0453 62.8271 39.267C62.1704 39.6463 61.6381 40.5686 61.6381 41.3268C61.6381 41.6822 61.756 41.9369 61.9478 42.0699L61.9471 42.0707L61.9575 42.0766C61.9768 42.0896 61.997 42.1011 62.0181 42.1116L63.8606 43.1673L65.597 40.2948L63.7698 39.2607L63.7694 39.2609Z" fill="url(#paint1_linear_1071_1825)"/>
<path d="M64.7621 40.3736C64.1042 40.7534 63.5708 41.6772 63.5708 42.4369C63.5708 43.1965 64.1042 43.5044 64.7621 43.1246C65.42 42.7448 65.9535 41.821 65.9535 41.0614C65.9535 40.3017 65.42 39.9938 64.7621 40.3736Z" fill="#929292"/>
<path d="M34.9928 22.2433C34.9809 21.6234 34.2233 22.2433 34.2233 22.2433L29.5545 22.6128C29.5545 22.6128 30.1219 24.0496 29.2821 25.2394C28.4425 26.4289 29.418 29.537 31.1439 29.1637C32.8702 28.7904 34.9818 26.5832 35.0572 26.2517C34.316 25.4269 34.5121 24.208 34.9928 22.2433Z" fill="#EECAAB"/>
<path d="M33.7005 16.1124C31.0054 15.4085 29.4518 16.1854 29.0875 17.9576C28.7234 19.7299 28.5048 23.8331 29.8644 25.4838C31.224 27.1349 34.5502 25.3625 35.6912 23.7844C36.2011 23.056 36.5286 22.6912 36.5827 21.8738C36.6101 21.457 36.6157 21.4343 36.7222 20.9999C37.0378 19.7129 36.3952 16.8165 33.7005 16.1124Z" fill="#FFD7B8"/>
<path d="M34.9147 14.7748C32.9684 14.0848 32.2304 14.7752 32.0967 14.7892C31.9604 14.8044 29.5703 14.8716 28.8116 16.8549C28.6595 17.2525 28.489 19.0406 28.8657 19.625C28.8657 19.625 29.2671 18.7569 29.5676 18.8454C29.5676 18.8454 29.9158 19.5951 31.0496 19.8076C33.034 20.1353 34.1735 19.6461 34.7909 19.6468C35.1613 19.6472 35.3315 19.9383 35.4178 20.3682C35.4506 20.4671 35.953 19.7503 36.4223 20.6164C36.5709 20.9648 36.4876 21.3145 36.4398 21.7851C36.3865 22.3127 36.2904 22.9086 36.2904 22.9086C36.2904 22.9086 37.4701 21.4515 37.6886 19.7036C37.9071 17.9559 36.8155 15.5832 34.9147 14.7748Z" fill="#331707"/>
<path d="M51.9688 34.0585C51.4381 33.9116 50.2364 35.1007 50.2364 35.1007C50.2043 35.4686 50.3539 36.0939 51.1171 35.7197C51.8801 35.3453 52.4996 34.2054 51.9688 34.0585Z" fill="#EECAAB"/>
<path d="M19.8468 16.0168C19.1023 15.9595 19.5032 18.0212 19.5032 18.0212C19.5304 18.6512 20.706 18.4794 20.6119 18.2714C20.5177 18.0634 20.5914 16.0741 19.8468 16.0168Z" fill="#EECAAB"/>
<defs>
<linearGradient id="paint0_linear_1071_1825" x1="42.8568" y1="40.1878" x2="23.9591" y2="4.88793" gradientUnits="userSpaceOnUse">
<stop stop-color="#989898"/>
<stop offset="0.1509" stop-color="#9E9E9E"/>
<stop offset="0.347" stop-color="#AEAEAE"/>
<stop offset="0.5672" stop-color="#C9C9C9"/>
<stop offset="0.7104" stop-color="#DEDEDE"/>
<stop offset="0.7764" stop-color="#D8D8D8"/>
<stop offset="0.8682" stop-color="#C6C6C6"/>
<stop offset="0.9748" stop-color="#A8A8A8"/>
<stop offset="1" stop-color="#A0A0A0"/>
</linearGradient>
<linearGradient id="paint1_linear_1071_1825" x1="64.3835" y1="42.3949" x2="62.7964" y2="39.4305" gradientUnits="userSpaceOnUse">
<stop stop-color="#989898"/>
<stop offset="0.1509" stop-color="#9E9E9E"/>
<stop offset="0.347" stop-color="#AEAEAE"/>
<stop offset="0.5672" stop-color="#C9C9C9"/>
<stop offset="0.7104" stop-color="#DEDEDE"/>
<stop offset="0.7764" stop-color="#D8D8D8"/>
<stop offset="0.8682" stop-color="#C6C6C6"/>
<stop offset="0.9748" stop-color="#A8A8A8"/>
<stop offset="1" stop-color="#A0A0A0"/>
</linearGradient>
</defs>
</svg>
