<svg width="19" height="19" viewBox="0 0 19 19" fill="none" xmlns="http://www.w3.org/2000/svg">
<path d="M9.79297 2C5.66047 2 2.29297 5.3675 2.29297 9.5C2.29297 13.6325 5.66047 17 9.79297 17C13.9255 17 17.293 13.6325 17.293 9.5C17.293 5.3675 13.9255 2 9.79297 2ZM13.378 7.775L9.12547 12.0275C9.02047 12.1325 8.87797 12.1925 8.72797 12.1925C8.57797 12.1925 8.43547 12.1325 8.33047 12.0275L6.20797 9.905C5.99047 9.6875 5.99047 9.3275 6.20797 9.11C6.42547 8.8925 6.78547 8.8925 7.00297 9.11L8.72797 10.835L12.583 6.98C12.8005 6.7625 13.1605 6.7625 13.378 6.98C13.5955 7.1975 13.5955 7.55 13.378 7.775Z" fill="#FF5F2D"/>
</svg>
