<svg width="24" height="25" viewBox="0 0 24 25" fill="none" xmlns="http://www.w3.org/2000/svg">
<path d="M19.4825 8.92725C18.5286 7.91555 17.9973 5.57062 17.526 4.29522C17.4673 4.11869 17.3029 4 17.1168 4H5.895C5.70898 4 5.5441 4.11869 5.48584 4.29522C5.00675 5.58703 4.48796 7.90822 3.52935 8.92725C0.98761 11.977 2.00578 16.4804 3.75163 19.6786L4.17288 22.6205C4.2031 22.8328 4.38523 22.9908 4.60018 22.9908H11.0743V17.5245C10.5296 18.307 9.75445 18.9293 8.82778 19.2768C8.74276 19.2954 8.14455 19.5617 8.05305 19.5379C7.58777 19.5448 7.45311 18.8642 7.90112 18.7019C9.71258 18.1986 11.0791 16.723 11.0739 14.7894C11.076 14.2257 11.9349 14.2244 11.9371 14.7894C11.9371 16.4178 12.9617 17.8961 14.4866 18.4675L15.1098 18.7015C15.333 18.7852 15.4456 19.0342 15.3623 19.2574C15.1344 19.7973 14.5475 19.3843 14.1832 19.2755C13.2565 18.9281 12.4818 18.3061 11.9371 17.5236V22.9908H18.4112C18.6262 22.9908 18.8083 22.8328 18.8385 22.6205C18.8398 22.6183 19.2567 19.6799 19.2598 19.6786C21.0073 16.4813 22.0242 11.9757 19.4825 8.92725ZM13.0403 7.38036C12.108 8.00144 10.9043 8.00144 9.97198 7.38036C9.77344 7.24829 9.71992 6.98026 9.85242 6.78172C9.98449 6.58318 10.2521 6.52966 10.4511 6.66216C11.0924 7.08946 11.9203 7.08946 12.5621 6.66216C13.0317 6.35054 13.509 7.06572 13.0403 7.38036Z" fill="#FF5F2D"/>
</svg>
