<svg width="30" height="30" viewBox="0 0 30 30" fill="none" xmlns="http://www.w3.org/2000/svg">
<g clip-path="url(#clip0_559_2019)">
<path fill-rule="evenodd" clip-rule="evenodd" d="M3.04688 30C2.92969 30 2.87109 29.9414 2.75391 29.8828L0.117188 27.2461C0.0585938 27.1289 0 27.0117 0 26.8945C0 26.836 0.0585938 26.7188 0.117188 26.6016C2.8125 24.1992 3.69141 22.3242 2.69531 20.9766C2.51953 20.6836 2.28516 20.3906 2.05078 20.0977C1.46484 19.3945 0.878906 18.6914 0.644531 17.9297C0.351562 17.0508 0.585938 16.1719 1.28906 15.293L1.69922 14.8828C2.63672 14.0039 2.98828 13.6524 2.57812 12.1875C2.57812 12.1875 2.57812 12.1289 2.57812 12.0703C2.57812 12.0117 2.63672 11.4844 3.10547 10.8399C3.45703 10.3711 4.16016 9.78517 5.44922 9.60939C5.44922 9.25783 5.50781 8.73048 5.74219 8.14455C6.32812 6.7383 7.79297 5.56642 10.0195 4.62892C11.1914 4.16017 12.0703 3.45705 13.0664 2.75392C15 1.34767 16.9922 -0.0585796 20.918 0.0586079C21.9727 0.0586079 23.5547 0.175795 25.0781 0.585952C26.8945 1.1133 28.1836 1.87501 29.0039 2.9297C29.8828 4.21876 30.1172 5.8008 29.6484 7.6758C30.2344 9.19923 30.1172 11.1328 29.2969 13.0078C28.5352 14.8242 27.3047 16.3477 26.0156 16.9336C25.4297 20.1563 23.6133 21.7969 21.9727 23.2617C21.1523 24.082 20.332 24.7852 19.8047 25.6641C19.2188 26.6602 18.3984 27.0703 17.5781 27.4805C16.9922 27.7735 16.4648 28.0664 15.9375 28.5352V28.5938C15.4102 29.0625 14.8242 29.3555 14.0625 29.4141C13.0664 29.4727 11.9531 29.0039 10.6641 28.125C10.6641 28.125 10.3125 27.8906 9.66797 27.5977C7.79297 26.543 5.50781 28.0664 3.33984 29.8828C3.22266 29.9414 3.16406 30 3.04688 30Z" fill="#4FBA6F"/>
<path fill-rule="evenodd" clip-rule="evenodd" d="M1.69922 28.7695L1.11328 28.2422L22.6758 6.73828C22.8516 6.5625 23.0859 6.5625 23.2617 6.73828C23.4375 6.85547 23.4375 7.14844 23.2617 7.32422L1.69922 28.7695Z" fill="#47A764"/>
<path fill-rule="evenodd" clip-rule="evenodd" d="M18.75 11.6603C18.6328 11.6603 18.5742 11.6017 18.457 11.5431C18.3984 11.4259 18.3398 11.3673 18.3398 11.2501C18.3398 11.1329 18.3984 11.0158 18.457 10.9572C19.3945 9.96106 19.3945 6.73841 19.3359 5.56653C19.3359 5.33216 19.5117 5.15638 19.7461 5.15638C19.9805 5.09778 20.1562 5.27356 20.1562 5.50794C20.1562 5.56653 20.2148 6.62122 20.1562 7.91028C20.0977 8.84778 19.9805 9.6095 19.7461 10.1954C20.3906 10.0197 21.1523 9.90247 22.0312 9.84388C23.3203 9.72669 24.4336 9.84388 24.4922 9.84388C24.7266 9.84388 24.8438 10.0197 24.8438 10.254C24.8438 10.4884 24.6094 10.6642 24.4336 10.6642C23.2617 10.547 19.9805 10.547 19.043 11.4845C18.9844 11.6017 18.8672 11.6603 18.75 11.6603Z" fill="#47A764"/>
<path fill-rule="evenodd" clip-rule="evenodd" d="M21.6796 17.6367C21.621 17.6367 21.5038 17.5781 21.4452 17.5195C21.4452 17.5195 19.1601 15.9961 17.4609 15.8203C15.6445 16.0547 14.0038 16.5234 13.0663 17.4609C12.8906 17.5781 12.6562 17.5781 12.4804 17.4609C12.4218 17.3438 12.3632 17.2266 12.3632 17.168C12.3632 17.0508 12.4218 16.9336 12.4804 16.875C13.4179 15.9375 13.8867 14.1797 14.1796 12.3633C13.8281 10.6641 12.4218 8.49609 12.3632 8.49609C12.246 8.32031 12.3046 8.02734 12.4804 7.91016C12.6562 7.79297 12.9492 7.85156 13.0663 8.02734C13.1249 8.08594 13.8281 9.14062 14.3554 10.3711C14.5312 8.02734 14.3554 5.97656 14.3554 5.91797C14.3554 5.68359 14.5312 5.50781 14.7656 5.50781C14.9999 5.50781 15.1757 5.625 15.1757 5.85938C15.1757 6.09375 15.4101 9.25781 14.9999 12.3633C14.9999 12.4219 14.9999 12.5391 14.9413 12.5977C14.7656 13.7695 14.5312 14.8828 14.121 15.8203C17.6367 14.2969 23.789 14.8242 24.082 14.8242C24.3163 14.8242 24.4335 15.0586 24.4335 15.293C24.4335 15.4688 24.1992 15.6445 24.0234 15.6445C23.9648 15.6445 21.914 15.4688 19.5702 15.5859C20.8007 16.1719 21.8554 16.8164 21.914 16.875C22.0898 16.9922 22.1484 17.2852 22.0312 17.4609C21.9726 17.5781 21.7968 17.6367 21.6796 17.6367Z" fill="#47A764"/>
<path fill-rule="evenodd" clip-rule="evenodd" d="M14.7656 23.0861C14.707 23.0861 14.5898 23.0275 14.5312 22.9689C14.5312 22.9689 12.5976 21.6798 11.2499 21.5626C9.55071 21.797 8.26165 22.2658 7.61712 22.9103C7.44134 23.0275 7.20696 23.0275 7.03118 22.9103C6.97259 22.7931 6.914 22.7345 6.914 22.6173C6.914 22.5001 6.97259 22.3829 7.03118 22.3243C7.67571 21.6798 8.14446 20.5079 8.37884 18.8087C8.37884 18.7501 8.37884 18.7501 8.37884 18.7501C8.20306 17.3439 6.97259 15.4689 6.914 15.4689C6.79681 15.2931 6.8554 15.0001 7.03118 14.8829C7.20696 14.7658 7.49993 14.8243 7.61712 15.0001C7.61712 15.0587 8.14446 15.7618 8.61321 16.6993C8.67181 14.8243 8.55462 13.3009 8.55462 13.2423C8.55462 13.0079 8.7304 12.8322 8.90618 12.8322C9.14056 12.7736 9.37493 12.9493 9.37493 13.1837C9.37493 13.4181 9.78509 18.3986 8.55462 21.3868C11.5429 20.215 16.4648 20.5079 16.6992 20.5665C16.9335 20.5665 17.1093 20.7423 17.1093 20.9767C17.1093 21.2111 16.8749 21.3868 16.6406 21.3868C16.6406 21.3868 15.1171 21.2697 13.3007 21.3283C14.1796 21.797 14.9413 22.2658 14.9999 22.3243C15.1757 22.4415 15.2343 22.6759 15.1171 22.9103C15.0585 23.0275 14.8827 23.0861 14.7656 23.0861Z" fill="#47A764"/>
</g>
<defs>
<clipPath id="clip0_559_2019">
<rect width="30" height="30" fill="white"/>
</clipPath>
</defs>
</svg>
