<svg width="18" height="18" viewBox="0 0 18 18" fill="none" xmlns="http://www.w3.org/2000/svg">
<path d="M8.95499 1.65737L7.14749 5.86487H5.33999C5.03999 5.86487 4.74749 5.88737 4.46249 5.94737L5.21249 4.14737L5.24249 4.07987L5.28749 3.95987C5.30999 3.90737 5.32499 3.86237 5.34749 3.82487C6.21749 1.80737 7.19249 1.17737 8.95499 1.65737Z" fill="#FF5F2D"/>
<path d="M14.0475 6.06764L14.0325 6.06014C13.5825 5.93264 13.125 5.86514 12.66 5.86514H7.965L9.6525 1.94264L9.675 1.89014C9.78 1.92764 9.8925 1.98014 10.005 2.01764L11.6625 2.71514C12.585 3.09764 13.23 3.49514 13.6275 3.97514C13.695 4.06514 13.755 4.14764 13.815 4.24514C13.8825 4.35014 13.935 4.45514 13.965 4.56764C13.995 4.63514 14.0175 4.69514 14.0325 4.76264C14.145 5.14514 14.1525 5.58014 14.0475 6.06764Z" fill="#FF5F2D"/>
<path d="M13.7175 7.14023C13.38 7.04273 13.0275 6.99023 12.66 6.99023H5.33999C4.82999 6.99023 4.34999 7.08773 3.89999 7.28273C2.59499 7.84523 1.67999 9.14273 1.67999 10.6502V12.1127C1.67999 12.2927 1.69499 12.4652 1.71749 12.6452C1.88249 15.0302 3.15749 16.3052 5.54249 16.4627C5.71499 16.4852 5.88749 16.5002 6.07499 16.5002H11.925C14.7 16.5002 16.1625 15.1802 16.305 12.5552C16.3125 12.4127 16.32 12.2627 16.32 12.1127V10.6502C16.32 8.99273 15.2175 7.59773 13.7175 7.14023ZM10.875 12.5627H7.12499C6.81749 12.5627 6.56249 12.3077 6.56249 12.0002C6.56249 11.6927 6.81749 11.4377 7.12499 11.4377H10.875C11.1825 11.4377 11.4375 11.6927 11.4375 12.0002C11.4375 12.3077 11.1825 12.5627 10.875 12.5627Z" fill="#FF5F2D"/>
</svg>
